<svg width="340" height="340" viewBox="0 0 340 340" fill="none" xmlns="http://www.w3.org/2000/svg">
<path fill-rule="evenodd" clip-rule="evenodd" d="M30.4527 268.849C-5.48257 230.49 77.0289 198.55 63.0638 144.52C49.0987 90.4912 18.4696 29.4437 148.466 56.4901C211.895 69.6868 253.375 67.9479 287.834 89.3647C324.931 112.421 260.79 157.379 311.271 222.44C367.47 294.87 66.3881 307.209 30.4527 268.849Z" fill="#64FCD9"/>
<path d="M85.2835 245.349C84.3178 242.313 72.0325 247.049 67.7045 247.676C66.5481 247.844 71.8603 114.751 76.1882 83.9166C76.4789 81.8456 77.9602 79.086 79.8374 80.0214C82.4931 81.3448 85.6056 81.2609 88.5731 81.1551C142.242 79.2402 195.998 79.7818 249.617 82.7776C251.429 82.8789 253.393 83.0431 254.744 84.2517C256.032 85.4047 256.437 87.2219 256.762 88.9167C262.95 121.212 263.763 222.322 261.359 255.113C259.535 255.099 247.256 252.851 247.256 252.851C247.256 252.851 88.5731 240.455 85.2835 245.349Z" fill="white"/>
<path fill-rule="evenodd" clip-rule="evenodd" d="M157.732 185.709C155.494 209.913 153.033 234.097 150.348 258.256C150.276 258.904 150.018 259.731 149.365 259.739C112.555 260.198 75.7357 259.829 38.9432 258.63C38.5533 258.617 38.1278 258.591 37.8389 258.329C37.4638 257.99 37.4753 257.41 37.5157 256.907C39.5254 231.838 41.5352 206.768 43.545 181.699C43.9797 181.175 44.751 181.12 45.4328 181.105C81.6935 180.313 117.982 179.522 154.222 180.978C155.075 181.012 155.982 181.066 156.672 181.566C157.885 182.445 157.87 184.22 157.732 185.709Z" fill="white"/>
<path fill-rule="evenodd" clip-rule="evenodd" d="M235.97 106.709C236.544 107.15 236.765 107.897 236.951 108.594C243.095 131.636 245.985 155.536 245.51 179.372C245.455 182.143 245.504 185.287 247.553 187.162C248.975 160.908 246.076 134.426 239.008 109.095C238.347 106.723 240.163 104.44 241.849 102.64L253.684 90.0012C259.245 111.966 260.855 134.645 260.837 157.356C259.829 159.151 258.839 160.956 258.05 162.832C256.214 167.194 255.469 171.942 255.125 176.663C253.827 194.49 258.056 212.318 264.234 229.088C264.554 229.956 264.911 230.867 265.639 231.438C266.349 231.996 267.293 232.134 268.189 232.241C276.961 233.288 285.864 233.221 294.619 232.044C295.387 231.941 296.201 231.808 296.779 231.291C297.298 230.827 297.535 230.132 297.743 229.467C302.102 215.551 302.799 200.788 303.4 186.217C303.762 177.449 303.902 167.966 298.848 160.797C297.968 159.548 296.95 158.405 295.933 157.263C294.745 155.929 293.557 154.595 292.591 153.097C290.602 150.01 289.635 146.276 289.877 142.611C290.092 139.351 286.258 137.455 283.042 136.898C282.884 136.87 282.726 136.844 282.567 136.819C282.624 135.785 282.682 135.063 282.739 135.046C285.471 134.218 288.099 133.046 290.537 131.563C291.871 130.752 293.321 129.254 292.601 127.871C292.013 126.743 290.418 126.685 289.171 126.952C287.163 127.381 285.25 128.248 283.606 129.473C284.485 125.55 286.381 121.857 289.06 118.852C287.965 120.562 289.47 123.152 291.501 123.274C293.533 123.396 295.307 121.327 295.116 119.307C295.931 120.959 298.193 121.712 299.84 120.878C301.487 120.044 302.211 117.778 301.353 116.148C302.663 117.426 305.105 117.242 306.189 115.768C307.272 114.294 306.692 111.896 305.044 111.098C306.144 111.205 307.296 111.305 308.318 110.885C309.34 110.465 310.164 109.344 309.855 108.286C309.665 107.635 309.109 107.163 308.549 106.778C306.79 105.568 304.707 104.831 302.576 104.664C303.213 104.056 303.97 103.602 304.729 103.148C305.38 102.757 306.031 102.367 306.608 101.878C307.856 100.821 308.701 98.9092 307.762 97.5707C307.087 96.6069 305.715 96.3441 304.573 96.6363C303.43 96.9284 302.46 97.6618 301.525 98.3781L302.825 93.8657C303.13 92.808 303.397 91.5493 302.69 90.7044C301.697 89.5188 299.674 90.2215 298.691 91.4152C298.298 91.8919 297.979 92.4294 297.662 92.9653C297.184 93.7712 296.708 94.5735 295.987 95.1593C295.945 93.8822 295.888 92.5508 295.271 91.4311C294.654 90.3113 293.289 89.4891 292.081 89.917C291.199 90.2296 290.644 91.0925 290.246 91.938C289.002 94.5858 288.662 97.6458 289.294 100.501C287.72 99.2584 285.613 98.5741 283.663 99.0478C281.713 99.5215 280.059 101.323 280.109 103.324C280.16 105.324 282.232 107.13 284.172 106.618C282.781 107.032 281.339 107.474 280.264 108.446C279.188 109.418 278.597 111.085 279.3 112.352C280.219 114.009 282.589 114.034 284.444 113.628C286.795 113.113 289.071 112.257 291.178 111.097L287.755 116.988C285.195 121.393 281.873 128.387 280.926 136.603C278.044 136.307 275.109 136.463 272.432 137.523C269.096 138.843 266.242 141.788 265.798 145.352C265.477 147.937 264.547 150.333 263.39 152.663C262.946 131.581 260.73 110.536 256.761 89.8228C256.437 88.1281 256.032 86.3109 254.743 85.1578C253.393 83.9492 251.429 83.785 249.617 83.6838C195.998 80.688 142.241 80.1464 88.5729 82.0612C85.6054 82.1671 82.4928 82.251 79.8372 80.9276C77.96 79.9922 76.4787 82.7518 76.188 84.8227C71.8601 115.657 69.0278 146.699 67.7043 177.806C67.6599 178.85 68.2575 180.363 69.2043 179.913C70.7549 147.858 73.933 115.88 78.7222 84.1439L87.7645 96.8921C88.4098 97.8019 89.0846 98.8098 89.01 99.9214L84.5875 165.827C84.3173 169.854 84.0596 173.991 85.2833 177.838C88.1053 152.94 89.9563 127.933 90.8307 102.892C90.8925 101.122 93.204 100.521 94.9794 100.434C141.397 98.181 187.866 102.192 234.165 106.2C234.797 106.254 235.467 106.323 235.97 106.709ZM280.82 137.636C277.36 137.266 273.741 138.425 270.578 140.03C269.398 140.628 268.083 141.58 268.193 142.9C268.307 144.255 269.834 144.966 271.15 145.301C275.955 146.52 281.096 146.383 285.829 144.908C287.013 144.54 288.347 143.884 288.535 142.658C288.751 141.252 287.334 140.19 286.087 139.507C285.183 139.012 284.268 138.53 283.295 138.189C283.035 138.097 282.773 138.017 282.509 137.947C282.483 138.492 282.457 139.075 282.43 139.658C282.327 141.957 282.224 144.26 282.12 144.289C281.692 144.41 281.262 144.522 280.83 144.626C280.601 142.229 280.619 139.89 280.82 137.636ZM258.022 166.262C258.695 164.065 259.709 161.999 260.828 159.977C260.78 167.896 260.544 175.817 260.22 183.71C260.146 185.525 260.648 187.998 262.471 188.013C263.266 177.173 263.587 166.299 263.438 155.432C265.059 152.582 266.531 149.685 267.179 146.489C274.057 148.686 281.727 148.294 288.346 145.408C289 148.737 290.317 151.934 292.196 154.756C293.142 156.175 294.228 157.503 295.313 158.828C297.031 160.927 298.744 163.021 299.888 165.467C301.592 169.112 301.887 173.239 302.029 177.261C302.624 194.025 301.027 210.866 297.291 227.218C296.963 228.652 296.323 230.366 294.867 230.562C286.29 231.719 277.578 231.87 268.967 231.011C268.084 230.923 267.139 230.798 266.48 230.203C265.875 229.656 265.635 228.824 265.422 228.037C260.715 210.652 255.968 192.927 256.757 174.933C256.885 172.006 257.165 169.062 258.022 166.262ZM183.975 82.958L252.627 86.3007C248.346 91.7541 243.871 97.0558 239.212 102.192C237.467 104.117 234.482 104.097 231.885 103.926C223.943 103.402 215.997 102.83 208.049 102.257C169.617 99.4876 131.132 96.7143 92.7435 99.4539C91.85 99.5177 91.2033 98.6527 90.7403 97.8888L81.9063 83.3116C109.478 84.4061 137.102 84.1968 164.654 82.6844C171.089 82.3312 177.539 82.6446 183.975 82.958ZM162.149 111.349C163.288 110.869 164.473 110.376 165.709 110.42C166.716 110.455 167.673 110.845 168.605 111.226C185.023 117.947 201.775 123.858 218.779 128.93C221.348 129.697 222.057 132.924 222.321 135.583L227.54 187.971C228.662 187.849 228.863 186.321 228.754 185.203L223.523 131.253C224.372 131.125 225.198 131.484 225.994 131.83C226.087 131.87 226.179 131.91 226.27 131.949C227.151 132.324 228.195 132.615 229.037 132.159C229.879 131.703 230.021 130.187 229.102 129.917C208.609 123.899 188.326 117.176 168.299 109.765C167.452 109.451 166.582 109.132 165.679 109.137C164.826 109.141 164.004 109.434 163.202 109.724L100.518 132.334C100.236 133.511 102.106 133.948 103.213 133.449C103.382 133.373 103.554 133.29 103.73 133.205L103.73 133.205L103.73 133.205L103.73 133.205C104.706 132.732 105.762 132.221 106.615 132.797C105.221 146.629 104.051 160.483 103.106 174.353C103.017 175.663 103.417 177.496 104.731 177.398L108.039 133.955C108.133 132.716 108.428 131.209 109.614 130.828C127.402 125.107 144.936 118.606 162.149 111.349ZM200.982 242.172C201.884 242.157 203.017 241.972 203.254 241.105C202.87 240.377 201.882 240.279 201.057 240.274L163.912 240.053C160.559 240.033 157.144 240.022 153.941 241.01C154.162 241.76 155.139 241.921 155.923 241.942C170.939 242.347 185.963 242.423 200.982 242.172ZM162.222 247.914C159.28 247.879 156.294 247.838 153.47 247.016C169.066 246.482 184.677 246.43 200.276 246.859C201.602 246.895 203.029 246.97 204.073 247.786C203.861 248.323 203.143 248.403 202.564 248.396L162.222 247.914ZM200.208 226.285C186.173 226.826 172.101 226.384 158.128 224.966C157.176 224.869 155.883 225.012 155.742 225.955C170.903 227.767 186.206 228.405 201.467 227.863C201.673 227.109 200.992 226.255 200.208 226.285ZM189.224 172.926C189.871 173.49 189.999 174.428 190.086 175.279L193.209 206.112C196.058 206.015 198.924 206.416 201.636 207.291L193.462 208.732C195.385 211.67 196.876 214.888 197.873 218.252C185.761 218.146 173.653 217.688 161.569 216.879C160.865 216.831 160.07 216.736 159.648 216.173C159.132 215.483 159.463 214.509 159.811 213.721L162.133 208.456C162.503 207.617 161.19 207.034 160.288 207.206C160.201 207.223 160.112 207.241 160.021 207.259C159.171 207.43 158.192 207.628 157.708 206.955C156.957 205.912 158.669 204.756 159.95 204.897C160.197 204.924 160.452 204.964 160.711 205.005C161.796 205.175 162.93 205.354 163.641 204.596C164.078 194.024 165.063 183.475 166.588 173.004C166.649 172.588 166.733 172.131 167.064 171.869C167.363 171.632 167.779 171.626 168.162 171.631C174.477 171.712 180.791 171.941 187.096 172.316C187.847 172.361 188.658 172.431 189.224 172.926ZM186.93 173.894C181.168 173.374 175.393 172.997 169.612 172.765C169.116 172.745 168.571 172.741 168.184 173.052C167.769 173.386 167.676 173.969 167.614 174.497C166.452 184.29 165.716 194.132 165.409 203.988C165.397 204.355 165.407 204.772 165.68 205.017C165.89 205.205 166.193 205.234 166.474 205.254C174.302 205.8 182.145 206.131 189.991 206.248C190.348 206.253 190.748 206.242 191.001 205.99C191.275 205.717 191.263 205.277 191.232 204.892L188.857 175.618C188.827 175.244 188.789 174.85 188.572 174.544C188.221 174.048 187.536 173.949 186.93 173.894ZM192.664 210.105C192.465 209.75 192.245 209.384 191.896 209.172C191.554 208.966 191.136 208.937 190.737 208.914L166.685 207.527C165.943 207.484 165.138 207.458 164.528 207.88C164.035 208.222 163.765 208.793 163.516 209.337L161.376 214.026C161.25 214.302 161.126 214.635 161.286 214.894C161.445 215.15 161.796 215.19 162.098 215.204L195.566 216.692C194.816 214.41 193.843 212.2 192.664 210.105ZM152.332 133.328C152.758 134.892 153.643 136.311 154.755 137.494C158.379 141.347 164.586 142.489 169.365 140.205C174.144 137.922 177.134 132.409 176.462 127.171C175.79 121.934 171.526 117.357 166.34 116.269C163.339 115.64 160.133 116.692 157.772 118.642C155.411 120.592 153.83 123.354 152.865 126.254C152.106 128.531 151.702 131.012 152.332 133.328ZM173.754 127.921C171.202 128.144 168.635 128.196 166.076 128.075C165.861 128.065 165.632 128.049 165.462 127.918C165.205 127.72 165.183 127.348 165.183 127.025L165.192 120.384C165.193 119.953 165.208 119.482 165.489 119.155C166.044 118.511 167.101 118.905 167.796 119.396C170.689 121.439 172.835 124.509 173.754 127.921ZM156.653 128.537C156.461 128.552 156.257 128.566 156.085 128.479C155.637 128.252 155.736 127.592 155.922 127.126C157.379 123.482 160.114 120.36 163.542 118.43L163.566 127.32C163.566 127.515 163.558 127.732 163.42 127.87C163.296 127.993 163.106 128.014 162.932 128.028L156.653 128.537ZM155.844 132.792C155.398 132.078 155.144 130.93 155.907 130.57C156.159 130.451 156.452 130.471 156.73 130.493L162.376 130.938C162.916 130.98 163.535 131.069 163.821 131.527C163.972 131.77 163.993 132.068 164.009 132.354L164.291 137.1C164.307 137.378 164.31 137.694 164.111 137.889C163.886 138.11 163.521 138.069 163.214 138C160.196 137.327 157.479 135.407 155.844 132.792ZM165.531 137.155L165.347 132.355C165.334 132.012 165.34 131.621 165.597 131.393C165.828 131.188 166.172 131.195 166.48 131.214L173.248 131.63C171.77 134.03 169.671 136.047 167.21 137.431C166.613 137.767 165.557 137.837 165.531 137.155ZM125.33 122.723C124.137 121.972 124.196 120.25 124.397 118.859L125.209 113.249C125.35 112.272 125.922 110.989 126.877 111.251C127.694 111.475 127.743 112.599 127.616 113.434L126.601 120.151C126.453 121.133 126.21 122.255 125.33 122.723ZM99.2745 207.857C99.4007 207.305 99.6359 206.723 100.133 206.448C100.893 206.025 101.901 206.573 102.279 207.355C102.657 208.137 102.584 209.051 102.502 209.915C102.437 210.599 102.361 211.315 101.977 211.886C101.594 212.457 100.796 212.814 100.193 212.481C99.8034 212.266 99.5942 211.832 99.4527 211.411C99.0693 210.273 99.007 209.028 99.2745 207.857ZM115.725 103.076C114.336 103.785 114.242 105.693 114.339 107.244C114.396 108.158 114.559 109.239 115.385 109.64C115.704 109.795 116.069 109.814 116.424 109.829C120.161 109.992 123.904 110.044 127.644 109.985C128.165 109.977 128.718 109.957 129.153 109.672C129.855 109.213 129.993 108.262 130.064 107.428C130.139 106.551 130.211 105.645 129.933 104.809C129.655 103.973 128.933 103.218 128.049 103.186L117.743 102.807C117.057 102.782 116.336 102.764 115.725 103.076ZM116.646 108.433C116.363 108.269 116.286 107.905 116.236 107.583C116.075 106.544 116.054 105.215 116.998 104.746C117.372 104.56 117.81 104.571 118.227 104.586L124.869 104.823C125.759 104.855 126.698 104.901 127.448 105.379C128.199 105.857 128.646 106.928 128.145 107.662C127.694 108.323 126.764 108.399 125.962 108.41L117.225 108.53C117.027 108.533 116.817 108.533 116.646 108.433ZM70.1257 205.332C71.5854 207.755 70.4934 210.836 69.4783 213.475C67.6753 218.161 66.2189 223.513 68.3229 228.073C68.8 229.107 69.4039 230.455 68.5788 231.241C65.8666 228.699 65.2207 224.584 65.7708 220.915C66.1439 218.426 66.9791 216.046 67.8149 213.664C68.2113 212.535 68.6079 211.405 68.9553 210.263C69.267 209.238 69.5408 208.146 69.2777 207.108C68.9376 205.767 67.757 204.786 66.4971 204.203C64.1939 203.137 61.1975 203.228 59.3797 204.994C57.5619 206.761 57.6852 210.309 59.9346 211.483C60.9133 211.994 62.2374 211.952 63.0119 211.167C63.7864 210.382 63.6776 208.838 62.6841 208.356C64.0129 208.034 65.3584 209.153 65.7343 210.463C66.1102 211.773 65.7593 213.175 65.3076 214.461C64.9219 215.56 64.4608 216.639 63.9999 217.717C62.9957 220.068 61.9933 222.414 61.7783 224.94C61.4992 228.218 62.5778 231.42 63.6345 234.557L63.6353 234.559C63.7439 234.881 63.8523 235.203 63.959 235.524C64.2124 236.287 64.4184 237.235 63.8509 237.805C60.6921 234.365 59.824 229.309 60.4755 224.692C61.1271 220.075 63.1149 215.766 65.0795 211.534C64.5496 211.578 64.0903 211.86 63.6301 212.142L63.6298 212.142C63.438 212.259 63.2461 212.377 63.0488 212.477C60.6695 213.69 57.4502 212.019 56.7283 209.455C56.0063 206.891 57.543 204.016 59.9193 202.797C62.2956 201.578 65.2651 201.863 67.621 203.121C68.6164 203.652 69.5445 204.367 70.1257 205.332ZM119.717 111.219C119.528 110.69 119.038 110.224 118.474 110.246C117.49 110.284 117.153 111.555 117.094 112.534L116.508 122.224C116.472 122.829 116.455 123.499 116.845 123.965C117.234 124.431 118.181 124.392 118.293 123.796C118.971 120.187 119.478 116.546 119.811 112.889C119.862 112.329 119.906 111.749 119.717 111.219ZM79.8492 239.489C78.3687 239.685 77.3975 241.357 77.6255 242.827C77.8534 244.298 79.0078 245.491 80.3345 246.175C80.6815 246.354 80.5249 246.947 80.1584 247.081C79.792 247.216 79.3871 247.042 79.0539 246.839C77.6102 245.959 76.5813 244.432 76.3106 242.767C76.1405 241.722 76.2919 240.561 77.0033 239.774C77.7148 238.986 79.0791 238.759 79.8492 239.489ZM117.294 216.96C116.84 218.401 116.387 219.843 116.053 221.315C114.458 228.327 115.623 235.668 117.402 242.635C117.864 244.446 115.842 246.227 113.991 245.927C112.14 245.627 110.821 243.787 110.64 241.928C110.62 241.723 110.61 241.515 110.601 241.307V241.306C110.574 240.714 110.547 240.12 110.278 239.6C109.914 238.896 108.841 238.49 108.328 239.094C109.459 241.182 110.296 244.358 108.177 245.441C106.149 246.479 103.989 244.083 103.469 241.871C103.144 240.49 102.091 238.554 100.922 239.365C101.368 240.144 101.711 240.985 102.053 241.824C102.621 243.216 103.186 244.601 104.211 245.682C105.853 247.416 109.483 247.506 110.062 245.193C111.31 246.217 112.751 247.094 114.354 247.304C115.957 247.514 117.74 246.929 118.599 245.565C119.672 243.863 119.041 241.678 118.479 239.73L118.424 239.539C116.695 233.529 116.507 227.086 117.884 220.986C118.18 219.671 118.548 218.37 118.916 217.07L118.916 217.07C119.552 214.825 120.186 212.582 120.452 210.27C120.949 205.939 120.097 201.464 118.042 197.616C117.481 196.565 115.809 196.757 114.956 197.592C114.412 198.125 114.07 198.809 113.728 199.496C113.534 199.884 113.34 200.274 113.108 200.637C112.467 201.642 111.236 202.508 110.134 202.046C108.296 201.276 106.275 201.423 104.255 201.57H104.255H104.254H104.254H104.254H104.254H104.254H104.254H104.254H104.253H104.253H104.253H104.253H104.253H104.253H104.253H104.252C103.487 201.626 102.722 201.682 101.966 201.688C99.2162 201.709 95.9417 200.52 95.4614 197.822C95.2539 196.657 93.5857 196.285 92.5835 196.921C91.5814 197.557 91.1301 198.767 90.8139 199.908C89.3418 205.221 89.4033 210.946 90.9893 216.227C91.4944 217.908 89.2261 218.946 87.5108 219.348C75.6218 222.134 65.7432 232.111 63.1086 243.992C62.9377 244.763 63.3174 245.984 64.0275 245.634C66.4627 233.147 77.1857 222.694 89.7697 220.54C91.3535 220.269 92.3541 218.589 92.4767 216.992C92.5731 215.737 92.2696 214.502 91.9673 213.271C91.8851 212.937 91.8031 212.603 91.7291 212.269C90.6992 207.616 91.2697 202.627 93.3235 198.323C95.3486 199.358 96.7877 201.454 97.0215 203.71C101.465 202.79 106.106 202.834 110.531 203.838C112.096 204.193 112.993 202.737 113.927 201.221C114.784 199.829 115.673 198.386 117.138 198.243C118.997 202.391 119.565 207.103 118.747 211.572C118.411 213.403 117.853 215.181 117.294 216.96ZM111.502 219.438L109.114 218.31C108.459 218.001 107.784 217.676 107.317 217.125C109.737 217.007 112.191 217.829 114.05 219.378C113.533 220.15 112.343 219.836 111.502 219.438ZM95.6244 246.85C95.4954 245.034 95.2745 243.224 94.9627 241.429C94.8383 240.713 94.6709 239.947 94.1312 239.458C93.5915 238.969 92.5577 238.982 92.2704 239.65C93.5577 240.233 93.978 241.846 94.0248 243.254C94.0334 243.512 94.0354 243.773 94.0375 244.035C94.0467 245.204 94.0561 246.392 94.6421 247.383C94.7576 247.578 94.9296 247.781 95.1572 247.779C95.5493 247.776 95.6521 247.24 95.6244 246.85ZM102.712 214.473C101.295 215.393 99.6129 215.902 97.9221 215.92C97.3764 215.926 96.7386 215.828 96.4745 215.352C98.342 214.289 100.622 213.968 102.712 214.473ZM108.634 208.644C108.434 209.515 108.531 210.45 108.906 211.261C109.182 211.858 109.853 212.45 110.431 212.133C110.683 211.995 110.824 211.722 110.935 211.459C111.308 210.57 111.492 209.603 111.471 208.639C111.46 208.103 111.351 207.508 110.918 207.189C110.054 206.553 108.873 207.601 108.634 208.644ZM211.659 141.608C212.251 142.136 212.336 143.013 212.38 143.804L213.373 161.537C213.441 162.74 213.128 164.384 211.919 164.409L185.423 164.948C185.005 164.957 184.55 164.954 184.22 164.698C183.819 164.388 183.745 163.823 183.703 163.319L182.195 145.301C182.102 144.183 182.304 142.671 183.421 142.527C192.107 141.411 200.875 140.926 209.631 141.079C210.346 141.092 211.126 141.133 211.659 141.608ZM198.743 145.56C198.805 145.122 198.848 144.617 198.545 144.294C198.255 143.987 197.776 143.979 197.352 143.994L185.51 144.406C185.261 144.414 184.988 144.433 184.809 144.605C184.584 144.821 184.604 145.179 184.64 145.488L185.313 151.246C185.429 152.234 185.984 153.547 186.948 153.287C190.211 152.409 193.627 152.101 196.994 152.382C197.59 152.432 197.87 151.674 197.954 151.084L198.743 145.56ZM197.461 160.721L197.752 155.75C197.773 155.397 197.779 155 197.534 154.743C197.318 154.517 196.976 154.475 196.664 154.452C193.274 154.192 189.849 154.39 186.513 155.04C186.308 155.08 186.093 155.127 185.939 155.267C185.681 155.501 185.686 155.899 185.709 156.246L186.061 161.364C186.097 161.893 186.186 162.508 186.65 162.767C186.95 162.933 187.317 162.893 187.657 162.848L196.693 161.653C196.864 161.63 197.044 161.604 197.181 161.5C197.409 161.327 197.444 161.006 197.461 160.721ZM200.135 144.982L199.763 151.011C199.746 151.279 199.739 151.576 199.914 151.78C200.132 152.033 200.521 152.022 200.853 151.991L209.44 151.179C209.671 151.158 209.919 151.128 210.089 150.971C210.289 150.787 210.318 150.488 210.334 150.217L210.673 144.433C210.686 144.21 210.691 143.96 210.542 143.792C210.371 143.599 210.073 143.598 209.814 143.612L201.105 144.084C200.818 144.1 200.496 144.132 200.311 144.352C200.168 144.522 200.148 144.76 200.135 144.982ZM210.203 160.716C210.682 160.255 210.676 159.502 210.637 158.84L210.415 155.073C210.377 154.439 210.121 153.599 209.485 153.646L200.846 154.29C200.522 154.314 200.157 154.359 199.962 154.618C199.815 154.812 199.808 155.075 199.806 155.318L199.783 160.293C199.781 160.592 199.792 160.924 199.999 161.141C200.198 161.351 200.516 161.385 200.805 161.404C203.483 161.578 206.176 161.508 208.841 161.195C209.328 161.138 209.851 161.056 210.203 160.716ZM106.029 213.181C105.289 212.809 104.295 213.053 103.813 213.725C103.262 214.493 103.496 215.701 104.294 216.21C105.092 216.719 106.292 216.425 106.762 215.605C107.231 214.785 106.875 213.606 106.029 213.181ZM115.238 214.676C115.679 215.044 114.956 215.644 114.386 215.723C112.252 216.016 110.049 215.804 108.012 215.108C108.771 214.309 110.026 214.308 111.129 214.364L114.767 214.548C114.933 214.557 115.111 214.57 115.238 214.676ZM101.064 216.392L97.6725 218.26C97.2274 218.505 96.7102 218.993 96.9852 219.42C97.241 219.816 97.8535 219.622 98.2634 219.387L102.494 216.957C102.583 216.62 102.356 216.233 102.018 216.146C101.691 216.061 101.359 216.229 101.064 216.392ZM138.181 187.471C138.508 187.083 138.863 186.677 139.35 186.531C139.836 186.386 140.477 186.64 140.538 187.143C139.204 189.043 137.546 190.718 135.658 192.075C135.836 190.307 137.034 188.831 138.181 187.471ZM140.327 191.232L143.141 188.178C143.45 187.842 143.778 187.357 143.531 186.973C143.181 186.428 142.346 186.907 141.923 187.397L138.615 191.216C138.489 191.597 138.955 191.959 139.353 191.9C139.75 191.84 140.055 191.528 140.327 191.232ZM115.979 142.685C116.496 142.153 117.292 142.026 118.029 141.935C126.959 140.83 136.002 140.635 144.972 141.354C145.53 141.399 146.184 141.51 146.431 142.01C146.557 142.265 146.541 142.564 146.522 142.847L145.08 164.492C145.025 165.313 144.879 166.281 144.14 166.65C143.785 166.828 143.369 166.819 142.971 166.806L117.396 165.943C116.896 165.926 116.347 165.89 115.988 165.543C115.637 165.206 115.575 164.677 115.536 164.193C115.013 157.765 114.939 151.3 115.312 144.861C115.357 144.087 115.438 143.242 115.979 142.685ZM130.073 143.187C126.253 143.131 122.432 143.198 118.616 143.386C118.021 143.415 117.339 143.494 117.003 143.984C116.778 144.313 116.776 144.74 116.782 145.138L117.038 161.082C117.057 162.275 117.417 163.845 118.612 163.908L130.204 164.519C130.413 164.53 130.64 164.536 130.81 164.414C131.037 164.251 131.068 163.933 131.079 163.655L131.413 155.389C131.425 155.07 131.417 154.701 131.167 154.5C130.998 154.364 130.764 154.349 130.547 154.34C126.383 154.173 122.202 154.445 118.095 155.15C117.625 155.23 117.364 154.519 117.639 154.131C117.914 153.742 118.434 153.633 118.905 153.558C122.771 152.943 126.685 152.628 130.6 152.617C131.259 152.615 131.465 151.735 131.464 151.078L131.455 145.657C131.453 144.605 131.128 143.202 130.073 143.187ZM142.438 154.321L134.854 154.305C134.345 154.304 133.765 154.334 133.44 154.724C133.21 155.001 133.175 155.385 133.151 155.744L132.66 162.958C132.615 163.618 132.641 164.419 133.214 164.752C133.467 164.898 133.772 164.913 134.064 164.924L141.521 165.203C141.752 165.211 142.002 165.215 142.191 165.081C142.436 164.907 142.486 164.57 142.515 164.272L143.395 155.237C143.415 155.031 143.432 154.809 143.324 154.633C143.153 154.354 142.766 154.322 142.438 154.321ZM143.224 152.135C143.658 151.857 143.785 151.294 143.872 150.787C144.198 148.867 144.46 146.936 144.657 144.998C144.691 144.659 144.705 144.268 144.457 144.034C144.269 143.856 143.987 143.829 143.729 143.812L134.583 143.185C134.253 143.162 133.872 143.159 133.653 143.407C133.478 143.605 133.473 143.896 133.477 144.16L133.585 151.554C133.587 151.733 133.594 151.923 133.696 152.07C133.862 152.308 134.201 152.331 134.492 152.331L142.187 152.333C142.544 152.333 142.923 152.326 143.224 152.135ZM168.616 210.755C167.792 210.776 166.876 210.84 166.31 211.436C166.574 211.964 167.282 212.046 167.874 212.059L188.945 212.52C189.387 212.53 189.538 211.85 189.243 211.522C188.949 211.194 188.461 211.144 188.02 211.116C181.562 210.713 175.085 210.592 168.616 210.755ZM157.732 185.709C155.494 209.913 153.033 234.097 150.348 258.256C150.276 258.904 150.018 259.731 149.365 259.739C112.555 260.198 75.7357 259.829 38.9432 258.63C38.5533 258.617 38.1278 258.591 37.8389 258.329C37.4638 257.99 37.4753 257.41 37.5157 256.907L43.545 181.699C43.9797 181.175 44.751 181.12 45.4328 181.105C81.6935 180.313 117.982 179.522 154.222 180.978C155.075 181.012 155.982 181.066 156.672 181.566C157.885 182.445 157.87 184.22 157.732 185.709ZM139.479 195.15C112.309 192.369 84.9211 191.703 57.6472 193.16C57.297 193.179 56.9163 193.21 56.658 193.446C56.3841 193.697 56.3309 194.101 56.2945 194.469L51.2241 245.83C51.1879 246.197 51.1622 246.605 51.3878 246.898C51.6574 247.248 52.1636 247.285 52.6065 247.293L131.784 248.656C132.273 248.664 132.821 248.65 133.166 248.304C133.453 248.017 133.513 247.582 133.559 247.18L139.479 195.15ZM141.345 194.968C140.984 195.641 140.892 196.419 140.805 197.177L135.262 245.887C135.189 246.529 135.121 247.206 135.383 247.797C135.677 248.459 136.326 248.882 136.941 249.267L148.393 256.44C151.398 232.469 154.404 208.476 155.797 184.358L143.383 193.011C142.602 193.555 141.793 194.131 141.345 194.968ZM142.946 191.407L153.135 183.806C132.501 182.045 111.785 182.344 91.0622 182.644H91.0618C76.3444 182.856 61.6232 183.069 46.9246 182.544L53.1047 189.276C54.0843 190.343 55.2723 191.499 56.721 191.409C84.0862 189.695 111.595 190.262 138.866 193.102C140.368 193.258 141.737 192.309 142.946 191.407ZM136.24 250.831C134.954 250.411 133.577 250.379 132.223 250.351L52.8322 248.707C51.4933 248.679 50.1104 248.659 48.8709 249.164C47.8471 249.582 46.9988 250.327 46.1718 251.059L39.0613 257.352C56.8222 256.569 74.6041 257.033 92.3856 257.497H92.3857H92.3859H92.386C110.622 257.973 128.857 258.448 147.069 257.58L139.469 252.569C138.446 251.894 137.407 251.212 136.24 250.831ZM52.9323 198.677C53.3763 193.043 50.3149 187.28 45.3894 184.478C43.1434 208 41.1082 231.542 39.2842 255.101L46.987 249.05C48.0014 248.254 49.1002 247.307 49.2013 246.024L52.9323 198.677ZM174.341 185.132C173.545 184.237 172.301 183.758 171.107 183.886C169.754 184.031 168.516 184.963 168.006 186.22C167.496 187.478 167.738 189.006 168.61 190.046C169.891 191.574 172.464 191.785 173.978 190.486C175.493 189.187 175.667 186.622 174.341 185.132ZM170.372 185.642C170.866 185.363 171.465 185.273 172.02 185.392C173.437 185.696 174.28 187.514 173.593 188.786C172.906 190.057 170.919 190.358 169.884 189.348C168.848 188.338 169.11 186.352 170.372 185.642ZM292.937 103.784C291.307 102.366 290.434 100.2 290.354 98.0455C290.273 95.891 290.933 93.7536 291.971 91.8622C292.25 91.3544 293.031 91.3343 293.495 91.6827C293.959 92.031 294.175 92.6115 294.339 93.1666C295.349 96.5721 295.295 100.283 294.187 103.658C294.147 103.778 294.104 103.901 294.016 103.991C293.734 104.282 293.243 104.049 292.937 103.784ZM290.146 106.17C288.055 106.25 285.951 106 283.937 105.431C282.82 105.115 281.582 104.546 281.297 103.424C281.051 102.453 281.686 101.415 282.573 100.943C283.459 100.472 284.525 100.468 285.515 100.64C287.855 101.047 290.013 102.407 291.386 104.34C291.586 104.62 291.777 104.946 291.728 105.286C291.635 105.936 290.805 106.145 290.146 106.17ZM290.464 108.112L290.631 110.507L284.781 112.262C283.658 112.598 282.411 112.928 281.35 112.431C280.289 111.933 279.852 110.197 280.878 109.63C283.584 108.134 286.71 107.402 289.801 107.541C290.013 107.551 290.254 107.581 290.374 107.755C290.445 107.857 290.456 107.988 290.464 108.112ZM302.248 115.335C299.685 114.14 297.935 111.742 296.298 109.441C296.223 109.336 296.144 109.217 296.158 109.088C296.191 108.781 296.635 108.769 296.935 108.849C299.853 109.621 302.947 110.498 304.951 112.75C305.378 113.229 305.762 113.833 305.665 114.465C305.561 115.14 304.908 115.634 304.231 115.736C303.554 115.839 302.868 115.625 302.248 115.335ZM300.213 118.506C300.157 119.146 299.757 119.795 299.134 119.957C298.753 120.056 298.347 119.964 297.984 119.811C296.129 119.032 295.286 116.898 294.866 114.936C294.518 113.309 294.328 111.649 294.299 109.987C296.709 111.634 298.637 113.973 299.792 116.648C300.047 117.237 300.268 117.867 300.213 118.506ZM300.63 91.6515C301.132 91.5233 301.774 91.927 301.667 92.4327C300.791 96.5837 299.443 101.129 295.789 103.303C296.059 99.5121 297.349 95.7982 299.489 92.6532C299.78 92.2256 300.127 91.7797 300.63 91.6515ZM307.643 109.61C307.019 109.603 306.397 109.551 305.778 109.482C302.713 109.142 299.694 108.388 296.83 107.248C300.368 105.064 305.364 105.596 308.359 108.477C308.511 108.623 308.667 108.795 308.674 109.005C308.69 109.452 308.091 109.616 307.643 109.61ZM289.938 119.626C289.922 117.084 290.973 114.552 292.786 112.764C292.73 112.557 293.197 112.682 293.044 112.834C293.85 115.1 294.026 117.585 293.546 119.942C293.328 121.014 292.688 122.276 291.592 122.228C290.453 122.178 289.946 120.763 289.938 119.626ZM290.627 129.984L282.356 134.286C282.143 133.397 282.274 132.429 282.716 131.628C283.658 129.925 285.72 129.24 287.594 128.7C288.637 128.399 289.703 128.096 290.788 128.139C291.032 128.149 291.293 128.184 291.471 128.351C291.999 128.845 291.27 129.649 290.627 129.984ZM304.329 98.5072C304.922 98.2353 305.751 98.0488 306.121 98.5852C306.479 99.1053 306.044 99.7958 305.598 100.243C303.657 102.189 301.17 103.488 298.688 104.673C298.005 104.999 296.921 105.153 296.732 104.422C298.76 101.901 301.384 99.8581 304.329 98.5072ZM293.721 108.723C293.005 108.956 292.05 108.619 291.916 107.879C291.831 107.409 292.094 106.945 292.41 106.585C293.06 105.847 293.983 105.353 294.959 105.222C295.198 105.19 295.454 105.181 295.666 105.296C296.347 105.666 295.922 106.701 295.431 107.299C294.954 107.881 294.437 108.49 293.721 108.723Z" fill="#00160A"/>
<path fill-rule="evenodd" clip-rule="evenodd" d="M288.346 145.408C281.727 148.294 274.057 148.686 267.179 146.489C265.731 153.636 260.159 159.29 258.023 166.262C257.165 169.062 256.885 172.006 256.757 174.933C255.968 192.927 260.715 210.652 265.422 228.037C265.635 228.824 265.876 229.656 266.48 230.203C267.139 230.798 268.084 230.923 268.967 231.011C277.579 231.87 286.291 231.719 294.868 230.562C296.324 230.366 296.963 228.652 297.291 227.218C301.027 210.866 302.624 194.025 302.03 177.261C301.887 173.239 301.592 169.112 299.888 165.467C298.022 161.476 294.639 158.422 292.197 154.756C290.317 151.934 289 148.737 288.346 145.408Z" fill="white"/>
<path fill-rule="evenodd" clip-rule="evenodd" d="M276.207 144.436C276.646 145.16 276.729 146.52 275.884 146.436C273.106 141.147 269.757 136.154 265.914 131.573C266.007 132.272 266.099 132.971 266.191 133.67C266.378 135.089 266.563 136.549 266.213 137.937C265.863 139.325 264.847 140.644 263.437 140.919C262.026 141.194 260.392 140.018 260.564 138.597C260.569 140.152 258.937 141.469 257.397 141.215C255.856 140.961 254.744 139.276 255.044 137.75C255.181 137.052 254.221 136.6 253.538 136.807C252.856 137.015 252.34 137.574 251.693 137.874C249.698 138.797 247.338 136.71 247.224 134.522C247.111 132.334 248.945 128.092 250.433 126.479C248.345 126.142 246.664 124.133 246.708 122.027C246.752 119.92 248.516 117.983 250.617 117.734C249.019 115.671 247.387 112.773 248.942 110.678C250.077 109.147 252.474 109.045 254.136 109.985C255.798 110.924 256.868 112.623 257.753 114.311C257.73 112.936 257.712 111.527 258.168 110.229C258.624 108.931 259.659 107.746 261.019 107.507C262.379 107.268 263.941 108.306 263.911 109.681C263.889 110.746 263.313 112.325 264.367 112.507C264.937 111.068 266.927 110.525 268.297 111.254C269.667 111.982 270.345 113.67 270.159 115.205C269.973 116.741 269.052 118.111 267.9 119.149C269.595 119.257 271.659 119.631 272.204 121.233C272.733 122.789 271.345 124.377 269.844 125.058C268.343 125.74 266.617 125.944 265.263 126.882C267.404 128.235 269.595 131.481 271.457 134.828C273.853 139.134 275.705 143.608 276.207 144.436Z" fill="white"/>
<path fill-rule="evenodd" clip-rule="evenodd" d="M264.805 126.882C266.868 128.513 268.738 130.385 270.365 132.447C270.806 130.764 271.324 128.96 272.693 127.88C274.062 126.801 276.548 127.029 277.072 128.688C277.265 129.3 277.156 129.962 277.012 130.587C276.412 133.197 275.209 135.669 273.524 137.756C274.417 139.227 275.31 140.698 276.203 142.169C276.642 142.893 276.724 144.253 275.879 144.169C273.101 138.88 269.753 133.887 265.91 129.306C266.002 130.005 266.095 130.704 266.187 131.403C266.374 132.822 266.559 134.282 266.209 135.67C265.858 137.058 264.843 138.377 263.432 138.652C262.022 138.928 260.387 137.751 260.56 136.33C260.565 137.885 258.933 139.202 257.392 138.948C255.852 138.694 254.739 137.009 255.039 135.483C255.176 134.785 254.217 134.333 253.534 134.54C252.851 134.748 252.336 135.307 251.688 135.607C249.693 136.53 247.333 134.443 247.22 132.255C247.107 130.067 248.487 128.092 249.976 126.478C247.887 126.142 246.206 124.133 246.25 122.026C246.294 119.92 248.058 117.983 250.159 117.733C248.561 115.67 246.929 112.773 248.484 110.678C249.62 109.147 252.016 109.045 253.678 109.985C255.34 110.924 256.41 112.623 257.295 114.31C257.272 112.935 257.254 111.527 257.71 110.229C258.166 108.931 259.202 107.745 260.562 107.507C261.922 107.268 263.483 108.306 263.454 109.681C263.431 110.746 262.855 112.325 263.909 112.507C264.479 111.068 266.469 110.525 267.839 111.253C269.209 111.982 269.887 113.669 269.702 115.205C269.516 116.74 268.594 118.111 267.442 119.149C269.137 119.257 271.202 119.631 271.746 121.233C272.275 122.789 270.887 124.376 269.386 125.058C267.885 125.74 266.16 125.944 264.805 126.882ZM250.052 111.098C248.827 112.027 249.005 113.967 249.783 115.29C251.147 117.61 253.741 118.876 256.205 119.973C256.737 120.21 257.538 120.347 257.748 119.805C257.845 119.555 257.745 119.276 257.645 119.027C256.917 117.211 256.186 115.39 255.241 113.676C254.711 112.714 254.084 111.757 253.156 111.165C252.228 110.572 250.929 110.433 250.052 111.098ZM247.641 121.58C247.323 123.284 248.993 124.84 250.718 125.074C252.442 125.308 254.142 124.612 255.743 123.93C256.166 123.751 256.623 123.538 256.82 123.125C257.219 122.285 256.297 121.445 255.497 120.965C254.165 120.165 252.764 119.343 251.211 119.25C249.658 119.157 247.925 120.057 247.641 121.58ZM268.187 114.387C268.257 114.044 268.304 113.676 268.169 113.352C267.935 112.787 267.232 112.562 266.62 112.603C264.76 112.727 263.51 114.536 262.766 116.238C262.104 117.75 261.607 119.334 261.286 120.952C264.629 120.428 267.508 117.689 268.187 114.387ZM261.959 127.179C260.926 127.343 260.813 128.768 260.969 129.798C261.123 130.82 261.277 131.843 261.431 132.865C261.681 134.518 262.124 136.437 263.659 137.114C265.258 134.46 265.24 130.921 263.615 128.284C263.246 127.684 262.656 127.069 261.959 127.179ZM257.233 136.906C257.353 137.058 257.494 137.212 257.684 137.256C258.152 137.364 258.456 136.782 258.563 136.315C259.288 133.151 259.261 129.87 259.23 126.624C259.208 126.384 258.826 126.522 258.679 126.715C257.558 128.188 256.59 129.824 256.207 131.633C255.823 133.442 256.089 135.45 257.233 136.906ZM263.366 121.653C263.127 121.776 262.884 121.906 262.704 122.106C262.108 122.767 262.525 123.918 263.307 124.344C264.09 124.77 265.053 124.66 265.918 124.442C267.196 124.121 268.421 123.59 269.528 122.877C269.955 122.602 270.416 122.165 270.277 121.678C270.217 121.467 270.051 121.304 269.878 121.168C268.065 119.749 265.413 120.595 263.366 121.653ZM259.49 119.846C260.906 116.747 261.619 113.332 261.561 109.928C261.558 109.728 261.548 109.517 261.438 109.35C261.051 108.766 260.154 109.357 259.803 109.962C258.082 112.936 257.961 116.77 259.49 119.846M256.959 126.928C257.308 126.785 257.161 126.194 256.804 126.07C256.447 125.947 256.063 126.123 255.727 126.295C253.653 127.357 251.49 128.545 250.312 130.55C249.913 131.229 249.685 132.194 250.264 132.729C250.792 133.217 251.666 133.015 252.256 132.604C254.308 131.175 254.643 127.877 256.959 126.928ZM275.005 128.554C274.692 128.228 274.15 128.533 273.827 128.85C272.768 129.892 271.83 131.14 271.541 132.594C271.253 134.049 271.759 135.733 273.039 136.491C274.536 134.357 275.3 131.723 275.178 129.122C275.168 128.92 275.146 128.7 275.005 128.554ZM258.238 122.632C258.682 123.974 259.605 125.152 260.803 125.908C261.182 126.147 261.55 125.564 261.576 125.118C261.658 123.722 261.1 122.302 260.088 121.334C259.687 120.95 259.092 120.622 258.597 120.874C258.013 121.171 258.033 122.012 258.238 122.632Z" fill="#FFB61D"/>
<path fill-rule="evenodd" clip-rule="evenodd" d="M207.337 188.538C205.403 188.59 203.441 188.655 201.59 189.219C206.06 211.33 206.518 234.024 208.851 256.459C208.896 256.888 208.956 257.35 209.252 257.664C209.588 258.021 210.126 258.082 210.616 258.12C242.356 260.609 274.273 260.864 306.049 258.882C306.452 258.857 306.888 258.818 307.185 258.545C307.542 258.216 307.568 257.671 307.565 257.186C307.512 248.683 306.297 240.234 305.085 231.817C303.206 218.766 301.327 205.714 299.448 192.663C299.376 192.166 299.275 191.617 298.871 191.317C298.571 191.093 298.172 191.064 297.797 191.043C267.669 189.391 237.5 187.738 207.337 188.538Z" fill="white"/>
<ellipse cx="282.653" cy="227.573" rx="0.906693" ry="0.906662" fill="#FFB61D"/>
<circle cx="276.08" cy="227.573" r="0.906662" fill="#FFB61D"/>
<ellipse cx="258.853" cy="236.867" rx="0.680008" ry="0.68" fill="#FFB61D"/>
<ellipse cx="253.187" cy="236.867" rx="0.680008" ry="0.68" fill="#FFB61D"/>
<ellipse cx="235.733" cy="227.573" rx="1.36" ry="1.35998" fill="#FFB61D"/>
<circle cx="225.76" cy="228.027" r="1.36" fill="#FFB61D"/>
<path fill-rule="evenodd" clip-rule="evenodd" d="M307.326 261.132C274.834 263.064 242.196 262.579 209.776 259.682C208.887 259.603 207.91 259.48 207.307 258.824C206.752 258.219 206.674 257.332 206.623 256.514C205.219 233.969 203.067 211.471 200.172 189.068C199.988 187.641 201.868 186.963 203.305 186.819C223.091 184.843 242.969 185.791 262.863 186.739C275.582 187.346 288.308 187.953 301.02 187.796C301.856 187.786 302.149 188.883 302.189 189.715C302.692 200.213 304.435 210.607 306.178 220.995L306.178 220.995C308.21 233.106 310.241 245.21 310.302 257.464C310.308 258.64 310.198 260.009 309.222 260.671C308.677 261.041 307.984 261.093 307.326 261.132ZM207.337 188.538C205.403 188.59 203.441 188.655 201.59 189.219C204.637 204.291 205.82 219.633 207.004 234.98C207.556 242.148 208.109 249.317 208.852 256.459C208.896 256.888 208.956 257.35 209.252 257.664C209.589 258.021 210.126 258.082 210.616 258.12C242.357 260.609 274.273 260.864 306.049 258.882C306.452 258.857 306.889 258.818 307.185 258.545C307.543 258.216 307.568 257.671 307.565 257.186C307.512 248.683 306.297 240.234 305.086 231.817L299.448 192.663C299.377 192.166 299.275 191.617 298.871 191.317C298.571 191.093 298.172 191.064 297.797 191.043C267.669 189.391 237.501 187.738 207.337 188.538ZM227.421 220.508C228.202 220.471 228.541 221.467 228.635 222.241C228.797 223.571 228.698 225.328 227.41 225.713C226.294 224.676 225.87 222.961 226.377 221.526C226.549 221.039 226.904 220.531 227.421 220.508ZM276.594 225.515C275.211 225.397 276.234 220.686 277.011 221.252C277.789 221.818 277.976 225.633 276.594 225.515ZM282.912 224.878C281.244 224.878 281.813 220.545 282.912 220.545C283.499 220.545 283.978 224.878 282.912 224.878ZM233.812 224.933C234.103 224.353 234.284 223.719 234.343 223.074C234.39 222.569 234.353 222.027 234.064 221.609C233.775 221.191 233.171 220.96 232.733 221.218C232.46 221.379 232.307 221.684 232.211 221.985C231.9 222.954 232.036 224.056 232.573 224.921C232.748 225.203 233.046 225.489 233.365 225.399C233.579 225.34 233.712 225.131 233.812 224.933ZM256.768 234.102C256.885 233.189 257.244 231.954 258.086 232.333C258.428 232.486 258.601 232.87 258.689 233.233C258.873 234.002 258.722 234.956 258.027 235.336C257.332 235.716 256.651 235.014 256.768 234.102ZM228.965 228.161C228.245 228.815 227.166 229.581 226.432 228.943C226.544 228.348 226.879 227.798 227.357 227.425C226.733 226.906 225.657 227.222 225.314 227.956C224.971 228.69 225.324 229.634 226.008 230.072C226.692 230.51 227.613 230.479 228.338 230.114C228.526 230.019 228.722 229.905 228.92 229.788L228.92 229.788L228.92 229.788C229.687 229.339 230.498 228.862 231.096 229.412C232.449 230.655 234.916 230.326 235.893 228.772C236.165 228.341 236.325 227.779 236.092 227.325C235.86 226.871 235.109 226.72 234.842 227.155C234.775 227.265 234.747 227.392 234.72 227.52C234.711 227.562 234.702 227.604 234.691 227.646C234.517 228.332 233.878 228.874 233.17 228.936C232.463 228.998 231.738 228.576 231.446 227.931C231.045 227.046 229.685 227.507 228.965 228.161ZM254.194 232.478C254.334 233.479 254.091 234.528 253.524 235.365C253.418 235.522 253.278 235.684 253.089 235.697C252.89 235.71 252.724 235.551 252.606 235.391C251.941 234.49 251.966 233.145 252.665 232.269C252.99 231.862 253.657 231.573 254.002 231.964C254.125 232.104 254.168 232.295 254.194 232.478ZM216.088 248.491C216.144 250.808 218.922 251.936 221.212 252.342C227.627 253.479 234.18 253.52 240.695 253.557C260.247 253.671 279.821 253.783 299.329 252.457C300.014 252.411 300.783 252.32 301.21 251.784C301.609 251.282 301.56 250.572 301.491 249.935C299.547 232.078 296.967 214.29 293.758 196.616C293.567 195.562 292.213 195.268 291.14 195.209C265.062 193.776 238.928 193.809 212.81 193.842C212.073 193.843 211.293 193.855 210.666 194.241C209.242 195.117 209.454 197.207 209.829 198.832C213.582 215.12 215.683 231.785 216.088 248.491ZM273.545 233.039C270.84 235.046 268.792 237.917 267.779 241.121C264.691 239.696 263.293 235.484 264.919 232.506C266.99 228.713 267.717 223.519 264.698 220.421C262.752 218.423 259.661 217.842 256.923 218.401C251.503 219.509 247.4 225.084 247.972 230.568C248.063 231.446 248.258 232.31 248.453 233.173C248.656 234.068 248.858 234.963 248.945 235.875C249.115 237.667 248.735 239.669 247.327 240.797C245.265 237.244 241.917 234.45 238.044 233.052C240.596 226.93 243.113 219.759 239.891 213.959C238.786 211.97 237.093 210.367 235.281 208.987C232.903 207.174 230.071 205.637 227.084 205.844C222.048 206.192 218.566 211.538 218.465 216.566C218.363 221.595 220.725 226.307 223.029 230.783L217.482 237.673C216.565 223.551 214.531 209.502 211.406 195.697C237.355 195.792 263.303 196.209 289.242 196.948C289.816 196.965 290.448 197.004 290.861 197.401C291.218 197.744 291.318 198.266 291.401 198.752L299.343 245.624C295.851 239.809 291.381 234.58 286.174 230.221C284.882 234.39 283.741 238.605 282.755 242.856L278.816 236.705C281.95 234.835 284.022 231.638 285.808 228.463C287.9 224.742 289.795 220.746 289.951 216.484C290.107 212.222 288.131 207.632 284.251 205.832C286.476 204.339 286.557 200.663 284.556 198.881C282.555 197.1 279.141 197.418 277.298 199.36C275.454 201.303 275.234 204.481 276.539 206.817C272.348 208.619 269.393 212.974 269.276 217.521C269.168 221.726 271.254 225.646 273.36 229.292C274.048 230.484 274.652 232.218 273.545 233.039ZM262.816 236.7L269.736 250.927C270.33 249.707 269.744 248.412 269.156 247.109C268.915 246.576 268.673 246.041 268.512 245.51C267.326 241.608 270.572 237.877 273.544 235.074C274.015 234.63 274.596 234.152 275.231 234.279C275.747 234.383 276.094 234.852 276.389 235.286C278.533 238.435 280.712 241.66 281.702 245.335C281.708 245.354 281.713 245.373 281.718 245.392C281.859 245.919 282.011 246.483 282.441 246.816C282.886 247.161 283.723 247.001 283.774 246.442C284.228 241.478 285.316 236.572 287.003 231.879L298.256 246.257C299.043 247.263 299.875 248.522 299.427 249.716C298.897 251.126 297.031 251.369 295.519 251.379L246.529 251.721C238.313 251.778 230.068 251.834 221.916 250.807C221.062 250.699 220.161 250.559 219.502 250.008C218.911 249.515 218.607 248.765 218.384 248.03C217.308 244.487 217.667 240.533 219.362 237.239C220.155 235.698 221.339 234.222 223.001 233.716C224.664 233.21 226.806 234.09 227.123 235.793C227.585 238.273 229.713 240.468 232.24 240.629C234.767 240.79 237.302 238.553 237.104 236.038C237.025 235.036 238.628 235.048 239.488 235.572C244.129 238.398 246.518 244.445 245.056 249.665C244.814 250.527 246.313 250.938 246.91 250.269C247.469 249.643 247.428 248.72 247.391 247.871C247.388 247.813 247.386 247.756 247.383 247.699C247.25 244.441 248.305 241.148 250.31 238.57C251.024 239.049 251.559 239.765 252.088 240.473C252.797 241.42 253.495 242.353 254.597 242.687C256.309 243.206 258.055 241.96 259.182 240.575C259.455 240.239 259.715 239.887 259.976 239.535C260.794 238.433 261.614 237.327 262.816 236.7ZM227.133 213.253C225.615 216.361 223.417 219.137 220.736 221.332C220.231 219.047 220.106 216.68 220.369 214.356C220.571 212.573 221.044 210.731 222.267 209.414C223.845 207.714 226.43 207.221 228.708 207.686C230.985 208.15 233.006 209.436 234.842 210.858C236.387 212.054 237.873 213.401 238.797 215.119C240.877 218.991 239.679 223.725 238.437 227.939C237.675 230.525 236.658 233.413 234.19 234.516C232.05 235.471 229.501 234.705 227.54 233.425C224.289 231.305 222.003 227.771 221.408 223.945C221.311 223.318 221.309 222.559 221.827 222.189C224.283 220.439 226.309 218.095 227.682 215.416C230.001 218.595 233.981 220.496 237.921 220.307C238.765 220.267 239.89 219.668 239.523 218.909C234.783 219.402 229.853 217.152 227.133 213.253ZM277.125 233.124C275.391 230.569 273.896 227.853 272.665 225.023C272.359 224.318 272.14 223.34 272.781 222.912C275.887 220.84 278.24 217.673 279.321 214.108L281.576 216.917C282.306 217.826 283.052 218.75 284.022 219.397C284.993 220.044 286.243 220.382 287.348 220.005C287.758 219.865 287.866 220.558 287.715 220.962C286 225.564 283.53 229.885 280.434 233.703C280.163 234.038 279.864 234.385 279.454 234.519C278.526 234.822 277.672 233.93 277.125 233.124ZM280.696 207.345C281.801 207.233 282.952 207.279 283.968 207.728C284.861 208.122 285.598 208.808 286.204 209.572C288.018 211.86 288.732 214.976 288.095 217.822C288.042 218.057 287.974 218.303 287.799 218.47C287.521 218.737 287.077 218.71 286.699 218.63C284.502 218.167 282.702 216.504 281.612 214.548C281.558 214.451 281.505 214.352 281.452 214.253C281.131 213.659 280.804 213.053 280.245 212.688C279.592 212.262 278.502 212.405 278.29 213.153C277.281 216.718 274.956 219.898 271.859 221.947C271.169 221.223 270.851 220.219 270.71 219.231C270.303 216.374 271.254 213.378 273.144 211.192C275.034 209.006 277.815 207.637 280.696 207.345ZM259.349 220.14C261.948 220.467 264.337 222.495 264.749 225.072C264.94 226.263 264.728 227.478 264.516 228.666C264.417 229.221 264.294 229.821 263.87 230.196C263.35 230.657 262.561 230.618 261.879 230.477C259.939 230.077 258.133 229.055 256.795 227.6C256.714 227.512 256.634 227.422 256.554 227.332C256.199 226.932 255.842 226.529 255.372 226.282C254.796 225.979 253.977 226.001 253.601 226.531C252.546 228.019 251.146 229.262 249.54 230.135C249.731 227.532 250.613 224.925 252.353 222.974C254.092 221.023 256.751 219.812 259.349 220.14ZM254.241 228.331C254.573 227.7 255.508 228.276 255.975 228.815C257.815 230.935 260.651 232.16 263.463 232.047C262.004 234.964 260.002 237.611 257.588 239.811C257.01 240.338 256.317 240.871 255.536 240.806C254.853 240.75 254.299 240.249 253.834 239.748C252.391 238.196 251.24 236.376 250.458 234.409C250.148 233.631 249.985 232.56 250.699 232.12C252.19 231.202 253.427 229.878 254.241 228.331ZM280.854 205.91C279.164 206.197 277.285 204.785 277.404 203.082C277.486 201.89 278.423 200.916 279.461 200.319C280.215 199.884 281.082 199.585 281.949 199.675C282.815 199.766 283.668 200.312 283.937 201.138C284.059 201.512 284.057 201.917 284.008 202.308C283.796 204.002 282.543 205.622 280.854 205.91ZM229.392 235.85C231.521 236.717 234.07 236.473 235.995 235.218C236.112 235.736 235.82 236.248 235.539 236.699C234.64 238.145 233.225 239.804 231.59 239.316C230.731 239.06 230.211 238.305 229.686 237.541C229.222 236.866 228.753 236.185 228.043 235.837C228.355 235.47 228.944 235.668 229.392 235.85Z" fill="#00160A"/>
</svg>
