<svg width="350" height="420" viewBox="0 0 350 420" fill="none" xmlns="http://www.w3.org/2000/svg">
<rect y="350" width="350" height="70" fill="#FFB822"/>
<path d="M102.481 372.728V398H96.3253V372.728H102.481ZM130.551 398H124.395L114.099 382.412V398H107.943V372.728H114.099L124.395 388.388V372.728H130.551V398ZM145.481 372.728C148.145 372.728 150.473 373.256 152.465 374.312C154.457 375.368 155.993 376.856 157.073 378.776C158.177 380.672 158.729 382.868 158.729 385.364C158.729 387.836 158.177 390.032 157.073 391.952C155.993 393.872 154.445 395.36 152.429 396.416C150.437 397.472 148.121 398 145.481 398H136.013V372.728H145.481ZM145.085 392.672C147.413 392.672 149.225 392.036 150.521 390.764C151.817 389.492 152.465 387.692 152.465 385.364C152.465 383.036 151.817 381.224 150.521 379.928C149.225 378.632 147.413 377.984 145.085 377.984H142.169V392.672H145.085ZM169.325 372.728V398H163.169V372.728H169.325ZM198.51 372.728L189.546 398H181.842L172.878 372.728H179.43L185.694 391.808L191.994 372.728H198.51ZM208.239 372.728V398H202.083V372.728H208.239ZM223.168 372.728C225.832 372.728 228.16 373.256 230.152 374.312C232.144 375.368 233.68 376.856 234.76 378.776C235.864 380.672 236.416 382.868 236.416 385.364C236.416 387.836 235.864 390.032 234.76 391.952C233.68 393.872 232.132 395.36 230.116 396.416C228.124 397.472 225.808 398 223.168 398H213.7V372.728H223.168ZM222.772 392.672C225.1 392.672 226.912 392.036 228.208 390.764C229.504 389.492 230.152 387.692 230.152 385.364C230.152 383.036 229.504 381.224 228.208 379.928C226.912 378.632 225.1 377.984 222.772 377.984H219.856V392.672H222.772ZM246.905 372.728V387.848C246.905 389.36 247.277 390.524 248.021 391.34C248.765 392.156 249.857 392.564 251.297 392.564C252.737 392.564 253.841 392.156 254.609 391.34C255.377 390.524 255.761 389.36 255.761 387.848V372.728H261.917V387.812C261.917 390.068 261.437 391.976 260.477 393.536C259.517 395.096 258.221 396.272 256.589 397.064C254.981 397.856 253.181 398.252 251.189 398.252C249.197 398.252 247.409 397.868 245.825 397.1C244.265 396.308 243.029 395.132 242.117 393.572C241.205 391.988 240.749 390.068 240.749 387.812V372.728H246.905Z" fill="black"/>
<rect width="350" height="350" fill="white"/>
<path fill-rule="evenodd" clip-rule="evenodd" d="M166.416 261.476C123.245 252.027 65.7241 233.277 75.1764 168.941C84.6287 104.606 125.148 79.8 175.277 79.8C225.404 79.8 282.357 117.619 271.176 195.965C259.996 274.311 209.587 270.924 166.416 261.476ZM308.317 183.924C310.099 166.022 308.205 148.309 303.118 131.705L317.634 123.929C320.081 122.618 321.001 119.574 319.693 117.127L299.874 80.1258C298.562 77.6796 295.517 76.759 293.07 78.0692L278.553 85.8454C267.548 72.4123 253.852 61.0213 237.965 52.5856L242.727 36.8288C243.532 34.1727 242.03 31.3688 239.373 30.5658L199.194 18.4163C196.536 17.6133 193.734 19.1153 192.93 21.7715L188.168 37.5283C170.263 35.7461 157.219 42.3068 140.615 47.3918L132.838 32.8746C131.528 30.4284 128.483 29.5078 126.037 30.818L89.0357 50.6384C86.5896 51.9486 85.669 54.9935 86.9791 57.4392L94.7553 71.9568C81.3222 82.9616 65.2646 91.9905 56.8289 107.88L41.0718 103.116C38.416 102.313 35.6117 103.815 34.8087 106.471L22.6597 146.65C21.8567 149.306 23.3587 152.11 26.0145 152.913L41.7716 157.678C39.9894 175.579 41.8834 193.292 46.9684 209.896L32.4513 217.673C30.0051 218.983 29.0845 222.028 30.3947 224.474L50.2151 261.476C51.5252 263.921 54.5701 264.842 57.0158 263.532L71.5334 255.756C82.5382 269.189 96.2337 280.58 112.123 289.016L107.359 304.772C106.556 307.428 108.058 310.233 110.714 311.036L150.894 323.183C153.547 323.988 156.353 322.486 157.158 319.828L161.92 304.073C179.82 305.855 197.535 303.961 214.14 298.876L221.914 313.393C223.226 315.839 226.271 316.758 228.718 315.45L265.72 295.629C268.163 294.319 269.087 291.274 267.775 288.828L259.996 274.311C273.432 263.306 284.821 249.61 293.26 233.721L309.014 238.485C311.672 239.288 314.478 237.787 315.278 235.13L327.426 194.951C328.231 192.295 326.729 189.491 324.072 188.688L308.317 183.924Z" fill="#64FCD9"/>
<path fill-rule="evenodd" clip-rule="evenodd" d="M230.576 93.5903L229.177 93.543L229.137 94.7862C229.071 97.023 229.101 99.4158 229.135 102.025C229.158 103.843 229.183 105.766 229.177 107.814L228.944 111.859C228.951 115.628 228.977 120.873 229.024 127.594L229.176 146.73C228.148 147.071 227.375 147.959 227.22 149.039C226.372 149.168 225.72 149.888 225.72 150.755C225.72 151.369 226.047 151.909 226.538 152.218L225.94 153.665C225.674 154.307 225.235 154.857 224.671 155.254C222.198 156.993 220.743 159.811 220.777 162.79C220.778 162.869 220.78 162.948 220.783 163.027C220.794 163.313 221.039 163.533 221.331 163.525C221.622 163.514 221.85 163.274 221.839 162.989C221.836 162.919 221.835 162.849 221.834 162.778C221.803 160.136 223.561 157.637 225.754 156.095C226.481 155.583 227.045 154.878 227.386 154.053L227.565 152.492H228.317C228.317 152.492 228.578 153.897 228.578 154.996C228.578 156.094 228.317 158.269 228.317 158.269H227.451C226.459 158.269 225.652 159.059 225.652 160.031C225.652 161.003 226.459 161.793 227.451 161.793H227.575C228.566 161.793 228.907 161.285 228.907 160.031C228.907 159.374 228.979 158.905 230.051 158.905C231.122 158.905 230.846 160.031 230.846 160.031C230.846 161.003 231.653 161.793 232.645 161.793H232.769C233.761 161.793 234.568 161.003 234.568 160.031C234.568 159.059 232.895 158.238 231.903 158.238C231.903 158.238 231.639 156.261 231.639 155.254C231.639 154.405 231.903 152.669 231.903 152.669H230.846C230.846 152.669 231.067 154.289 231.067 155.278C231.067 156.267 230.846 158.238 230.846 158.238C230.846 158.238 230.264 158.343 229.986 158.349C229.708 158.355 229.373 158.269 229.373 158.269C229.373 158.269 229.142 156.248 229.142 155.278C229.142 154.308 229.373 152.492 229.373 152.492H230.846H231.903H232.655L233.3 154.053C233.624 154.837 234.595 155.525 235.335 156.05L235.429 156.116C237.573 157.639 238.386 160.094 238.386 162.684C238.386 164.872 237.51 166.923 235.919 168.459C234.328 169.994 232.222 171.289 229.986 171.257C228.213 171.232 226.4 170.255 224.983 169.196C223.611 168.171 221.834 165.366 221.538 164.719C221.242 164.072 221.103 165.093 221.189 165.366C221.758 167.172 222.923 168.802 224.469 169.957C226.067 171.151 227.97 171.797 229.971 171.826C232.492 171.861 234.867 170.928 236.661 169.196C238.455 167.464 239.443 165.152 239.443 162.684C239.443 159.763 238 156.995 235.583 155.278C234.994 154.86 234.543 154.302 234.28 153.664L233.681 152.218C234.173 151.909 234.5 151.369 234.5 150.755C234.5 149.889 233.848 149.168 233 149.039C232.825 147.821 231.865 146.847 230.638 146.627H230.57L229.76 128.833C229.711 122.059 230.345 108.522 230.345 108.522C230.356 103.316 230.42 98.7512 230.537 94.8289L230.576 93.5903ZM232.645 160.758C232.236 160.758 231.903 160.432 231.903 160.031V158.905C231.903 158.905 233.511 159.227 233.511 160.031C233.511 160.769 233.231 160.765 232.868 160.759C232.836 160.758 232.803 160.758 232.769 160.758H232.645ZM226.305 160.031C226.373 161.043 228.472 161.484 228.317 160.031V158.905C228.317 158.905 226.236 159.019 226.305 160.031ZM228.297 149.018C228.492 148.214 229.23 147.614 230.11 147.614C230.989 147.614 231.728 148.214 231.922 149.018H228.297ZM232.727 150.053H232.501H227.72H227.494C227.099 150.053 226.778 150.368 226.778 150.755C226.778 151.142 227.099 151.457 227.494 151.457H232.727C233.122 151.457 233.443 151.142 233.443 150.755C233.443 150.368 233.122 150.053 232.727 150.053ZM241.781 154.56H242.705C242.966 154.56 243.177 154.351 243.177 154.093C243.177 153.836 242.966 153.627 242.705 153.627H241.781C241.521 153.627 241.31 153.836 241.31 154.093C241.31 154.351 241.521 154.56 241.781 154.56ZM241.048 157.864L241.936 158.238C242.187 158.343 242.309 158.642 242.208 158.905C242.108 159.168 241.823 159.295 241.572 159.19L240.684 158.816C240.433 158.71 240.311 158.412 240.412 158.149C240.489 157.948 240.672 157.827 240.866 157.827C240.926 157.827 240.988 157.839 241.048 157.864ZM240.255 150.253L241.087 149.585C241.322 149.397 241.381 149.024 241.218 148.752C241.118 148.584 240.956 148.493 240.793 148.493C240.691 148.493 240.589 148.528 240.499 148.6L239.666 149.268C239.431 149.456 239.373 149.83 239.535 150.102C239.698 150.374 240.02 150.442 240.255 150.253ZM217.972 154.56H217.048C216.788 154.56 216.577 154.351 216.577 154.093C216.577 153.836 216.788 153.627 217.048 153.627H217.972C218.232 153.627 218.443 153.836 218.443 154.093C218.443 154.351 218.232 154.56 217.972 154.56ZM218.706 157.864L217.817 158.238C217.566 158.343 217.445 158.642 217.545 158.905C217.646 159.168 217.93 159.295 218.181 159.19L219.07 158.816C219.32 158.71 219.442 158.412 219.341 158.149C219.265 157.948 219.081 157.827 218.888 157.827C218.827 157.827 218.765 157.839 218.706 157.864ZM219.499 150.253L218.666 149.585C218.431 149.397 218.373 149.024 218.535 148.752C218.636 148.584 218.797 148.493 218.961 148.493C219.062 148.493 219.165 148.528 219.254 148.6L220.087 149.268C220.322 149.456 220.381 149.83 220.218 150.102C220.056 150.374 219.734 150.442 219.499 150.253Z" fill="#FFB61D"/>
<path fill-rule="evenodd" clip-rule="evenodd" d="M140.788 159.546L138.13 157.783C137.96 157.67 137.736 157.758 137.675 157.961L136.748 161.039C136.671 161.296 136.902 161.536 137.141 161.448L140.726 160.133C140.97 160.043 141.008 159.692 140.788 159.546ZM140.466 160.055L137.199 161L138.172 158.2L140.466 160.055Z" fill="#FFB61D"/>
<path fill-rule="evenodd" clip-rule="evenodd" d="M139.622 181.713L136.963 179.95C136.794 179.837 136.57 179.924 136.509 180.127L135.582 183.206C135.504 183.462 135.735 183.703 135.974 183.615L139.559 182.299C139.804 182.21 139.841 181.858 139.622 181.713ZM139.3 182.222L136.033 183.167L137.005 180.367L139.3 182.222Z" fill="#FFB61D"/>
<path fill-rule="evenodd" clip-rule="evenodd" d="M138.224 194.166L138.422 190.983C138.434 190.779 138.246 190.629 138.04 190.678L134.911 191.414C134.65 191.475 134.557 191.795 134.753 191.959L137.684 194.406C137.884 194.573 138.207 194.429 138.224 194.166ZM137.622 194.142L135.17 191.785L138.081 191.228L137.622 194.142Z" fill="#FFB61D"/>
<path fill-rule="evenodd" clip-rule="evenodd" d="M143.262 191.818L140.078 191.62C139.875 191.607 139.725 191.795 139.773 192.001L140.51 195.131C140.571 195.391 140.891 195.484 141.054 195.289L143.501 192.357C143.668 192.157 143.525 191.834 143.262 191.818ZM143.238 192.419L140.882 194.871L140.324 191.96L143.238 192.419Z" fill="#FFB61D"/>
<path fill-rule="evenodd" clip-rule="evenodd" d="M140.805 208.047L137.949 209.468C137.766 209.558 137.73 209.796 137.875 209.95L140.078 212.292C140.261 212.487 140.585 212.408 140.628 212.157L141.282 208.394C141.326 208.138 141.041 207.93 140.805 208.047ZM141.085 208.58L140.27 211.882L138.331 209.64L141.085 208.58Z" fill="#FFB61D"/>
<path fill-rule="evenodd" clip-rule="evenodd" d="M142.205 199.18L139.349 200.601C139.166 200.692 139.13 200.929 139.275 201.084L141.478 203.426C141.661 203.621 141.985 203.541 142.028 203.29L142.682 199.528C142.726 199.271 142.44 199.063 142.205 199.18ZM142.485 199.714L141.67 203.015L139.731 200.773L142.485 199.714Z" fill="#FFB61D"/>
<path fill-rule="evenodd" clip-rule="evenodd" d="M136.216 104.923C141.535 105.225 145.417 106.972 147.593 110.051L147.838 110.407C148.915 111.96 149.819 112.938 150.215 115.878L150.253 116.19C150.479 118.124 150.546 120.164 150.429 120.841C150.367 121.127 150.244 121.227 150.089 121.197C149.737 121.128 148.827 119.51 147.358 116.344L146.125 117.787C145.454 118.562 144.031 119.292 143.188 119.842C142.345 120.391 136.216 104.923 136.216 104.923Z" fill="#E7EAEE"/>
<path fill-rule="evenodd" clip-rule="evenodd" d="M236.992 239.007L239.234 232.513C239.234 232.513 191.405 223.591 176.258 227.755C171.493 229.064 167.188 231.223 154.92 230.533C150.224 230.269 142.195 229.17 130.832 227.236C125.085 226.258 124.161 226.62 128.679 229.574C139.155 236.425 162.457 234.81 183.599 231.723C222.893 225.986 236.992 239.007 236.992 239.007Z" fill="#E7EAEE"/>
<path fill-rule="evenodd" clip-rule="evenodd" d="M182.682 311.974C182.869 311.924 183.061 312.034 183.111 312.221C183.162 312.407 183.052 312.6 182.865 312.65C181.947 312.899 181.342 313.479 181.13 314.213C180.855 315.163 180.825 316.134 181.137 317.688C181.175 317.877 181.052 318.062 180.862 318.1C180.673 318.138 180.488 318.015 180.45 317.826C180.117 316.164 180.15 315.079 180.457 314.018C180.739 313.046 181.531 312.286 182.682 311.974Z" fill="#E7EAEE"/>
<path fill-rule="evenodd" clip-rule="evenodd" d="M167.163 317.864L194.888 326.022C194.888 326.022 198.409 325.282 194.768 324.764C191.028 324.233 169.126 314.203 166.717 316.03C166.374 316.29 166.951 317.297 167.163 317.864Z" fill="#E7EAEE"/>
<path fill-rule="evenodd" clip-rule="evenodd" d="M170.493 306.671L179.238 302.8C179.004 275.732 177.026 257.71 173.305 248.732C173.305 248.732 177.108 296.524 170.493 306.671Z" fill="#E7EAEE"/>
<path fill-rule="evenodd" clip-rule="evenodd" d="M188.407 316.635C188.547 316.502 188.768 316.506 188.902 316.646C189.036 316.785 189.031 317.007 188.891 317.141C188.078 317.92 187.927 319.226 188.394 320.014C188.492 320.18 188.437 320.395 188.271 320.493C188.105 320.592 187.89 320.537 187.791 320.37C187.162 319.307 187.354 317.644 188.407 316.635Z" fill="#E7EAEE"/>
<path fill-rule="evenodd" clip-rule="evenodd" d="M185.548 314.327C185.689 314.195 185.91 314.202 186.042 314.343C186.175 314.484 186.168 314.705 186.027 314.838L185.838 315.02C184.366 316.468 183.944 317.734 185.24 319.093C185.373 319.233 185.368 319.454 185.228 319.588C185.088 319.721 184.867 319.716 184.733 319.576C183.776 318.572 183.579 317.487 184.003 316.402C184.296 315.653 184.805 315.025 185.548 314.327Z" fill="#E7EAEE"/>
<path fill-rule="evenodd" clip-rule="evenodd" d="M172.077 313.869C172.88 315.405 177.146 314.774 176.403 310.527C176.052 308.517 169.852 309.615 172.077 313.869Z" fill="#E7EAEE"/>
<path fill-rule="evenodd" clip-rule="evenodd" d="M254.534 245.84C260.171 239.399 263.411 224.913 268.052 219.928C269.691 218.168 271.816 217.774 269.529 221.939C265.343 229.561 257.299 245.84 257.299 245.84C256.873 246.054 256.347 245.84 255.871 245.84H254.534Z" fill="#E7EAEE"/>
<path fill-rule="evenodd" clip-rule="evenodd" d="M113.688 160.61L110.485 165.393C110.219 165.789 110.419 166.33 110.88 166.457L115.154 167.639C115.651 167.776 116.12 167.348 116.029 166.84L114.958 160.876C114.847 160.257 114.038 160.087 113.688 160.61ZM114.384 161.346L115.34 166.964L111.624 165.393L114.384 161.346Z" fill="#FFB61D"/>
<path fill-rule="evenodd" clip-rule="evenodd" d="M103.382 155.939L99.6077 161.998C99.3666 162.385 99.5539 162.896 99.9881 163.035L106.579 165.148C107.128 165.324 107.642 164.798 107.454 164.253L104.638 156.081C104.446 155.524 103.694 155.439 103.382 155.939ZM104.278 156.678L106.206 164.253L100.492 161.998L104.278 156.678Z" fill="#FFB61D"/>
<path fill-rule="evenodd" clip-rule="evenodd" d="M101.056 201.78L103.624 211.429C103.781 212.022 104.572 212.14 104.895 211.618L108.713 205.463C108.924 205.122 108.806 204.673 108.454 204.48L102.069 200.986C101.529 200.691 100.898 201.185 101.056 201.78ZM101.733 202.067L107.651 205.094L104.3 211.249L101.733 202.067Z" fill="#FFB61D"/>
<path fill-rule="evenodd" clip-rule="evenodd" d="M95.9145 237.212L97.3145 243.826C97.443 244.433 98.2389 244.585 98.5823 244.068L102.365 238.378C102.644 237.958 102.401 237.39 101.904 237.301L96.7222 236.377C96.2333 236.29 95.8117 236.726 95.9145 237.212ZM97.1361 237.107L101.627 238.699L97.752 243.124L97.1361 237.107Z" fill="#FFB61D"/>
<path fill-rule="evenodd" clip-rule="evenodd" d="M108.048 235.812L109.448 242.426C109.576 243.033 110.372 243.185 110.716 242.668L114.498 236.978C114.777 236.558 114.534 235.99 114.038 235.901L108.855 234.977C108.367 234.89 107.945 235.326 108.048 235.812ZM108.696 236.387L113.924 236.243L109.622 241.771L108.696 236.387Z" fill="#FFB61D"/>
<path fill-rule="evenodd" clip-rule="evenodd" d="M101.515 222.278L102.915 228.893C103.043 229.5 103.839 229.652 104.182 229.135L107.965 223.444C108.244 223.025 108.001 222.456 107.505 222.368L102.322 221.444C101.833 221.357 101.412 221.792 101.515 222.278ZM102.2 222.133L106.916 223.524L103.133 228.281L102.2 222.133Z" fill="#FFB61D"/>
<path fill-rule="evenodd" clip-rule="evenodd" d="M256.475 243.682C256.123 244.369 255.546 244.656 254.777 244.698C252.037 244.851 249.865 243.642 247.926 241.88C247.192 241.213 246.54 240.453 245.804 239.788C245.286 239.319 244.731 239.014 243.922 239.304C243.303 239.526 242.577 239.442 241.9 239.511C240.374 239.667 238.852 239.87 237.322 239.982C236.347 240.052 236.323 240.884 236.095 241.458C235.577 242.756 235.19 244.107 234.779 245.446C234.619 245.965 234.365 246.171 233.781 246.164C230.866 246.128 227.95 246.131 225.035 246.155C223.707 246.165 222.379 246.324 221.053 246.294C218.559 246.238 216.063 246.158 213.576 245.967C211.171 245.782 208.779 245.435 206.379 245.179C204.693 244.999 202.997 244.904 201.318 244.676C199.366 244.411 197.43 244.025 195.482 243.726C194.508 243.576 193.517 243.532 192.541 243.388C190.868 243.142 189.195 242.886 187.532 242.576C185.99 242.289 184.539 242.587 183.087 243.066C180.26 244 177.426 244.911 174.59 245.818C174.086 245.98 173.937 246.112 174.164 246.725C175 248.972 175.782 251.244 176.462 253.543C176.942 255.165 177.274 256.836 177.582 258.502C177.959 260.544 178.275 262.598 178.556 264.655C178.771 266.227 178.907 267.81 179.048 269.391C179.227 271.4 179.397 273.41 179.532 275.422C179.667 277.426 179.78 279.433 179.856 281.44C179.985 284.848 180.082 288.257 180.185 291.666C180.247 293.731 180.286 295.796 180.353 297.86C180.373 298.459 180.566 299.074 180.474 299.649C180.405 300.083 180.097 300.69 179.743 300.826C178.832 301.177 178.569 301.855 178.577 302.788C178.587 303.98 178.737 305.174 178.706 306.363C178.686 307.121 178.976 307.65 179.527 308.052C182.032 309.879 184.561 311.672 187.064 313.501C188.252 314.369 189.424 315.262 190.563 316.194C191.783 317.191 192.978 318.221 194.141 319.284C195.299 320.344 195.916 321.639 196.111 323.255C196.262 324.508 196.102 325.671 195.893 326.863C195.784 327.484 195.43 327.738 194.784 327.527C192.073 326.642 189.367 325.741 186.642 324.898C182.142 323.505 177.63 322.152 173.122 320.784C171.515 320.296 169.908 319.809 168.3 319.328C167.314 319.033 167.106 318.149 166.923 317.349C166.403 315.074 167.075 313.004 168.275 311.096C169.009 309.929 169.865 308.838 170.667 307.713C171.323 306.795 171.154 305.855 170.829 304.861C169.772 301.627 168.734 298.386 167.735 295.134C166.748 291.923 165.771 288.708 164.878 285.471C163.934 282.049 163.077 278.603 162.213 275.16C161.746 273.297 161.305 271.425 160.927 269.543C160.644 268.135 160.484 266.702 160.262 265.282C159.997 263.585 159.837 261.86 159.4 260.208C159.212 259.497 158.522 258.846 157.921 258.331C156.61 257.209 155.106 256.373 153.471 255.802C153.067 255.661 152.629 255.564 152.203 255.548C150.175 255.471 148.144 255.451 146.116 255.369C144.135 255.29 142.155 255.179 140.177 255.046C138.137 254.909 136.098 254.745 134.061 254.562C131.881 254.366 129.694 254.21 127.53 253.898C125.236 253.566 122.962 253.085 120.686 252.639C119.945 252.495 119.404 252.944 119.29 253.988C119.038 256.271 118.263 258.392 117.342 260.468C116.677 261.966 115.424 262.715 113.878 262.97C112.774 263.153 111.643 263.327 110.533 263.285C107.373 263.165 104.555 262.123 102.048 260.119C98.8689 257.577 97.0086 254.18 95.4248 250.559C94.7151 248.937 93.8014 247.388 93.2443 245.718C92.6393 243.904 92.3332 241.989 91.9118 240.115C91.5839 238.657 91.2494 237.198 90.9737 235.73C90.7556 234.568 90.6182 233.391 90.4525 232.22C90.2324 230.664 90.0153 229.108 89.806 227.55C89.7367 227.035 89.6683 226.517 89.6467 225.999C89.5789 224.376 89.5456 222.751 89.4767 221.128C89.3802 218.852 89.1999 216.578 89.1699 214.301C89.1184 210.407 89.1237 206.512 89.1704 202.617C89.1909 200.907 89.3355 199.196 89.4892 197.491C89.6638 195.553 89.9287 193.623 90.1217 191.687C90.2595 190.304 90.3027 188.912 90.4611 187.532C90.6936 185.508 90.9487 183.485 91.2724 181.474C91.6574 179.082 92.0977 176.698 92.5631 174.32C93.4438 169.82 94.4685 165.348 96.1461 161.072C97.2148 158.348 98.3301 155.57 100.512 153.513C101.456 152.623 102.768 152.11 103.942 151.479C107.162 149.745 110.4 148.042 113.621 146.31C113.772 146.23 113.901 145.994 113.926 145.815C114.011 145.194 113.973 144.548 114.126 143.948C114.225 143.557 114.5 143.128 114.824 142.891C115.91 142.099 117.049 141.376 118.182 140.649C118.385 140.519 118.673 140.405 118.895 140.441C120.09 140.634 120.69 139.899 121.099 138.994C121.654 137.769 122.16 136.516 122.59 135.242C123.303 133.132 124.022 131.017 124.561 128.86C124.747 128.116 124.461 127.228 124.293 126.427C123.951 124.796 123.667 123.134 123.117 121.571C122.765 120.571 122.053 119.665 121.372 118.821C119.612 116.64 118.688 114.197 118.984 111.399C119.112 110.184 119.634 109.051 120.543 108.168C121.612 107.129 122.709 106.118 123.782 105.082C124.565 104.327 124.508 103.75 123.49 103.012C122.064 101.979 120.697 100.863 119.333 99.7475C118.169 98.7951 117.668 97.4344 117.359 96.0395C116.939 94.1419 116.889 92.2274 117.663 90.3752C118.901 87.4129 120.685 84.9682 123.95 84.0464C126.828 83.2341 129.699 83.2891 132.282 84.9205C134.629 86.4029 136.119 88.6109 136.775 91.336C137.544 94.534 136.669 97.412 135.052 100.149C134.917 100.379 134.903 100.68 134.833 100.947C135.073 100.993 135.312 101.068 135.554 101.079C138.662 101.221 141.752 101.566 144.536 103.047C148.191 104.992 150.489 108.074 151.503 112.086C151.654 112.687 151.653 113.332 151.673 113.959C151.741 116.094 151.747 118.233 151.873 120.365C151.899 120.81 152.24 121.356 152.604 121.642C154.351 123.01 154.945 126.361 153.32 128.344C153.158 128.543 153.02 128.761 152.86 128.962C152.236 129.748 151.33 130.129 150.429 129.969C149.661 129.832 149.596 130.09 149.342 130.657C148.802 131.866 148.153 133.036 147.454 134.164C146.518 135.675 145.561 137.185 144.478 138.591C143.824 139.44 142.94 140.124 142.112 140.826C141.107 141.676 140.044 142.459 139.021 143.289C138.511 143.702 137.951 143.916 137.299 143.822C136.623 143.725 136.243 144.105 136.045 144.652C135.662 145.71 135.317 146.783 135.015 147.866C134.951 148.095 135.086 148.428 135.224 148.655C136.43 150.64 137.629 152.632 138.889 154.584C139.912 156.167 141.075 157.662 142.065 159.265C142.678 160.257 143.083 161.376 143.579 162.438C144.444 164.293 145.328 166.139 146.154 168.01C146.324 168.395 146.371 168.888 146.311 169.309C146.225 169.921 145.622 170.116 144.967 169.721C144.207 169.262 143.492 168.726 142.78 168.192C142.34 167.861 141.943 167.472 141.525 167.112C141.476 167.07 141.411 167.048 141.354 167.016C141.345 167.089 141.319 167.165 141.329 167.235C141.447 168.058 141.541 168.886 141.698 169.701C141.86 170.544 142.108 171.369 142.279 172.21C142.619 173.881 142.947 175.554 143.251 177.231C143.593 179.117 143.922 181.006 144.22 182.9C144.372 183.874 144.424 184.863 144.556 185.84C144.755 187.318 145.005 188.789 145.191 190.268C145.292 191.076 145.315 191.895 145.359 192.709C145.421 193.82 145.461 194.932 145.525 196.042C145.682 198.781 145.841 201.521 146.014 204.259C146.057 204.938 146.456 205.46 147.067 205.654C148.806 206.206 150.021 208.237 149.729 209.931C149.661 210.325 149.573 210.733 149.4 211.088C148.984 211.94 149.526 212.424 150.066 212.868C150.942 213.587 151.855 214.264 152.77 214.934C154.942 216.526 157.129 218.098 159.301 219.689C161.269 221.131 163.44 222.134 165.77 222.845C167.64 223.415 169.231 224.497 170.726 225.743C171.461 226.356 172.096 227.262 173.26 227.039C174.906 226.722 176.548 226.379 178.19 226.04C178.685 225.938 179.171 225.789 179.669 225.703C181.401 225.405 182.425 224.179 183.444 222.911C184.203 221.967 185.049 221.094 185.839 220.175C187.392 218.365 188.929 216.542 190.481 214.732C191.253 213.833 192.047 212.953 192.826 212.06C195.023 209.543 197.206 207.015 199.417 204.51C200.575 203.198 201.782 201.927 202.961 200.632C203.278 200.284 203.617 199.944 203.868 199.55C204.25 198.951 204.639 198.767 205.385 199.008C207.015 199.536 206.986 199.436 205.846 200.686C203.805 202.925 201.831 205.226 199.821 207.494C198.839 208.603 197.823 209.683 196.849 210.799C195.138 212.756 193.454 214.737 191.747 216.698C190.536 218.09 189.309 219.468 188.083 220.847C187.134 221.914 186.172 222.969 185.227 224.039C185.144 224.132 185.079 224.391 185.108 224.409C185.339 224.554 185.6 224.768 185.843 224.759C187.824 224.682 189.802 224.53 191.784 224.462C193.267 224.412 194.754 224.411 196.237 224.463C198.137 224.528 200.041 224.61 201.932 224.792C204.041 224.994 206.137 225.319 208.239 225.585C210.394 225.858 212.557 226.083 214.704 226.407C216.85 226.731 218.979 227.167 221.121 227.523C222.894 227.818 224.681 228.037 226.452 228.346C228.711 228.739 230.958 229.196 233.214 229.61C234.797 229.901 236.387 230.155 237.971 230.446C239.497 230.727 241.016 231.052 242.545 231.323C243.508 231.494 244.48 231.667 245.453 231.707C245.861 231.724 246.381 231.502 246.684 231.214C248.999 229.012 251.243 226.734 253.569 224.542C256.172 222.09 258.893 219.774 261.828 217.716C263.171 216.774 264.675 216.938 266.138 217.065C266.99 217.139 267.815 217.55 268.65 217.816C269.335 218.033 269.396 218.457 269.092 219.055C267.707 221.772 266.347 224.502 264.962 227.219C263.765 229.568 262.545 231.905 261.295 234.288C259.662 237.446 258.071 240.565 256.475 243.682ZM128.335 223.642C129.063 221.537 129.702 219.397 130.276 217.244C130.649 215.846 130.861 214.402 131.1 212.971C131.346 211.501 131.552 210.024 131.751 208.546C131.982 206.83 132.342 205.113 132.37 203.392C132.426 199.937 132.283 196.478 132.245 193.02C132.222 190.907 132.209 188.793 132.251 186.68C132.283 185.019 131.316 183.78 130.612 182.417C130.142 181.51 129.647 180.594 129.348 179.626C128.798 177.849 128.351 176.038 127.925 174.226C127.634 172.987 127.419 171.727 127.228 170.468C127.006 169.011 126.527 167.643 125.905 166.321C125.853 166.21 125.416 166.129 125.369 166.192C125.119 166.527 124.932 166.911 124.729 167.282C124.369 167.942 123.822 168.57 123.697 169.272C123.447 170.676 122.8 171.881 122.138 173.086C121.726 173.836 121.033 173.855 120.552 173.167C120.034 172.427 119.475 171.681 119.145 170.853C118.368 168.908 117.673 166.926 117.026 164.933C116.176 162.314 115.375 159.677 114.612 157.031C114.214 155.65 113.816 154.246 113.649 152.826C113.485 151.433 113.615 150.006 113.611 148.594C113.61 148.468 113.572 148.342 113.551 148.215C113.494 148.26 113.441 148.314 113.378 148.349C111.899 149.163 110.428 149.995 108.934 150.782C107.452 151.563 105.963 152.334 104.447 153.044C102.786 153.823 101.118 154.627 100.156 156.259C99.1147 158.024 97.898 159.707 97.2708 161.697C96.6242 163.748 95.8929 165.776 95.3301 167.85C94.7545 169.971 94.3626 172.142 93.8438 174.28C93.5124 175.645 92.9664 176.97 92.749 178.349C92.4173 180.453 92.2123 182.585 92.0934 184.713C91.9914 186.54 91.9992 188.371 91.7527 190.191C91.5613 191.603 91.4313 193.024 91.2589 194.439C90.9964 196.595 90.5248 198.745 90.491 200.903C90.4164 205.68 90.6131 210.461 90.5908 215.24C90.5792 217.745 90.9527 220.193 91.2477 222.662C91.5752 225.403 91.7692 228.159 92.0817 230.902C92.2942 232.766 92.5066 234.641 92.9042 236.471C93.5515 239.45 94.2469 242.426 95.1112 245.348C96.1895 248.993 97.7728 252.427 100.002 255.541C101.395 257.488 103.096 259.082 105.195 260.228C108.041 261.781 111.094 261.647 114.152 261.173C114.653 261.095 115.302 260.709 115.517 260.282C116.119 259.085 116.645 257.822 116.987 256.528C117.474 254.69 117.69 252.781 118.167 250.94C118.955 247.905 119.946 244.921 120.688 241.875C121.3 239.367 122.465 237.103 123.477 234.771C124.222 233.055 125.103 231.398 126.005 229.633C126.788 227.638 127.636 225.665 128.335 223.642ZM155.201 254.627C156.673 255.527 158.117 256.482 159.518 257.489C160.393 258.119 161.022 259.033 161.214 260.09C161.658 262.539 161.952 265.014 162.382 267.465C162.683 269.185 163.116 270.882 163.474 272.593C163.766 273.986 164.035 275.383 164.312 276.779C164.584 278.15 164.849 279.523 165.124 280.894C165.333 281.939 165.55 282.983 165.771 284.025C166.128 285.711 166.413 287.417 166.875 289.074C167.33 290.706 168.014 292.273 168.513 293.895C169.344 296.593 170.375 299.205 171.57 301.763C171.853 302.369 172.329 302.247 172.611 302.137C174.398 301.437 176.161 300.673 177.912 299.887C178.465 299.639 178.759 299.158 178.733 298.501C178.664 296.717 178.616 294.932 178.567 293.146C178.509 291.011 178.459 288.875 178.404 286.739C178.351 284.648 178.339 282.555 178.23 280.467C178.124 278.427 177.924 276.391 177.755 274.355C177.545 271.818 177.349 269.279 177.1 266.746C176.928 264.997 176.771 263.237 176.44 261.514C175.867 258.531 175.163 255.573 174.517 252.603C173.764 249.143 172.31 246.128 169.434 243.863C167.244 242.138 164.946 240.598 162.462 239.368C159.714 238.006 156.936 236.681 154.083 235.562C150.822 234.283 147.655 232.667 144.064 232.373C142.339 232.231 140.628 231.929 138.906 231.746C137.525 231.599 136.132 231.557 134.751 231.406C132.565 231.167 130.388 230.849 128.2 230.634C127.894 230.604 127.432 230.892 127.243 231.17C126.811 231.808 126.486 232.521 126.148 233.219C125.094 235.399 123.859 237.516 123.057 239.786C121.997 242.785 121.278 245.905 120.418 248.975C119.931 250.714 119.921 250.792 121.437 251.109C123.191 251.477 124.974 251.721 126.751 251.966C127.914 252.126 129.092 252.17 130.259 252.304C132.47 252.558 134.675 252.862 136.888 253.101C138.296 253.253 139.711 253.344 141.125 253.428C143.238 253.554 145.353 253.671 147.468 253.748C148.735 253.794 150.005 253.757 151.435 253.757C152.764 253.732 154.061 253.93 155.201 254.627ZM218.682 244.526C220.045 244.59 221.408 244.657 222.771 244.686C225.933 244.753 229.095 244.807 232.258 244.845C232.889 244.853 233.458 244.591 233.628 243.941C234.544 240.444 236.346 237.2 236.577 233.5C236.636 232.561 236.229 231.899 235.271 231.731C234.271 231.556 233.285 231.311 232.288 231.121C231.034 230.882 229.775 230.672 228.52 230.441C227.393 230.234 226.267 230.019 225.142 229.802C224.319 229.642 223.498 229.467 222.674 229.311C221.096 229.013 219.518 228.721 217.938 228.432C216.858 228.234 215.779 228.031 214.696 227.857C213.855 227.722 213.007 227.637 212.164 227.514C210.385 227.255 208.606 226.985 206.827 226.719C205.811 226.567 204.797 226.4 203.779 226.262C202.421 226.079 201.059 225.769 199.701 225.777C196.291 225.796 192.881 225.946 189.472 226.079C187.842 226.143 186.209 226.234 184.589 226.416C183.682 226.519 182.81 226.806 182.152 227.57C181.081 228.814 179.93 229.991 178.848 231.226C178.165 232.006 177.525 232.827 176.9 233.655C176.074 234.751 175.066 235.417 173.625 235.305C171.265 235.123 168.901 234.989 166.54 234.808C165.665 234.74 164.793 234.61 163.922 234.488C162.445 234.281 160.972 234.041 159.494 233.848C158.079 233.663 156.661 233.509 155.242 233.363C154.841 233.322 154.432 233.345 154.029 233.367C153.948 233.372 153.875 233.509 153.799 233.585C153.881 233.623 153.965 233.658 154.046 233.7C154.756 234.071 155.447 234.484 156.178 234.806C158.322 235.753 160.533 236.563 162.623 237.614C165.657 239.14 168.489 241.004 171.064 243.244C171.862 243.939 172.629 244.455 173.938 244.28C176.013 244.004 177.953 243.492 179.815 242.586C182.322 241.367 184.872 240.366 187.754 240.964C189.421 241.31 191.098 241.613 192.763 241.97C193.818 242.196 194.847 242.569 195.91 242.726C197.229 242.922 198.571 242.957 199.902 243.073C202.322 243.283 204.742 243.507 207.163 243.717C208.807 243.86 210.451 243.989 212.177 244.204C214.345 244.312 216.513 244.425 218.682 244.526ZM134.339 197.753C134.363 198.4 134.337 199.048 134.348 199.695C134.398 202.722 134.446 205.748 134.514 208.774C134.533 209.652 134.495 210.558 134.696 211.4C135.103 213.105 135.637 214.781 136.158 216.457C136.381 217.174 136.691 217.858 137.502 218.142C138.208 218.389 138.891 218.7 139.599 218.943C140.648 219.303 140.97 219.167 141.654 218.206C141.88 217.889 142.141 217.595 142.396 217.299C144.035 215.387 145.724 213.515 147.303 211.554C148.469 210.107 148.267 207.779 146.315 207.032C146.105 206.951 145.897 206.855 145.679 206.81C144.526 206.571 144.579 206.574 144.541 205.484C144.404 201.591 144.861 197.687 144.249 193.798C144.005 192.245 144.106 190.64 143.881 189.082C143.532 186.659 143.048 184.255 142.605 181.846C142.185 179.568 141.764 177.289 141.304 175.018C140.961 173.324 140.549 171.644 140.18 169.954C139.898 168.666 139.677 167.363 139.336 166.09C139.244 165.746 138.817 165.492 138.544 165.197C138.225 165.505 137.665 165.786 137.626 166.127C137.431 167.853 137.164 169.612 137.316 171.325C137.49 173.292 137.785 175.243 137.41 177.196C136.982 179.422 136.27 181.559 135.064 183.507C134.395 184.586 133.896 185.706 134.01 187.042C134.122 188.364 134.159 189.694 134.178 191.021C134.204 192.909 134.184 194.798 134.184 196.848C134.238 197.15 134.328 197.45 134.339 197.753ZM125.847 130.877C125.71 131.088 125.522 131.282 125.446 131.513C124.677 133.867 123.974 136.244 123.152 138.579C122.657 139.985 121.88 141.241 120.594 142.125C119.66 142.767 118.789 143.5 117.876 144.172C117.425 144.504 117.52 144.791 117.801 145.194C118.642 146.399 119.531 147.584 120.233 148.868C121.201 150.641 122.031 152.491 122.893 154.321C123.733 156.104 124.61 157.874 125.338 159.703C125.956 161.257 126.288 162.925 126.924 164.47C127.499 165.867 128.115 167.244 128.324 168.739C128.395 169.248 128.559 169.252 128.945 169.251C131.261 169.243 133.498 168.936 135.451 167.558C135.618 167.44 135.759 167.197 135.791 166.994C135.867 166.502 135.854 165.997 135.912 165.501C135.952 165.151 136.181 164.773 136.099 164.468C135.795 163.334 135.39 162.228 135.036 161.107C134.36 158.966 133.473 156.848 133.412 154.589C133.351 152.291 133.558 149.982 133.715 147.683C133.779 146.745 133.963 145.804 134.2 144.892C134.478 143.823 134.412 143.53 133.447 143.008C131.859 142.15 130.49 140.996 129.511 139.507C127.913 137.077 126.686 134.463 126.248 131.44C126.114 131.252 125.98 131.065 125.847 130.877ZM148.888 130.16C148.932 130.073 149.325 129.8 148.74 129.702C148.15 129.602 147.483 129.316 147.078 128.893C146.282 128.064 145.624 127.098 144.956 126.155C144.767 125.889 144.7 125.727 144.434 126.046C144.265 126.249 144.046 126.411 143.877 126.614C142.416 128.379 140.315 129.128 138.347 128.638C135.989 128.05 134.55 125.535 134.518 123.353C134.505 122.483 134.23 121.754 133.536 121.254C132.38 120.421 131.19 119.634 130.002 118.847C129.337 118.406 128.703 118.55 128.531 119.245C128.106 120.965 127.577 122.688 127.428 124.439C127.245 126.605 127.332 128.792 127.849 130.954C128.721 134.595 129.852 138.056 132.824 140.622C134.74 142.277 137.106 142.649 139.388 141.648C141.648 140.655 143.038 138.82 144.389 136.909C145.525 135.303 146.657 133.695 147.872 132.007C148.215 131.394 148.571 130.787 148.888 130.16ZM246.799 238.315C248.37 240.314 250.197 241.983 252.698 242.79C254.242 243.289 254.807 243.201 255.662 241.571C257.405 238.248 259.128 234.914 260.847 231.578C261.533 230.245 262.167 228.886 262.855 227.554C264.198 224.952 265.558 222.359 266.919 219.767C267.167 219.294 266.931 218.865 266.565 218.816C265.296 218.647 263.955 218.284 262.775 219.069C261.22 220.103 259.655 221.144 258.224 222.338C256.054 224.149 253.964 226.06 251.906 227.999C250.972 228.878 250.184 229.915 249.354 230.901C248.698 231.68 247.857 232.335 247.607 233.399C247.376 234.383 247.149 235.368 246.92 236.514C246.651 237.101 246.35 237.743 246.799 238.315ZM193.304 325.209C193.674 325.238 194.387 325.07 194.391 324.97C194.438 323.576 194.702 322.1 193.451 321.011C191.826 319.597 190.251 318.118 188.555 316.792C185.82 314.654 183.005 312.618 180.222 310.54C179.228 309.798 178.239 309.01 176.973 308.817C175.84 308.644 174.685 308.621 173.549 308.469C172.589 308.341 171.937 308.756 171.355 309.447C169.942 311.121 168.915 312.982 168.527 315.155C168.223 316.859 168.771 317.797 170.146 318.202C172.764 318.973 175.364 319.807 177.977 320.596C179.85 321.161 181.74 321.67 183.609 322.247C186.335 323.088 189.048 323.968 191.929 324.831C192.387 324.965 192.838 325.172 193.304 325.209ZM138.315 220.239C136.507 219.523 134.709 218.78 132.897 218.076C132.361 217.867 131.905 217.806 131.729 218.631C131.537 219.526 131.128 220.374 130.833 221.249C130.177 223.19 129.519 225.13 128.898 227.083C128.784 227.443 128.609 227.95 129.322 228.019C130.25 228.108 131.174 228.263 132.103 228.331C133.919 228.463 135.736 228.593 137.555 228.653C140.258 228.742 142.962 228.774 145.666 228.821C146.529 228.837 147.393 228.821 148.256 228.826C148.466 228.827 148.689 228.812 148.884 228.873C151.225 229.604 153.558 230.362 155.9 231.087C158.257 231.815 160.618 232.531 163.135 232.391C164.009 232.342 164.17 232.178 163.848 231.373C163.673 230.935 163.429 230.488 163.106 230.149C161.529 228.496 159.604 227.343 157.544 226.394C155.903 225.638 154.299 224.795 152.453 224.605C151.589 224.516 150.719 224.392 149.879 224.175C148.546 223.83 147.224 223.43 145.92 222.986C144.291 222.431 142.685 221.808 140.907 221.214C140.043 220.89 139.173 220.579 138.315 220.239ZM117.98 148.768C117.222 147.593 116.424 146.444 115.641 145.286C115.532 145.125 115.413 144.971 115.299 144.813C115.223 145.078 115.116 145.339 115.077 145.61C114.948 146.504 114.875 147.407 114.721 148.296C114.417 150.057 114.252 151.786 115.393 153.351C115.465 153.45 115.522 153.569 115.555 153.688C115.974 155.213 116.387 156.74 116.805 158.266C116.911 158.652 117.022 159.038 117.148 159.418C117.694 161.051 118.356 162.656 118.767 164.323C119.189 166.035 119.513 167.755 120.39 169.319C120.643 169.768 120.724 170.311 120.91 170.801C120.966 170.947 121.149 171.182 121.207 171.164C121.392 171.106 121.637 170.984 121.699 170.824C122.423 168.963 122.772 166.931 124.147 165.369C125.314 164.042 125.072 162.686 124.356 161.269C124.076 160.716 123.903 160.109 123.653 159.539C123.113 158.307 122.596 157.062 121.992 155.861C121.463 154.812 120.824 153.819 120.243 152.796C119.834 152.077 119.44 151.349 118.959 150.544C118.635 149.951 118.345 149.335 117.98 148.768ZM161.731 223.072C159.365 221.543 156.967 220.059 154.675 218.426C152.755 217.059 150.977 215.496 149.112 214.051C148.608 213.661 148.03 213.532 147.516 214.12C146.683 215.072 145.833 216.01 145.001 216.964C144.381 217.674 143.786 218.405 143.165 219.114C142.68 219.669 142.731 219.966 143.441 220.178C145.724 220.861 148.023 221.489 150.298 222.193C153.404 223.155 156.507 224.132 159.585 225.179C160.57 225.513 161.438 226.19 162.422 226.53C163.421 226.874 164.488 227.054 165.541 227.201C166.757 227.371 167.988 227.438 169.215 227.514C169.411 227.527 169.618 227.352 169.82 227.263C169.7 227.097 169.609 226.896 169.456 226.77C167.511 225.179 165.189 224.357 162.774 223.481C162.424 223.348 162.038 223.27 161.731 223.072ZM130.931 180.427C131.231 181.568 131.946 182.123 133.046 182.226C133.996 182.315 134.275 181.794 134.507 181.1C134.839 180.106 135.167 179.11 135.479 178.109C136.17 175.887 136.071 173.647 135.657 171.387C135.522 170.65 135.554 169.882 135.52 169.128C135.515 169.019 135.571 168.906 135.599 168.795C135.488 168.828 135.372 168.85 135.266 168.894C134.599 169.17 133.957 169.552 133.264 169.708C131.965 170 130.641 170.193 129.319 170.362C128.808 170.427 128.506 170.48 128.668 171.105C128.821 171.695 128.882 172.308 129.004 172.906C129.266 174.197 129.542 175.484 129.812 176.934C130.19 178.097 130.619 179.247 130.931 180.427ZM144.773 168.248C144.899 168.355 145.039 168.445 145.172 168.543C145.171 168.362 145.221 168.162 145.162 168.003C144.81 167.071 144.483 166.125 144.055 165.227C143.142 163.311 142.302 161.342 141.187 159.546C140.091 157.781 138.615 156.256 137.45 154.528C136.616 153.29 136.026 151.888 135.314 150.567C135.204 150.364 135.023 150.199 134.875 150.017C134.807 150.231 134.676 150.447 134.681 150.66C134.715 152.04 134.733 153.423 134.849 154.798C134.928 155.735 135.086 156.68 135.338 157.585C135.618 158.59 136.125 159.534 136.386 160.542C136.692 161.722 137.253 162.469 138.396 163.099C140.291 164.145 142.247 165.231 143.58 167.22C143.977 167.563 144.372 167.909 144.773 168.248ZM136.336 122.5C135.714 123.406 136.867 126.579 137.494 126.815C141.884 128.467 143.135 125.64 143.193 124.863C143.307 123.323 143.497 121.761 142.041 120.512C138.199 119.748 137.341 121.037 136.336 122.5ZM153.144 123.783C152.554 122.313 151.661 121.355 150.107 121.69C149.313 121.861 148.615 122.49 147.885 122.931C146.317 123.88 146.112 124.398 146.66 126.079C147.209 127.762 148.488 128.725 150.115 129.052C151.462 129.323 152.425 128.488 153.137 127.231C153.316 126.082 153.611 124.946 153.144 123.783ZM147.331 121.883C147.964 121.433 148.65 120.766 149.333 120.742C150.514 120.699 150.322 119.978 150.194 119.41C149.838 117.822 149.373 116.259 148.919 114.695C148.608 113.624 148.346 113.563 147.591 114.317C146.3 115.608 144.991 116.875 143.369 117.767C142.861 118.045 142.791 118.688 143.154 119.194C143.289 119.382 143.473 119.544 143.574 119.748C144.073 120.751 144.525 121.778 145.058 122.763C145.176 122.98 145.086 123.75 145.847 123.183C146.339 122.746 146.798 122.262 147.331 121.883ZM242.649 238.025C243.751 237.82 244.931 237.537 245.102 236.071C245.13 235.825 245.242 235.59 245.298 235.345C245.646 233.83 245.252 233.345 243.735 233.182C242.307 233.028 240.889 232.773 239.469 232.544C238.71 232.421 238.57 232.563 238.486 233.336C238.369 234.407 238.203 235.474 238.002 236.533C237.827 237.46 238.087 238.194 238.902 238.376C240.153 238.268 241.421 238.253 242.649 238.025ZM176.505 306.998C176.66 306.991 176.922 306.686 176.927 306.511C176.965 305.353 176.938 304.193 176.951 303.034C176.958 302.383 176.459 302.361 176.101 302.475C175.321 302.724 174.579 303.094 173.826 303.425C173.283 303.664 172.671 303.858 172.737 304.642C172.783 305.196 172.783 305.762 172.911 306.298C173.123 307.187 173.891 306.764 174.517 306.941C175.18 306.968 175.845 307.028 176.505 306.998ZM133.363 212.818C133.317 212.686 133.125 212.605 133 212.501C132.909 212.631 132.751 212.755 132.738 212.892C132.662 213.725 132.597 214.56 132.572 215.395C132.547 216.211 133.124 216.74 133.955 216.665C134.095 216.652 134.345 216.405 134.326 216.305C134.204 215.642 134.023 214.99 133.78 214.253C133.645 213.773 133.529 213.287 133.363 212.818ZM178.999 228.113C179.089 227.935 179.278 227.439 178.729 227.542C177.89 227.699 177.067 227.937 176.243 228.162C176.092 228.203 175.969 228.344 175.833 228.439C175.991 228.513 176.146 228.646 176.306 228.652C176.978 228.676 177.651 228.662 178.405 228.581C178.611 228.429 178.896 228.317 178.999 228.113ZM116.448 143.178C116.319 143.253 116.19 143.328 116.061 143.403C116.163 143.516 116.246 143.674 116.373 143.726C116.448 143.758 116.614 143.649 116.702 143.565C117.2 143.082 117.69 142.589 118.176 142.094C118.274 141.995 118.345 141.87 118.428 141.757C118.264 141.789 118.058 141.769 117.944 141.862C117.457 142.255 116.998 142.682 116.448 143.178Z" fill="#00160A"/>
<path fill-rule="evenodd" clip-rule="evenodd" d="M133.805 133.747C133.046 133.337 132.296 133 132.138 132.086C131.832 130.309 132.472 128.217 134.787 128.338C136.874 128.448 138.199 130.182 137.46 132.14C136.915 133.583 135.594 134.299 133.805 133.747Z" fill="#FFB61D"/>
<path fill-rule="evenodd" clip-rule="evenodd" d="M144.099 127.12C144.141 126.848 144.183 126.657 144.224 126.467C144.29 126.633 144.374 126.794 144.418 126.966C144.744 128.24 145.776 131.413 144.547 132.873C144.444 132.994 143.926 133.013 143.603 132.993C142.968 132.953 142.228 132.017 142.346 131.413C142.364 131.322 143.896 132.809 144.224 132.004C144.772 130.663 144.099 127.582 144.099 127.12Z" fill="#00160A"/>
<path fill-rule="evenodd" clip-rule="evenodd" d="M135.458 136.417C135.395 136.385 135.306 136.393 135.23 136.396C135.041 136.404 134.783 136.066 134.893 135.923C135.059 135.708 135.246 135.491 135.47 135.349C135.604 135.265 135.825 135.538 135.808 135.659C135.796 135.75 135.882 135.891 135.965 135.952C137.233 136.884 138.641 137.488 140.182 137.778C140.283 137.797 140.372 137.888 140.467 137.946C140.372 138.011 140.278 138.139 140.183 138.133C138.503 138.035 136.559 136.975 135.458 136.417Z" fill="#00160A"/>
<path fill-rule="evenodd" clip-rule="evenodd" d="M94.51 209.374L92.9136 216.192C92.7902 216.719 93.2863 217.181 93.8033 217.02L99.3452 215.294C99.8115 215.149 99.9895 214.583 99.6905 214.197L95.745 209.105C95.3841 208.639 94.6444 208.8 94.51 209.374ZM95.1913 210.467L98.6702 214.626L93.5949 216.351L95.1913 210.467Z" fill="#FFB61D"/>
<path fill-rule="evenodd" clip-rule="evenodd" d="M99.4628 170.037C98.8793 169.984 98.4935 170.629 98.8155 171.119L102.875 177.291C103.149 177.707 103.758 177.712 104.038 177.301L107.775 171.828C108.077 171.387 107.792 170.784 107.26 170.736L99.4628 170.037ZM100.012 170.736L106.993 172.093L102.876 176.402L100.012 170.736Z" fill="#FFB61D"/>
<path fill-rule="evenodd" clip-rule="evenodd" d="M125.192 217.233H119.466C118.991 217.233 118.654 217.696 118.799 218.148L120.723 224.127C120.905 224.691 121.662 224.788 121.98 224.288L125.783 218.309C126.079 217.843 125.744 217.233 125.192 217.233ZM124.725 218.4L121.856 223.912L119.932 217.933L124.725 218.4Z" fill="#FFB61D"/>
<path fill-rule="evenodd" clip-rule="evenodd" d="M106.429 249.631L106.167 254.815C106.14 255.358 106.715 255.724 107.195 255.468L113.853 251.921C114.417 251.621 114.317 250.783 113.698 250.625L107.301 248.989C106.873 248.879 106.451 249.189 106.429 249.631ZM106.935 250.126L113.054 250.976L107.196 254.439L106.935 250.126Z" fill="#FFB61D"/>
<path fill-rule="evenodd" clip-rule="evenodd" d="M97.6011 185.97L92.4678 189.528C92.0333 189.829 92.0766 190.485 92.5468 190.726L98.5541 193.81C99.0563 194.068 99.6414 193.656 99.5678 193.096L98.6939 186.454C98.6255 185.934 98.0317 185.671 97.6011 185.97ZM97.8072 187.206L98.8738 193.187L92.8665 190.103L97.8072 187.206Z" fill="#FFB61D"/>
<path fill-rule="evenodd" clip-rule="evenodd" d="M121.155 201.21L117.952 205.993C117.676 206.405 117.904 206.965 118.389 207.067L122.134 207.859C122.597 207.957 123.021 207.577 122.975 207.107L122.433 201.532C122.37 200.878 121.521 200.664 121.155 201.21ZM122.027 202.169V207.29L118.806 205.993L122.027 202.169Z" fill="#FFB61D"/>
<path fill-rule="evenodd" clip-rule="evenodd" d="M121.761 178.68C122.693 178.072 123.511 178.216 122.845 179.555C122.845 179.555 117.987 191.873 116.535 192.019C115.159 192.157 114.494 190.377 112.572 185.287L112.49 185.07C112.483 185.051 112.477 185.032 112.471 185.013L112.461 184.972L112.448 184.949L112.422 184.887L112.192 184.266C111.92 183.524 111.237 182.301 110.876 181.876C110.49 181.424 111.35 181.143 111.984 181.143C113.169 181.143 114.618 181.474 116.898 180.816C119.567 180.046 120.483 179.514 121.761 178.68ZM119.695 185.009L119.631 185.05C118.953 185.467 118.204 185.788 117.385 186.012C116.406 186.28 114.986 186.313 114.067 186.112L113.913 186.076L113.97 186.218C114.488 187.51 114.949 189.005 115.351 189.765L115.492 190.024C115.743 190.477 115.965 190.806 116.144 191.004L116.2 191.062L116.269 190.978C116.569 190.595 117.635 189.154 118.376 187.714L118.454 187.563C118.771 186.941 119.117 186.234 119.491 185.442L119.695 185.009ZM121.694 180.103L121.582 180.167C120.528 180.754 118.784 181.729 117.286 182.161C115.492 182.679 113.971 182.864 112.721 182.698L112.644 182.686L112.688 182.81C112.807 183.145 113.314 184.728 113.493 184.972C114.219 185.643 115.109 185.706 116.199 185.442L116.356 185.402C120.259 184.648 121.694 180.103 121.694 180.103Z" fill="#FFB61D"/>
<path fill-rule="evenodd" clip-rule="evenodd" d="M258.756 223.167C258.912 223.053 259.131 223.086 259.245 223.241C260.053 224.337 261.421 224.391 263.24 223.381C263.409 223.287 263.622 223.348 263.716 223.517C263.81 223.686 263.749 223.899 263.58 223.993C261.487 225.155 259.736 225.086 258.682 223.657C258.567 223.501 258.601 223.282 258.756 223.167Z" fill="#E7EAEE"/>
<path fill-rule="evenodd" clip-rule="evenodd" d="M256.11 225.971C256.253 225.841 256.475 225.852 256.605 225.995C257.83 227.343 259.459 227.42 260.783 226.712C260.954 226.621 261.166 226.686 261.257 226.856C261.348 227.027 261.283 227.239 261.113 227.33C259.531 228.175 257.556 228.081 256.087 226.466C255.957 226.323 255.967 226.101 256.11 225.971Z" fill="#E7EAEE"/>
<path fill-rule="evenodd" clip-rule="evenodd" d="M253.244 228.748C253.385 228.616 253.607 228.622 253.739 228.763C254.92 230.018 257.322 230.631 258.965 229.761C259.135 229.67 259.347 229.735 259.438 229.906C259.528 230.077 259.463 230.289 259.292 230.379C257.347 231.41 254.612 230.712 253.229 229.243C253.097 229.102 253.104 228.881 253.244 228.748Z" fill="#E7EAEE"/>
<path fill-rule="evenodd" clip-rule="evenodd" d="M255.469 239.725C257.926 238.536 255.386 234.131 253.008 235.914C251.483 237.057 253.155 240.844 255.469 239.725Z" fill="#E7EAEE"/>
</svg>
