<svg width="350" height="419" viewBox="0 0 350 419" fill="none" xmlns="http://www.w3.org/2000/svg">
<rect y="349" width="350" height="70" fill="#FFB822"/>
<path d="M65.7799 394.252C63.4039 394.252 61.2199 393.7 59.2279 392.596C57.2599 391.492 55.6879 389.956 54.5119 387.988C53.3599 385.996 52.7839 383.764 52.7839 381.292C52.7839 378.82 53.3599 376.6 54.5119 374.632C55.6879 372.664 57.2599 371.128 59.2279 370.024C61.2199 368.92 63.4039 368.368 65.7799 368.368C68.1559 368.368 70.3279 368.92 72.2959 370.024C74.2879 371.128 75.8479 372.664 76.9759 374.632C78.1279 376.6 78.7039 378.82 78.7039 381.292C78.7039 383.764 78.1279 385.996 76.9759 387.988C75.8239 389.956 74.2639 391.492 72.2959 392.596C70.3279 393.7 68.1559 394.252 65.7799 394.252ZM65.7799 388.636C67.7959 388.636 69.4039 387.964 70.6039 386.62C71.8279 385.276 72.4399 383.5 72.4399 381.292C72.4399 379.06 71.8279 377.284 70.6039 375.964C69.4039 374.62 67.7959 373.948 65.7799 373.948C63.7399 373.948 62.1079 374.608 60.8839 375.928C59.6839 377.248 59.0839 379.036 59.0839 381.292C59.0839 383.524 59.6839 385.312 60.8839 386.656C62.1079 387.976 63.7399 388.636 65.7799 388.636ZM96.0167 394L90.7607 384.46H89.2847V394H83.1287V368.728H93.4607C95.4527 368.728 97.1447 369.076 98.5367 369.772C99.9527 370.468 101.009 371.428 101.705 372.652C102.401 373.852 102.749 375.196 102.749 376.684C102.749 378.364 102.269 379.864 101.309 381.184C100.373 382.504 98.9807 383.44 97.1327 383.992L102.965 394H96.0167ZM89.2847 380.104H93.1007C94.2287 380.104 95.0687 379.828 95.6207 379.276C96.1967 378.724 96.4847 377.944 96.4847 376.936C96.4847 375.976 96.1967 375.22 95.6207 374.668C95.0687 374.116 94.2287 373.84 93.1007 373.84H89.2847V380.104ZM124.389 376.72C123.933 375.88 123.273 375.244 122.409 374.812C121.569 374.356 120.573 374.128 119.421 374.128C117.429 374.128 115.833 374.788 114.633 376.108C113.433 377.404 112.833 379.144 112.833 381.328C112.833 383.656 113.457 385.48 114.705 386.8C115.977 388.096 117.717 388.744 119.925 388.744C121.437 388.744 122.709 388.36 123.741 387.592C124.797 386.824 125.565 385.72 126.045 384.28H118.233V379.744H131.625V385.468C131.169 387.004 130.389 388.432 129.285 389.752C128.205 391.072 126.825 392.14 125.145 392.956C123.465 393.772 121.569 394.18 119.457 394.18C116.961 394.18 114.729 393.64 112.761 392.56C110.817 391.456 109.293 389.932 108.189 387.988C107.109 386.044 106.569 383.824 106.569 381.328C106.569 378.832 107.109 376.612 108.189 374.668C109.293 372.7 110.817 371.176 112.761 370.096C114.705 368.992 116.925 368.44 119.421 368.44C122.445 368.44 124.989 369.172 127.053 370.636C129.141 372.1 130.521 374.128 131.193 376.72H124.389ZM151.767 389.536H142.335L140.823 394H134.379L143.523 368.728H150.651L159.795 394H153.279L151.767 389.536ZM150.183 384.784L147.051 375.532L143.955 384.784H150.183ZM186.186 394H180.03L169.734 378.412V394H163.578V368.728H169.734L180.03 384.388V368.728H186.186V394ZM197.804 368.728V394H191.648V368.728H197.804ZM212.409 394.252C210.561 394.252 208.905 393.952 207.441 393.352C205.977 392.752 204.801 391.864 203.913 390.688C203.049 389.512 202.593 388.096 202.545 386.44H209.097C209.193 387.376 209.517 388.096 210.069 388.6C210.621 389.08 211.341 389.32 212.229 389.32C213.141 389.32 213.861 389.116 214.389 388.708C214.917 388.276 215.181 387.688 215.181 386.944C215.181 386.32 214.965 385.804 214.533 385.396C214.125 384.988 213.609 384.652 212.985 384.388C212.385 384.124 211.521 383.824 210.393 383.488C208.761 382.984 207.429 382.48 206.397 381.976C205.365 381.472 204.477 380.728 203.733 379.744C202.989 378.76 202.617 377.476 202.617 375.892C202.617 373.54 203.469 371.704 205.173 370.384C206.877 369.04 209.097 368.368 211.833 368.368C214.617 368.368 216.861 369.04 218.565 370.384C220.269 371.704 221.181 373.552 221.301 375.928H214.641C214.593 375.112 214.293 374.476 213.741 374.02C213.189 373.54 212.481 373.3 211.617 373.3C210.873 373.3 210.273 373.504 209.817 373.912C209.361 374.296 209.133 374.86 209.133 375.604C209.133 376.42 209.517 377.056 210.285 377.512C211.053 377.968 212.253 378.46 213.885 378.988C215.517 379.54 216.837 380.068 217.845 380.572C218.877 381.076 219.765 381.808 220.509 382.768C221.253 383.728 221.625 384.964 221.625 386.476C221.625 387.916 221.253 389.224 220.509 390.4C219.789 391.576 218.733 392.512 217.341 393.208C215.949 393.904 214.305 394.252 212.409 394.252ZM242.146 389.536H232.714L231.202 394H224.758L233.902 368.728H241.03L250.174 394H243.658L242.146 389.536ZM240.562 384.784L237.43 375.532L234.334 384.784H240.562ZM263.101 394.252C261.253 394.252 259.597 393.952 258.133 393.352C256.669 392.752 255.493 391.864 254.605 390.688C253.741 389.512 253.285 388.096 253.237 386.44H259.789C259.885 387.376 260.209 388.096 260.761 388.6C261.313 389.08 262.033 389.32 262.921 389.32C263.833 389.32 264.553 389.116 265.081 388.708C265.609 388.276 265.873 387.688 265.873 386.944C265.873 386.32 265.657 385.804 265.225 385.396C264.817 384.988 264.301 384.652 263.677 384.388C263.077 384.124 262.213 383.824 261.085 383.488C259.453 382.984 258.121 382.48 257.089 381.976C256.057 381.472 255.169 380.728 254.425 379.744C253.681 378.76 253.309 377.476 253.309 375.892C253.309 373.54 254.161 371.704 255.865 370.384C257.569 369.04 259.789 368.368 262.525 368.368C265.309 368.368 267.553 369.04 269.257 370.384C270.961 371.704 271.873 373.552 271.993 375.928H265.333C265.285 375.112 264.985 374.476 264.433 374.02C263.881 373.54 263.173 373.3 262.309 373.3C261.565 373.3 260.965 373.504 260.509 373.912C260.053 374.296 259.825 374.86 259.825 375.604C259.825 376.42 260.209 377.056 260.977 377.512C261.745 377.968 262.945 378.46 264.577 378.988C266.209 379.54 267.529 380.068 268.537 380.572C269.569 381.076 270.457 381.808 271.201 382.768C271.945 383.728 272.317 384.964 272.317 386.476C272.317 387.916 271.945 389.224 271.201 390.4C270.481 391.576 269.425 392.512 268.033 393.208C266.641 393.904 264.997 394.252 263.101 394.252ZM283.261 368.728V394H277.105V368.728H283.261Z" fill="black"/>
<rect width="350" height="350" fill="white"/>
<path d="M297.961 251.206C296.017 289.13 265.631 323.496 228.385 330.888C191.138 338.28 150.374 318.618 132.225 285.263C130.222 281.582 128.439 277.721 126.656 273.861C122.051 263.895 117.449 253.932 109.079 247.077C99.5231 239.25 87.2329 237.156 74.819 235.042C66.9361 233.699 59.0032 232.348 51.6889 229.514C34.0563 222.684 20.3655 206.504 16.5491 187.983C10.3645 157.972 29.9543 127.33 56.0781 111.314C82.2019 95.2983 113.593 90.8378 144.042 87.4007C155.69 86.0859 165.152 77.3082 171.91 67.7302C174.526 64.0223 176.88 60.126 179.232 56.2327C182.955 50.0691 186.674 43.9128 191.423 38.5221C211.531 15.6962 248.976 11.8444 274.587 28.2576C300.199 44.6708 312.458 78.4211 305.647 108.068C304.474 113.175 302.809 118.147 301.143 123.119L301.143 123.12C299.549 127.88 297.955 132.64 296.792 137.519C294.307 147.947 293.833 158.738 293.55 169.454C293.212 182.23 293.133 195.04 294.329 207.765C294.745 212.192 295.316 216.613 295.887 221.033C297.183 231.077 298.478 241.116 297.961 251.206Z" fill="#64FCD9"/>
<path d="M144 78.3431C157.927 71.4148 169.011 59.3824 175.991 45.4816C176.907 43.6589 177.774 41.7224 177.742 39.6831C177.71 37.6439 176.523 35.4838 174.551 34.9659C171.724 34.2238 169.292 36.9342 167.53 39.2655C155.419 55.2803 137.793 67.8527 117.903 70.5946C110.264 71.6476 102.508 71.2521 94.8069 70.8545L82.7783 70.2335C73.0901 69.7333 63.2674 69.2431 53.7842 71.2874C44.301 73.3317 35.0348 78.2483 29.8263 86.4326C28.1685 89.0377 26.9267 92.1076 27.3854 95.1612C27.8555 98.2904 30.0798 100.946 32.7591 102.63C35.4384 104.313 38.5511 105.155 41.636 105.86C43.8946 106.376 46.2014 106.833 48.5125 106.67C52.2908 106.404 55.7196 104.526 59.0559 102.698C59.2781 102.576 59.5 102.454 59.7215 102.333C65.5525 99.1523 71.5946 96.3271 77.8965 94.228C87.0863 91.167 96.7494 89.669 106.389 88.1747C119.374 86.1616 132.317 84.1553 144 78.3431Z" fill="#64FCD9"/>
<path d="M71.5764 262.918L71.5846 262.918C72.1522 262.941 72.7195 262.963 73.2853 262.993C82.2344 263.458 91.0904 265.652 99.2218 269.418C102.322 270.854 105.462 272.651 107.203 275.591C109.358 279.229 111.944 282.61 114.891 285.642C116.034 286.818 117.272 287.968 118.798 288.569C120.324 289.17 122.208 289.115 123.446 288.039C124.951 286.732 125.048 284.412 124.584 282.475C123.825 279.299 121.93 276.532 120.055 273.859C113.902 265.087 107.424 256.317 98.8613 249.876C90.2986 243.436 79.2479 239.536 68.7669 241.761C65.148 242.529 61.5612 244.095 59.1619 246.911C56.7625 249.727 55.8144 253.965 57.5424 257.236C58.9133 259.831 61.6925 261.428 64.5379 262.148C66.8311 262.727 69.2061 262.823 71.5759 262.918H71.5764Z" fill="#64FCD9"/>
<path d="M313.64 130.987C311.248 130.085 308.539 131.174 306.514 132.735C302.514 135.818 300.148 140.641 299.072 145.575C297.995 150.509 298.082 155.612 298.174 160.661L298.965 204.043C299.023 207.212 299.164 210.628 301.113 213.128C301.722 213.91 302.557 214.597 303.544 214.698C304.74 214.82 305.847 214.065 306.711 213.228C311.434 208.655 312.055 201.45 312.62 194.884L312.64 194.645C313.471 185.006 314.91 175.419 316.945 165.961C317.517 163.301 318.146 160.624 319.343 158.181C323.096 150.521 322.199 140.799 317.107 133.956C316.186 132.718 315.084 131.531 313.64 130.987Z" fill="#64FCD9"/>
<path d="M227.946 189.707C230.471 190.403 232.732 192.505 232.98 195.111C233.458 194.074 234.51 193.325 235.646 193.211L233.997 194.964L236.084 195.006L233.212 196.61C234.992 199.903 234.704 203.965 233.563 207.531C232.864 209.713 231.853 211.899 232.051 214.182C232.244 216.428 234.239 218.722 236.418 218.262L236.527 218.237C239.147 217.575 242.016 217.958 244.37 219.285C247.753 221.19 249.805 224.729 252.13 227.839C254.182 230.583 256.611 233.136 259.647 234.726C262.683 236.316 266.406 236.841 269.569 235.521C271.138 234.866 272.543 233.781 274.208 233.436C275.874 233.091 277.58 234.017 278.191 235.595C278.462 236.293 277.88 238.88 276.398 241.901C276.639 241.832 276.892 241.787 277.155 241.77C284.945 241.264 292.806 239.571 299.51 235.571C301.641 234.3 303.631 232.811 305.607 231.309L306.759 230.431L307.456 229.894C311.792 226.535 316.073 222.79 317.856 217.681L317.949 217.406L318.147 216.802C318.528 215.659 319.012 214.477 320.115 214.122C321.643 213.631 323.034 215.109 323.962 216.418L330.653 225.851C330.825 226.093 331 226.344 331.066 226.633C331.356 227.915 329.443 228.563 328.21 228.108C325.968 227.28 324.168 224.814 321.816 225.237C320.162 225.534 319.174 227.135 318.357 228.644L318.15 229.028C313.199 238.298 304.868 245.714 295.087 249.558C292.566 250.548 289.96 251.307 287.36 252.065L282.105 253.596L283.031 253.761C290.871 255.135 299.236 255.975 306.356 252.5C311.096 250.187 314.748 246.205 318.192 242.18L319.442 240.711L319.958 240.098C322.072 237.562 324.081 234.847 324.698 231.632C324.935 230.398 326.493 229.809 327.705 230.144C328.916 230.478 329.839 231.437 330.697 232.355L337.201 239.317C337.713 239.865 338.253 240.47 338.328 241.217C338.403 241.964 337.733 242.809 337.012 242.6L329.959 240.551C329.298 240.359 328.565 240.171 327.942 240.466C327.465 240.691 327.157 241.154 326.884 241.61L319.301 254.415C317.166 258.021 313.209 260.111 309.321 261.675C299.998 265.424 289.88 267.186 279.838 266.808C278.748 266.767 277.656 266.701 276.578 266.531C272.527 265.893 268.868 263.833 265.326 261.75C265.947 264.021 265.394 265.937 261.705 266.083C258.438 266.212 250.434 252.759 247.945 252.061C234.36 248.252 232.129 240.732 227.765 235.595C227.765 235.595 218.945 236.735 213.122 235.521C199.472 232.675 190.299 223.921 186.992 223.364C183.684 222.806 181.504 224.926 180.482 223.64L180.482 222.709C180.64 222.453 182.221 220.976 186.729 221.935C193.024 223.274 203.087 228.33 210.773 229.275C218.84 230.266 225.674 228.954 225.636 228.734C225.56 228.284 227.588 226.375 225.967 225.412C224.347 224.448 200.826 215.007 195.713 207.14L195.652 207.042C194.773 205.583 194.105 201.957 195.874 203.617L196.369 202.739C198.274 204.535 204.527 208.64 211.022 212.688C217.89 216.966 227.588 219.707 227.765 219.587C231.717 216.914 228.212 214.979 227.558 214.41C226.027 213.08 223.994 212.355 222.674 210.815C219.51 207.12 221.77 200.511 218.153 197.259C217.605 196.766 216.941 196.379 216.545 195.759C215.865 194.696 216.199 193.218 217.022 192.262C217.845 191.306 219.049 190.773 220.24 190.357C222.712 189.494 225.422 189.012 227.946 189.707Z" fill="white"/>
<ellipse cx="230.067" cy="208.6" rx="0.933327" ry="0.933319" fill="#FFB61D"/>
<ellipse cx="224.377" cy="208.6" rx="0.692169" ry="0.933319" fill="#FFB61D"/>
<path d="M190.553 213.123C181.876 210.879 172.756 210.361 163.88 211.608C164.551 208.291 165.392 205.008 166.397 201.777C163.509 202.709 160.1 200.062 160.287 197.033C160.473 194.004 164.182 191.796 166.934 193.076C167.879 190.895 167.939 188.345 167.097 186.122C166.694 185.056 168.303 184.44 169.443 184.44L175.744 184.439C176.625 184.438 177.853 184.029 177.634 183.176C177.116 181.153 178.507 178.841 180.537 178.353C182.531 177.873 184.776 179.238 185.291 181.216L185.317 181.327C185.796 183.452 188.487 184.126 190.665 184.084L191.749 184.058C193.632 184.019 195.595 184.08 196.855 185.397C198.363 186.973 198.026 189.482 197.529 191.621L197.496 191.763C196.792 194.732 196.041 197.69 195.244 200.636C196.792 213.092 192.959 213.745 190.553 213.123Z" fill="white"/>
<path d="M118.177 202.723C117.257 196.736 117.259 190.608 118.181 184.621L118.228 184.332C118.457 182.973 118.858 181.539 119.994 180.79C120.844 180.23 121.917 180.188 122.941 180.187L130.778 180.209C131.135 180.21 131.526 180.223 131.794 180.459C132.063 180.694 132.055 181.234 131.711 181.329C130.89 181.556 130.419 182.503 130.518 183.349C130.618 184.195 131.168 184.928 131.814 185.483C133.355 186.807 135.749 187.278 137.455 186.174C139.16 185.07 139.561 182.225 137.945 180.994C141.606 180.919 145.269 180.931 148.929 181.028L150.302 181.069C150.746 181.083 151.236 181.118 151.546 181.436C151.779 181.675 151.855 182.021 151.908 182.351C152.313 184.885 151.87 187.547 150.666 189.813C150.474 190.174 150.029 190.572 149.727 190.297C148.441 189.129 146.277 189.288 144.961 190.422C143.645 191.556 143.137 193.439 143.369 195.161C143.593 196.818 144.801 198.587 146.471 198.504C147.786 198.438 149.248 197.288 150.242 198.152L148.568 205.633C148.27 206.962 147.736 208.538 146.404 208.823C138.716 210.468 130.656 210.343 123.022 208.463L122.652 208.369C121.725 208.126 120.802 207.812 120.08 207.194C118.822 206.117 118.429 204.359 118.177 202.723Z" fill="white"/>
<path d="M178.493 144.017L197.071 144.39L197.375 144.398C197.932 144.415 198.495 144.464 198.997 144.699C200.133 145.229 200.653 146.535 200.999 147.74C202.842 154.171 202.615 161.178 200.358 167.476L200.263 167.734C199.969 168.509 199.585 169.281 198.891 169.717C198.321 170.076 197.625 170.151 196.948 170.187L196.803 170.194C194.04 170.325 191.268 170.255 188.516 169.983C189.949 169.101 190.311 166.952 189.401 165.536C188.491 164.12 186.568 163.529 184.949 163.989C183.962 164.269 183.042 164.944 182.685 165.906C182.328 166.868 182.673 168.103 183.585 168.573C184.216 168.897 184.108 169.92 183.555 170.366C183.003 170.811 182.235 170.843 181.526 170.854L172.204 171.006C171.504 171.017 170.767 171.02 170.152 170.684C169.28 170.208 168.879 169.183 168.633 168.22C168.04 165.897 167.96 163.445 168.4 161.088C168.93 162.949 171.224 164.079 173.022 163.366C174.821 162.652 175.716 160.257 174.826 158.538C173.935 156.82 171.462 156.17 169.842 157.228L169.774 156.627C169.542 154.522 169.361 152.39 169.765 150.317C170.208 148.046 171.471 145.816 173.542 144.784C175.052 144.031 176.796 143.99 178.493 144.017Z" fill="white"/>
<path d="M122.146 164.915C119.53 164.926 116.913 164.818 114.307 164.593L114.054 164.57C113.12 164.476 112.141 164.29 111.53 163.596C110.704 162.659 110.906 161.246 111.154 160.01L111.179 159.887C112.286 154.465 112.722 148.905 112.472 143.376L112.425 142.423C112.356 140.709 112.465 138.765 113.889 137.884C114.322 137.615 114.825 137.491 115.327 137.39L115.494 137.357C124.61 135.581 134.103 135.761 143.146 137.881C144.337 138.16 144.668 139.773 144.274 140.931C143.879 142.089 143.031 143.062 142.713 144.243C142.396 145.424 142.978 147.023 144.2 147.061C146.744 147.141 148.901 149.726 148.559 152.248C148.217 154.77 145.491 156.683 142.995 156.182C142.409 156.065 142.202 156.93 142.266 157.524L142.979 164.109C143.095 165.183 141.57 165.523 140.492 165.439L134.205 164.949C133.217 164.872 131.892 165.043 131.74 166.022C131.361 168.459 128.862 170.363 126.411 170.08C123.96 169.798 121.96 167.375 122.146 164.915Z" fill="white"/>
<path fill-rule="evenodd" clip-rule="evenodd" d="M105.223 205.437C105.92 205.607 106.919 205.908 106.863 206.568C105.747 219.863 100.941 217.417 96.6561 221.229C95.5238 222.236 94.8471 224.619 94.3607 224.674C96.1642 225.507 98.7814 228.848 103.286 229.001C115.835 229.426 120.403 220.269 120.403 220.269C120.698 217.333 119.209 212.045 121.068 213.526C122.351 214.548 122.097 209.568 123.85 210.064C124.377 210.213 123.457 213.524 123.85 213.722C124.067 213.831 124.388 212.929 124.949 212.211C125.417 211.612 126.138 211.168 126.287 211.299C126.388 211.388 126.291 212.244 125.87 212.968C125.278 213.985 124.289 214.965 124.428 215.128C124.58 215.308 127.189 212.88 127.348 213.092C128.403 214.5 121.717 230.707 110.436 233.767L109.542 234.007C102.966 235.754 100.204 235.992 94.1104 233.767C91.2213 232.711 89.4243 242.568 87.8184 245.849C86.8043 247.92 81.8791 252.997 79.63 251.462C76.6628 249.436 74.2432 245.666 71.7181 243.759L71.5558 243.64C69.835 242.406 65.9427 240.533 59.879 238.023L60.1522 237.896C61.4173 237.321 64.676 235.915 67.1781 233.767C70.7333 230.714 72.6588 224.158 75.1371 220.622C77.5841 217.131 80.8679 217.645 78.886 217.027C78.886 217.027 73.8643 214.367 71.5558 214.123C63.8462 213.31 53.7958 216.953 50.5806 219.301C46.169 222.523 50.5522 227.264 44.4565 224.94C42.425 224.166 47.8701 214.132 55.381 210.064C65.8209 204.409 75.6924 202.854 85.5893 211.856C89.617 215.519 90.0157 218.78 91.0958 221.267L90.8747 220.657C102.814 219.87 84.9251 207.917 99.8596 204.926C101.428 204.612 103.074 204.939 104.646 205.302L105.223 205.437Z" fill="white"/>
<ellipse cx="97.5334" cy="213.733" rx="0.933331" ry="0.933342" fill="#FFB61D"/>
<ellipse cx="102.667" cy="215.6" rx="0.933331" ry="0.933327" fill="#FFB61D"/>
<path fill-rule="evenodd" clip-rule="evenodd" d="M48.4839 249.929C58.6005 256.935 45.6566 247.258 56.7102 258.789C58.9424 261.118 70.2441 247.819 71.41 255.701C71.8352 258.575 70.9079 261.568 71.4733 264.419C72.0008 267.078 83.5698 265.482 84.4634 264.318C87.7028 260.101 77.6215 249.268 75.5077 247.536C63.7117 237.873 59.8192 238.544 48.7975 248.541L48.4839 249.929Z" fill="white"/>
<path fill-rule="evenodd" clip-rule="evenodd" d="M311.657 74.8321C313.641 75.0693 315.486 75.2899 315.486 72.9771C315.486 72.4269 308.808 67.5931 306.829 69.4546C304.285 71.8484 302.264 74.5935 300.306 77.2525C296.196 82.8344 292.366 88.0366 284.557 88.8117L284.463 88.8221C281.436 89.1877 287.076 91.8744 293.409 88.8117C297.764 86.7059 303.558 80.0439 306.31 76.8796C307.03 76.0515 307.541 75.463 307.765 75.2583L307.822 75.2092C308.76 74.4859 310.244 74.6632 311.657 74.8321ZM321.078 81.0914L327.686 86.3363C328.973 87.3581 327.466 89.5601 325.826 89.6656C324.874 89.7269 323.961 89.434 323.044 89.1397C322.38 88.9267 321.714 88.7129 321.029 88.6319C317.148 88.1732 314.19 91.8277 311.783 94.9056C309.583 97.7183 307.174 100.368 304.583 102.825L304.233 103.154L303.868 103.49C301.783 105.385 299.446 107.101 296.696 107.596C292.647 108.324 288.625 106.251 285.318 103.804C284.511 103.207 283.718 102.581 282.925 101.954C280.469 100.013 278.009 98.0685 275.096 96.9788C272.572 98.3563 270.209 100.021 268.052 101.919L268.148 101.844C271.77 105.474 274.303 110.177 275.34 115.199L274.647 115.078L274.19 115C269.91 114.282 265.326 113.857 261.71 116.148C260.435 116.955 259.298 118.082 258.174 119.196C257.392 119.972 256.615 120.742 255.803 121.393C256.009 121.516 256.22 121.643 256.436 121.776C260.438 123.413 264.681 124.461 268.985 124.877C269.643 124.941 270.308 124.991 270.974 125.042C274.062 125.276 277.189 125.514 279.827 127.064L280.752 127.617C282.237 128.496 283.89 129.332 285.134 128.315C285.492 128.022 285.726 127.621 285.961 127.218C286.104 126.972 286.248 126.726 286.42 126.504C286.874 125.915 287.776 125.501 288.341 125.984L288.57 127.783C288.737 126.626 289.853 125.685 291.021 125.718C292.19 125.75 293.252 126.751 293.354 127.916C293.538 130.029 291.142 131.294 289.108 131.967L278.567 135.364C274.8 136.578 270.625 135.949 266.994 134.375C263.613 132.91 260.63 130.681 257.78 128.337L257.149 127.815C254.996 126.024 252.087 124.078 249.645 125.448C253.888 125.706 256.983 129.363 259.514 132.821L259.757 133.155C260.167 133.72 260.589 134.315 260.69 135.005C260.973 136.938 258.778 138.221 256.923 138.835C258.486 139.672 257.712 142.102 256.501 143.397C254.739 145.28 252.433 146.636 249.944 147.307L249.717 148.093C249.703 148.146 249.696 148.174 249.698 148.175C250.871 148.093 251.595 149.67 251.117 150.745C250.639 151.82 249.458 152.392 248.326 152.712C244.596 153.767 240.382 152.935 237.333 150.541L236.74 150.85C234.163 152.183 231.498 153.423 228.635 153.844C225.551 154.296 222.157 153.661 219.927 151.483L220.074 151.804C220.389 152.503 220.673 153.226 220.683 153.988C220.694 154.867 220.24 155.816 219.407 156.098C218.033 156.563 216.833 155.095 216.12 153.831C215.729 154.804 216.132 155.899 216.524 156.963C216.97 158.177 217.403 159.351 216.626 160.26C215.817 161.207 214.283 160.964 213.17 160.406C209.001 158.315 207.042 153.051 207.945 148.474C208.848 143.898 212.139 140.066 216.057 137.535C213.397 135.585 211.451 132.682 210.658 129.481C210.869 129.753 211.812 128.877 213.152 127.631C215.603 125.353 219.381 121.842 222.433 121.875C223.018 121.881 223.962 122.333 224.887 122.776C225.557 123.097 226.217 123.413 226.722 123.552C226.765 123.498 226.815 123.449 226.874 123.406L226.297 122.991C225.134 122.166 223.921 121.39 222.546 121.048C220.941 120.649 219.041 120.977 218.018 122.277C215.518 125.455 212.35 128.106 208.781 130.006L210.897 133.913C210.022 134.33 208.933 134.254 208.121 133.727L208.021 133.659L208.084 133.737C209.303 135.327 208.232 138.098 206.237 138.413C204.212 139.262 202.171 136.725 202.37 134.538C202.51 133.006 203.269 131.648 204.029 130.287C204.354 129.706 204.679 129.125 204.956 128.53C205.892 126.518 206.304 124.284 206.713 122.064C207.273 119.021 207.829 116.004 209.723 113.626C211.05 111.96 212.909 110.801 214.815 109.851C222.38 106.081 231.332 105.179 239.496 107.366C240.887 102.383 243.644 97.7898 247.386 94.219L247.61 94.0097C249.041 92.6906 250.822 91.5121 252.722 91.7284L252.872 91.7485C254.757 92.0361 256.397 90.5809 257.767 89.234L258.19 88.8192L258.521 88.5003C261.241 85.9025 264.398 83.5049 268.114 83.2463C271.42 83.0162 274.585 84.5341 277.438 86.2192C280.667 88.1257 283.737 90.2989 286.609 92.7091L287.114 93.1369C287.249 93.2523 287.384 93.3686 287.52 93.4855C290.229 95.8119 293.192 98.3574 296.718 98.1465C300.332 97.9302 302.973 94.9297 305.406 92.1647C305.603 91.941 305.799 91.7189 305.993 91.4999C308.995 88.1211 312.413 85.1464 315.872 82.2326L317.356 80.9866C317.805 80.6101 318.288 80.2181 318.869 80.1427C319.687 80.0366 320.432 80.5788 321.078 81.0914ZM255.747 138.366C255.013 138.22 254.011 138.284 252.741 138.558C253.577 138.561 254.281 138.546 254.852 138.513C255.129 138.479 255.405 138.436 255.675 138.381L255.747 138.366ZM228.539 122.188L228.539 122.187C228.807 121.913 229.089 121.623 229.402 121.375L229.404 121.375L229.404 121.374C229.987 121.067 230.644 120.911 231.305 120.974C233.543 121.186 235.239 123.567 234.946 125.796C233.764 128.725 230.84 130.395 227.948 132.048C226.166 133.066 224.397 134.077 223.054 135.371C223.391 134.815 223.76 134.371 224.134 134.099C225.301 133.249 226.522 132.513 227.672 131.819C228.639 131.236 229.557 130.682 230.351 130.117C231.601 129.226 232.441 128.38 233.091 127.725C233.589 127.224 233.976 126.834 234.351 126.62C234.382 126.603 235.793 123.744 232.383 121.875C229.808 120.463 228.661 122.249 228.044 123.208C227.844 123.519 227.7 123.744 227.581 123.744C227.55 123.744 227.507 123.739 227.453 123.729C227.538 123.425 227.668 123.132 227.833 122.856L227.834 122.856L227.834 122.855C228.065 122.673 228.296 122.437 228.539 122.188L228.539 122.188ZM227.834 122.855L227.834 122.856L227.833 122.856L227.749 122.92C227.58 123.043 227.409 123.134 227.233 123.176C226.879 123.259 226.035 122.612 225.32 122.064L225.32 122.064L225.32 122.063C224.893 121.736 224.511 121.443 224.309 121.364C222.972 120.839 222.815 120.832 221.888 120.788L221.888 120.788C221.732 120.78 221.553 120.772 221.343 120.76L220.959 120.736C220.875 120.731 220.782 120.727 220.683 120.723C219.914 120.691 218.809 120.644 219.03 120.047C222.978 109.359 239.851 107.033 237.061 119.115C236.83 120.114 236.225 120.988 235.619 121.863C235.316 122.3 235.014 122.737 234.758 123.19C233.667 121.64 232.479 120.824 231.194 120.74C230.477 120.693 229.902 120.98 229.404 121.374L229.403 121.375L229.402 121.375L229.267 121.45C228.682 121.789 228.18 122.282 227.834 122.855ZM259.872 111.862L259.875 111.856C258.946 113.621 257.949 115.745 256.884 118.229C257.685 116.022 258.689 113.89 259.872 111.862ZM267.394 113.49L267.265 113.495C266.235 113.538 265.312 113.692 264.494 113.957C263.587 114.251 262.622 114.742 261.599 115.431C263.389 114.439 265.368 113.776 267.394 113.49Z" fill="white"/>
<path fill-rule="evenodd" clip-rule="evenodd" d="M214.748 158.252C213.94 159.199 212.767 158.894 211.693 157.847C209.445 155.655 208.542 151.427 209.445 146.851C210.348 142.275 213.869 140.389 217.787 137.858C216.029 137.134 212.844 132.543 212.524 128.081C213.608 129.479 213.665 131.989 214.748 133.387C215.777 134.714 217.832 136.33 218.86 137.657C218.992 137.826 219.105 138.111 218.918 138.217C215.162 140.35 212.728 141.056 210.513 146.851C208.297 152.645 212.795 158.004 213.393 157.847C214.129 157.652 213.868 156.675 213.445 156.042C212.253 154.255 213.387 151.873 214.36 149.958C214.879 150.541 213.63 152.213 213.893 153.951C214.15 155.648 215.468 157.41 214.748 158.252Z" fill="#E7EAEE"/>
<ellipse cx="230.067" cy="139.067" rx="0.933327" ry="0.933334" fill="#FFB61D"/>
<ellipse cx="226.801" cy="135.333" rx="0.933327" ry="0.933334" fill="#FFB61D"/>
<path d="M87.2251 144.499C87.7646 145.507 86.9164 146.947 85.774 146.963C84.7956 141.463 83.7407 135.772 80.5571 131.182C74.4613 122.393 61.8998 119.506 56.6808 110.17C53.1272 112.699 47.6935 112.054 44.8305 108.764C43.05 106.717 39.9463 106.466 37.2724 106.922C34.5985 107.379 31.9861 108.388 29.2749 108.303C28.0984 108.265 26.8166 107.949 26.1319 106.992C25.4472 106.034 25.8428 104.349 27.008 104.182C32.0841 103.456 37.1603 102.729 42.2364 102.003C42.635 101.946 43.0581 101.878 43.3607 101.612C43.7031 101.311 43.8106 100.831 43.8994 100.384C44.6343 96.6856 45.1638 92.2766 42.4404 89.6686C40.1834 87.5071 36.6211 87.5817 33.5547 88.1847C30.4883 88.7877 27.3281 89.7799 24.3062 88.9836C21.2842 88.1874 18.757 84.5976 20.3861 81.9307C21.4772 80.1445 20.2469 77.7623 18.5638 76.518C16.8807 75.2737 14.7861 74.6608 13.1547 73.3494C11.5233 72.038 10.488 69.5077 11.7874 67.8668C12.3589 67.1451 13.2538 66.7649 14.1317 66.4879C17.0372 65.5714 20.277 65.5015 23.0777 66.7007C25.8785 67.8999 28.1529 70.4702 28.6087 73.4826C28.98 75.9368 28.2744 78.7919 29.8968 80.6703C32.0179 83.1263 35.9383 81.7488 39.1833 81.7192C42.5022 81.689 45.7841 83.4486 47.5957 86.2297C49.4072 89.0107 49.6902 92.7239 48.3211 95.7474C52.1762 91.825 57.3685 88.816 62.8644 89.0209C67.9407 89.2101 72.605 92.13 76.0001 95.9086C79.3952 99.6872 81.7113 104.289 83.9823 108.833C84.8284 110.526 86.9746 111.443 88.7829 110.885C90.5913 110.327 91.8472 108.36 91.5922 106.485C93.1682 106.828 93.3324 108.959 93.3809 110.571C93.483 113.959 94.7096 117.303 96.8222 119.953C97.5289 118.649 98.0681 117.255 98.4223 115.815C99.9643 117.588 100.54 120.154 99.9023 122.415C99.2649 124.676 97.4343 126.564 95.1936 127.271C94.0011 127.647 92.5432 127.828 91.9514 128.929C94.1874 132.844 96.1106 136.938 97.6967 141.159C98.5473 143.422 99.1609 146.335 97.3707 147.96C95.3009 146.431 94.1247 144.008 93.0265 141.681C91.3136 138.052 89.6006 134.422 87.8876 130.793" fill="white"/>
<path fill-rule="evenodd" clip-rule="evenodd" d="M92.875 108.17C92.4253 112.565 94.0702 117.128 97.2206 120.225C98.344 119.547 99.0622 118.246 99.0374 116.934C100.218 118.876 99.5566 121.508 98.0886 123.242C96.6206 124.976 94.5143 126.015 92.4705 127.008C91.2994 127.576 90.0836 128.156 88.7824 128.195C86.7973 128.254 85.0187 127.061 83.3956 125.916L78.6334 122.558C81.0937 127.15 86.6941 129.823 91.8112 128.849C95.3697 133.841 97.5487 139.806 98.0456 145.917L97.089 144.15C97.0802 144.128 97.0687 144.106 97.0542 144.085L97.089 144.15C97.2265 144.488 96.6889 144.863 96.327 144.688C95.9419 144.502 95.7966 144.038 95.6829 143.626C94.2819 138.546 91.7712 133.775 88.3774 129.743L93.5164 140.631C94.6145 142.958 95.7907 145.382 97.8605 146.91C99.6508 145.285 99.0371 142.373 98.1866 140.109C96.6004 135.889 94.6772 131.795 92.4412 127.879C92.9218 126.985 93.9735 126.698 94.9904 126.42C95.2258 126.356 95.4593 126.292 95.6834 126.221C97.9241 125.515 99.7547 123.627 100.392 121.365C101.029 119.104 100.454 116.538 98.9121 114.765C98.5579 116.205 98.0187 117.599 97.312 118.903C95.1994 116.253 93.9728 112.909 93.8707 109.521C93.8222 107.909 93.658 105.779 92.082 105.435C92.337 107.31 91.0811 109.278 89.2727 109.836C87.4644 110.394 85.3182 109.476 84.4721 107.783C82.2011 103.24 79.885 98.6375 76.4899 94.8589C73.0948 91.0803 68.4305 88.1604 63.3542 87.9712C57.8583 87.7663 52.666 90.7753 48.8109 94.6977C50.18 91.6742 49.897 87.9611 48.0855 85.18C46.2739 82.399 42.992 80.6393 39.6731 80.6695C38.8312 80.6772 37.9439 80.7756 37.0543 80.8742C34.515 81.1558 31.9574 81.4394 30.3866 79.6206C29.2772 78.3361 29.2563 76.5948 29.2353 74.8373V74.8373C29.2256 74.0248 29.2159 73.2088 29.0985 72.4329C28.6427 69.4205 26.3683 66.8502 23.5675 65.651C20.7668 64.4518 17.527 64.5217 14.6215 65.4383C13.7436 65.7152 12.8487 66.0954 12.2772 66.8171C10.9778 68.458 12.0132 70.9884 13.6445 72.2997C14.5031 72.9899 15.49 73.4866 16.4777 73.9837C17.3667 74.4311 18.2563 74.8789 19.0536 75.4683C20.7367 76.7126 21.967 79.0948 20.8759 80.881C19.2468 83.5479 21.774 87.1377 24.796 87.9339C27.294 88.5921 29.8866 88.0283 32.4426 87.4724L32.4428 87.4723C32.9787 87.3558 33.513 87.2395 34.0445 87.135C37.1109 86.532 40.6732 86.4574 42.9302 88.6189C45.6536 91.2269 45.1241 95.6359 44.3892 99.3343C44.3004 99.7812 44.1929 100.262 43.8505 100.562C43.5479 100.828 43.1248 100.896 42.7262 100.953L27.4978 103.133C26.3326 103.299 25.937 104.984 26.6217 105.942C27.3064 106.899 28.5882 107.216 29.7647 107.253C31.5635 107.31 33.3188 106.885 35.0774 106.459L35.0775 106.459L35.0776 106.459C35.9696 106.243 36.8624 106.026 37.7622 105.873C40.4361 105.416 43.5398 105.667 45.3203 107.714C48.1833 111.004 53.617 111.649 57.1706 109.12C59.9169 114.033 64.6963 117.16 69.4968 120.301C73.8192 123.129 78.1588 125.968 81.0469 130.132C84.2305 134.722 85.2854 140.413 86.2638 145.913C87.4062 145.897 88.2544 144.457 87.7149 143.45L86.6414 144.866C86.245 136.197 81.8178 127.797 74.8915 122.57C73.1763 121.275 71.2954 120.141 69.4184 119.008L69.4184 119.008C65.2941 116.52 61.1894 114.044 58.9057 109.911C58.7001 109.539 58.5086 109.145 58.4753 108.721C58.4331 108.185 58.6469 107.668 58.8533 107.169L58.8533 107.169L58.8827 107.097C59.7059 105.1 60.2809 102.909 59.8766 100.787C59.4722 98.6653 57.8748 96.6589 55.7385 96.3396C59.3546 98.6525 60.0958 104.393 57.186 107.548C54.2762 110.704 48.4949 110.43 45.8969 107.013C43.8148 104.274 39.6513 104.61 36.3 105.386C32.9487 106.163 29.0021 106.976 26.4133 104.71C31.952 103.187 37.6514 102.25 43.3861 101.918C44.7522 101.839 45.2881 100.135 45.4721 98.7786C45.755 96.6941 46.0379 94.5761 45.728 92.4954C45.4181 90.4148 44.4291 88.3392 42.6635 87.1956C40.5433 85.8223 37.8062 86.0352 35.2938 86.298L28.6172 86.9966C27.1786 87.1471 25.7001 87.2947 24.3053 86.9117C22.9104 86.5286 21.598 85.4886 21.3306 84.0671C21.1617 83.1693 21.4187 82.2851 21.6778 81.3938C21.8644 80.7521 22.052 80.1067 22.0826 79.4498C22.1697 77.5791 20.9613 75.865 19.4928 74.7029C18.5931 73.9908 17.5906 73.4305 16.5872 72.8697L16.5872 72.8697C15.9529 72.5151 15.3182 72.1604 14.7088 71.767C13.5619 71.0265 12.385 69.83 12.7039 68.5025C12.9079 67.6536 13.6761 67.0651 14.4484 66.658C17.0561 65.2834 20.3156 65.2216 22.9735 66.4963C25.6314 67.7711 27.6236 70.3516 28.184 73.2457C28.3222 73.9596 28.385 74.7052 28.4477 75.4494C28.5928 77.1707 28.7371 78.884 29.8126 80.1773C31.0973 81.7221 33.3176 82.1113 35.3246 82.0156C36.0126 81.9829 36.7004 81.9058 37.3878 81.8288L37.3879 81.8288L37.3879 81.8288L37.388 81.8288L37.3881 81.8288L37.3881 81.8288L37.3882 81.8288C38.7059 81.6812 40.0214 81.5339 41.3314 81.6989C45.7364 82.2536 49.207 86.8369 48.5467 91.2273C48.5102 91.47 48.4632 91.715 48.4161 91.9606L48.4161 91.9607C48.248 92.8365 48.0783 93.7208 48.3774 94.5434C48.7605 95.5968 50.436 96.1577 50.9669 95.1706C53.3457 90.7473 58.8015 88.5187 63.7898 89.1029C68.7781 89.6871 73.2422 92.6907 76.5172 96.4984C79.7921 100.306 82.0199 104.888 84.0518 109.481C84.7674 111.099 86.8982 111.685 88.6004 111.204C90.3027 110.722 91.6535 109.45 92.875 108.17ZM84.2658 116.423L84.2658 116.423C84.6822 117.238 85.4436 118.729 86.4476 119.182C86.403 119.605 85.7388 119.378 85.4626 119.056C84.6775 118.138 83.8445 117.083 83.9361 115.879C83.9844 115.873 84.0966 116.092 84.2657 116.423L84.2658 116.423ZM86.3057 123.119C86.8239 123.879 83.7204 124.257 82.6888 123.594C82.8705 123.559 83.1099 123.578 83.3749 123.598C83.6893 123.623 84.0398 123.65 84.3729 123.594C84.8607 123.512 85.3317 123.362 85.6872 123.249C86.0321 123.14 86.2683 123.064 86.3057 123.119ZM85.5612 120.297C84.3259 120.509 82.8081 118.864 82.8081 117.316C83.1641 118.46 84.4291 119.368 85.1282 119.869C85.4838 120.125 85.6929 120.275 85.5612 120.297ZM89.9876 126.768C88.3421 126.768 87.5963 123.994 88.3421 123.816C88.5206 123.735 88.529 123.983 88.5414 124.35C88.5544 124.736 88.5719 125.253 88.7962 125.655C89.0454 126.102 89.5731 126.401 89.8811 126.576C90.1139 126.708 90.2212 126.768 89.9876 126.768ZM91.8203 122.99C92.1816 123.189 92.5112 123.498 92.6047 123.9C92.6981 124.301 92.4736 124.788 92.0698 124.872C91.9433 124.686 92.0118 124.568 92.0841 124.443C92.1904 124.26 92.3046 124.063 91.8203 123.617C91.6164 123.429 91.379 123.347 91.2125 123.29C91.0843 123.246 90.9981 123.216 91.0014 123.164C91.0223 122.83 91.5274 122.829 91.8203 122.99ZM88.7403 119.375C88.6588 119.431 88.6028 119.47 88.6508 119.515C88.7996 119.653 88.9745 119.719 89.1493 119.619C89.2826 119.542 89.3502 119.387 89.3816 119.236C89.5572 118.396 88.6695 117.528 87.833 117.722C87.9072 117.918 88.0493 117.98 88.2219 118.056C88.4209 118.144 88.6605 118.249 88.8829 118.598C89.1828 119.067 88.9077 119.258 88.7403 119.375ZM88.4592 127.299C87.4903 127.017 86.5322 124.729 87.048 124.556C87.3697 124.448 87.3679 124.465 87.3492 124.646C87.332 124.812 87.3007 125.115 87.4903 125.584C87.7257 126.167 88.0554 126.641 88.2654 126.942C88.4093 127.148 88.4969 127.274 88.4592 127.299ZM310.369 75.3517C308.289 75.6071 306.65 77.2847 305.616 79.1077C305.116 79.9891 304.716 80.9219 304.316 81.8545L304.316 81.8547C303.889 82.8508 303.462 83.8468 302.913 84.7798C300.296 89.2309 295.323 91.664 290.557 93.6524C289.736 93.9952 288.296 93.834 288.552 92.9813C296.355 91.5008 303.072 85.3234 305.199 77.6719C305.449 76.7705 304.277 76.0098 303.372 76.2481C302.553 76.4638 301.971 77.1465 301.445 77.8239L301.28 78.0371C296.934 83.6898 290.695 88.4688 283.572 88.7774C283.068 88.7992 282.346 88.4916 282.568 88.0382C287.844 87.8613 292.818 85.2572 296.736 81.7188C300.653 78.1804 303.641 73.7453 306.436 69.2668C306.868 68.5741 307.906 68.7221 308.679 68.9857C311.05 69.7944 313.326 70.8853 315.441 72.2279C316.577 72.9487 315.677 74.8719 314.386 75.249C313.644 75.4657 312.869 75.4131 312.091 75.3603C311.515 75.3212 310.937 75.282 310.369 75.3517ZM308.343 70.9406L308.16 70.8855C307.605 70.7263 306.986 70.638 306.539 70.9825C306.366 71.116 306.242 71.3004 306.128 71.4885L304.643 73.9922C305.423 74.1725 306.17 74.4918 306.839 74.9306C307.385 75.2891 308.138 75.3029 308.697 74.9646C309.256 74.6263 309.594 73.953 309.53 73.3026C309.506 73.0599 309.904 72.9939 310.07 73.1724C310.194 73.3058 310.231 73.4887 310.268 73.6709L310.268 73.6716C310.281 73.7331 310.293 73.7945 310.309 73.8539C310.371 74.0895 310.564 74.3433 310.803 74.2948C311.045 74.0646 311.177 73.7235 311.154 73.3901C311.241 73.0461 311.778 73.3528 311.861 73.6977C311.944 74.0426 312.099 74.5332 312.442 74.441C312.946 74.3166 313.104 73.6152 312.859 73.1581C312.613 72.701 312.119 72.4426 311.649 72.2245C310.575 71.7272 309.47 71.2981 308.343 70.9406ZM303.83 75.011C304.605 75.7911 305.733 76.2062 306.829 76.1147C306.157 75.2687 305.014 74.8268 303.948 74.9903L303.83 75.011ZM248.326 152.712C244.595 153.767 240.381 152.935 237.332 150.541C234.572 151.988 231.718 153.391 228.634 153.844C225.551 154.296 222.156 153.661 219.927 151.483C220.295 152.281 220.67 153.109 220.682 153.988C220.694 154.867 220.239 155.816 219.406 156.098C218.032 156.563 216.832 155.095 216.119 153.831C215.728 154.804 216.131 155.899 216.523 156.963C216.97 158.177 217.402 159.351 216.625 160.26C215.816 161.207 214.282 160.964 213.169 160.406C209 158.315 207.041 153.051 207.944 148.474C208.847 143.898 212.138 140.066 216.056 137.535C213.396 135.585 211.45 132.682 210.657 129.481C211.199 130.18 211.601 130.992 212.003 131.804L212.003 131.804L212.003 131.804C212.405 132.617 212.806 133.429 213.348 134.128C213.863 134.792 214.517 135.342 215.171 135.893L215.171 135.893C215.825 136.443 216.479 136.993 216.994 137.657C217.125 137.826 217.238 138.111 217.052 138.217C213.295 140.35 210.082 143.75 209.017 147.936C207.951 152.123 209.434 157.064 213.112 159.329C213.761 159.728 214.534 160.049 215.27 159.854C216.006 159.66 216.558 158.736 216.135 158.102C214.943 156.316 214.798 153.881 215.77 151.965L218.852 155.422C219.561 155.239 219.736 154.286 219.548 153.579C219.488 153.355 219.406 153.134 219.324 152.913L219.324 152.913C219.148 152.437 218.973 151.963 219.02 151.466C219.089 150.737 220.04 150.085 220.542 150.618C222.547 152.742 225.767 153.345 228.651 152.877C231.534 152.409 234.175 151.025 236.758 149.661L239.806 148.052C239.587 148.931 238.874 149.669 238.003 149.92C240.945 152.034 244.88 152.698 248.354 151.667C248.952 151.49 249.567 151.244 249.955 150.755C250.343 150.266 250.406 149.471 249.937 149.059C249.88 149.009 249.816 148.965 249.752 148.921C249.626 148.834 249.502 148.748 249.43 148.616C249.322 148.418 249.49 148.084 249.697 148.175C250.87 148.093 251.594 149.67 251.116 150.745C250.638 151.82 249.458 152.392 248.326 152.712ZM227.498 137.109C226.828 136.894 226.076 137.356 225.785 137.997C225.494 138.638 225.576 139.391 225.797 140.06C225.867 139.306 225.963 138.737 226.248 138.241C226.371 138.027 226.752 137.826 227.087 137.648C227.52 137.419 227.876 137.231 227.498 137.109ZM226.93 135.214C227.908 134.971 229.012 135.347 229.637 136.137C230.263 136.927 230.376 138.088 229.914 138.984C229.804 138.85 229.777 138.607 229.745 138.303C229.648 137.404 229.493 135.968 226.93 135.214ZM226.082 142.159C225.773 142.545 226.85 143.566 228.536 142.862C228.848 142.732 228.593 142.717 228.191 142.693C227.825 142.672 227.337 142.643 227.046 142.513C226.799 142.403 226.673 142.227 226.579 142.095C226.439 141.9 226.368 141.802 226.082 142.159ZM229.497 143.451C230.576 142.913 229.899 144.49 227.64 144.297C227.436 144.279 227.17 144.201 227.172 143.995C227.173 143.923 227.364 143.907 227.661 143.881C228.122 143.841 228.84 143.778 229.497 143.451ZM222.834 140.457C223.24 140.854 223.832 140.864 224.226 140.788C224.467 140.741 224.585 140.526 224.364 140.457C224.313 140.44 224.227 140.427 224.125 140.411C223.89 140.374 223.566 140.323 223.348 140.191C223.209 140.107 223.129 139.82 223.061 139.573C222.991 139.32 222.932 139.11 222.834 139.209C222.638 139.403 222.427 140.06 222.834 140.457ZM223.194 141.799C223.39 142.099 222.641 141.996 222.48 141.799C222.319 141.603 222.16 140.864 222.43 140.864C222.508 140.864 222.535 140.981 222.567 141.12C222.597 141.249 222.631 141.397 222.714 141.492C222.876 141.675 222.984 141.702 223.064 141.722C223.118 141.736 223.159 141.746 223.194 141.799ZM256.897 140.313C257.3 141.12 256.593 142.025 255.912 142.617C253.142 145.022 249.831 146.801 246.296 147.784C250.106 147.809 253.898 146.179 256.5 143.397C257.711 142.102 258.485 139.672 256.923 138.835C258.777 138.221 260.972 136.938 260.689 135.005C260.588 134.315 260.166 133.72 259.756 133.155L259.513 132.821C256.982 129.363 253.887 125.706 249.644 125.448C252.086 124.078 254.995 126.024 257.148 127.815L257.779 128.337C260.63 130.681 263.612 132.91 266.993 134.375C270.624 135.949 274.799 136.578 278.566 135.364L289.108 131.967C291.142 131.294 293.538 130.029 293.353 127.916C293.251 126.751 292.189 125.75 291.021 125.718C289.852 125.685 288.736 126.626 288.57 127.783L288.341 125.984C287.775 125.501 286.874 125.915 286.419 126.504C286.247 126.726 286.104 126.972 285.961 127.218C285.725 127.621 285.491 128.022 285.134 128.315C283.89 129.332 282.236 128.496 280.752 127.617L279.826 127.064C277.188 125.514 274.061 125.276 270.974 125.042C270.307 124.991 269.642 124.941 268.984 124.877C264.68 124.461 260.438 123.413 256.436 121.776C260.106 124.785 264.901 125.291 269.739 125.8C272.176 126.057 274.625 126.315 276.945 126.895C278.786 127.355 280.82 128.293 281.271 130.136C281.927 132.811 278.749 134.884 276.006 135.134C271.519 135.543 267.147 133.635 263.338 131.2L262.909 130.922C261.531 130.017 260.195 129.044 258.859 128.071L258.859 128.07C256.408 126.285 253.96 124.501 251.255 123.145C254.049 123.285 256.089 121.263 258.173 119.196C259.297 118.082 260.434 116.955 261.709 116.148C265.455 113.776 270.238 114.316 274.646 115.078L275.339 115.199C274.302 110.177 271.769 105.474 268.147 101.844L274.371 114.079C267.818 111.896 259.96 114.624 256.169 120.398C259.095 110.524 266.055 101.912 275.095 96.9788C278.008 98.0685 280.468 100.013 282.924 101.954L282.926 101.956L282.927 101.956L282.927 101.956C283.719 102.582 284.511 103.208 285.317 103.804C288.624 106.251 292.646 108.324 296.695 107.596C299.607 107.072 302.056 105.179 304.232 103.154L304.583 102.825C307.174 100.368 309.582 97.7183 311.782 94.9056C314.189 91.8277 317.148 88.1732 321.028 88.6319C321.713 88.7129 322.379 88.9267 323.043 89.1397C323.961 89.434 324.873 89.7269 325.825 89.6656C327.465 89.5601 328.972 87.3581 327.685 86.3363L321.077 81.0914C320.432 80.5788 319.686 80.0366 318.869 80.1427C318.288 80.2181 317.804 80.6101 317.355 80.9865L315.871 82.2326C312.412 85.1464 308.994 88.1211 305.992 91.4999C305.803 91.7136 305.612 91.9304 305.42 92.1486L305.411 92.1585L305.406 92.1647C302.972 94.9297 300.332 97.9302 296.717 98.1465C293.191 98.3574 290.228 95.8119 287.52 93.4855C287.384 93.3686 287.248 93.2523 287.113 93.1369L286.609 92.7091C283.737 90.2989 280.666 88.1257 277.437 86.2192C274.584 84.5341 271.42 83.0162 268.114 83.2463C264.246 83.5155 260.983 86.1017 258.189 88.8192L257.766 89.234C256.396 90.5809 254.757 92.0361 252.871 91.7484L252.721 91.7284C250.822 91.5121 249.041 92.6906 247.609 94.0097L247.386 94.219C243.643 97.7898 240.886 102.383 239.496 107.366C231.331 105.179 222.379 106.081 214.814 109.851C212.908 110.801 211.05 111.96 209.723 113.626C207.828 116.004 207.272 119.021 206.712 122.064C206.303 124.284 205.891 126.518 204.955 128.53C204.678 129.125 204.353 129.706 204.029 130.287C203.268 131.648 202.509 133.006 202.369 134.538C202.17 136.725 204.212 139.262 206.236 138.413C208.264 138.093 209.337 135.234 208.02 133.659C208.841 134.247 209.985 134.348 210.896 133.913L208.78 130.006C212.35 128.106 215.517 125.455 218.018 122.277C219.04 120.977 220.94 120.649 222.545 121.048C223.921 121.39 225.134 122.166 226.296 122.991L226.873 123.406C226.2 123.896 226.588 125.197 227.419 125.238C226.883 123.054 229.066 120.761 231.305 120.974C233.543 121.186 235.238 123.567 234.945 125.796C233.764 128.725 230.839 130.396 227.947 132.048C224.809 133.841 221.708 135.612 220.913 138.945C220.111 142.302 222.701 146.062 226.123 146.511C229.545 146.96 233.017 143.995 233.108 140.545C233.108 140.545 233.614 140.597 233.794 140.06C234.076 139.213 234.344 138.276 234.609 137.347C235.107 135.6 235.597 133.883 236.163 132.857C237.75 129.981 240.703 127.703 243.987 127.624C245.03 127.599 246.067 127.444 247.102 127.29C248.424 127.092 249.745 126.895 251.075 126.968C253.448 127.099 256.049 128.488 256.391 130.84C253.76 130.329 251.015 130.415 248.421 131.09L257.604 132.182C259.62 132.422 259.998 135.544 258.56 136.979C257.205 138.332 255.141 138.554 253.208 138.64L252.859 138.655C253.196 139.344 254.036 139.415 254.876 139.486C255.715 139.557 256.554 139.629 256.897 140.313ZM305.744 100.185C302.897 103.346 299.569 106.743 295.318 106.902C291.601 107.04 288.349 104.645 285.342 102.429L285.12 102.265L284.402 101.741C281.042 99.3034 277.562 97.0315 273.978 94.9363C271.203 93.3137 268.012 91.7464 264.9 92.5511L269.827 94.1018C268.996 94.5473 268.7 95.7598 269.232 96.5381C269.346 95.3729 270.694 94.6319 271.85 94.8141C273.007 94.9963 273.948 95.8454 274.664 96.7715C268.453 99.1532 263.169 103.868 260.097 109.769C259.526 110.866 259.029 112.002 258.533 113.136C257.859 114.674 257.187 116.211 256.33 117.652C254.84 120.157 252.635 122.436 249.798 123.099C249.4 123.192 248.993 123.253 248.586 123.314L248.586 123.314C247.771 123.436 246.957 123.558 246.232 123.936C246.183 123.961 246.134 123.987 246.083 124.014L245.981 124.068L245.979 124.07C245.127 124.525 244.077 125.085 243.552 124.346C242.692 123.134 241.321 122.298 239.85 122.089C242.282 113.917 248.539 106.973 256.414 103.706C256.86 103.521 256.689 102.854 256.446 102.438L252.864 96.3084C252.533 95.7423 252.92 94.9724 253.503 94.672C254.086 94.3717 254.781 94.4168 255.432 94.4978C259.575 95.0138 263.564 96.714 266.806 99.3455C267.325 99.7664 268.174 100.18 268.554 99.63C264.855 95.9003 259.565 94.171 254.359 93.4741C258.86 93.0343 263.513 94.4514 267.004 97.3248L267.174 97.4639C268.008 98.141 269.018 98.8607 269.979 98.4455C266.081 94.7058 260.749 92.4987 255.348 92.3883C256.46 91.5617 257.497 90.6429 258.535 89.7241C259.59 88.7905 260.644 87.857 261.776 87.0202C264.021 85.36 266.705 84.0637 269.493 84.2265C271.517 84.3447 273.415 85.2181 275.205 86.1688C278.99 88.1785 282.554 90.6043 285.812 93.3885C286.043 93.5856 286.275 93.7856 286.509 93.987C289.605 96.6554 292.983 99.5665 296.985 99.1904C299.426 98.9611 301.588 97.4868 303.306 95.738C304.256 94.7705 305.103 93.7109 305.951 92.651L305.951 92.6505C306.636 91.7947 307.32 90.9388 308.059 90.1309C309.125 88.9655 310.36 87.8696 311.875 87.4246C313.391 86.9797 315.238 87.3481 316.138 88.6459L305.744 100.185ZM207.665 121.833C208.214 118.829 208.757 115.859 210.787 113.673C211.781 112.602 213.052 111.831 214.347 111.154C220.969 107.69 228.693 106.371 236.089 107.442C237.899 107.704 240.142 108.719 240.113 110.438C240.102 110.543 240.092 110.648 240.083 110.753C240.101 110.646 240.111 110.541 240.113 110.438C240.851 103.252 245.036 96.4916 251.151 92.6417C251.693 96.4233 253.35 100.038 255.861 102.918C249.207 105.72 243.682 111.109 240.715 117.69L240.668 117.794C239.825 119.639 238.488 121.905 236.536 121.446L237.502 115.474C237.591 114.927 237.673 114.334 237.413 113.843C237.123 113.296 236.504 113.044 235.899 112.862L235.687 112.8C232.189 111.81 228.264 110.859 225.068 112.594C223.378 113.513 222.165 115.051 221.03 116.631L220.188 117.814C218.188 120.606 215.949 123.227 213.504 125.638C212.519 126.609 211.454 127.574 210.136 127.992C208.817 128.41 207.179 128.129 206.397 126.988C207.021 125.358 207.344 123.59 207.665 121.833ZM229.227 145.102C227.15 145.872 225.46 145.492 223.838 144.548C223.144 144.144 222.491 143.624 222.1 142.923C221.514 141.871 221.602 140.565 221.94 139.409C222.445 137.682 223.479 136.112 224.867 134.966C225.827 134.174 226.932 133.592 228.037 133.011C228.418 132.81 228.799 132.609 229.175 132.4C232.839 130.356 236 127.417 238.304 123.911C238.764 123.211 239.734 122.984 240.545 123.191C241.357 123.398 242.033 123.954 242.619 124.553C243.037 124.981 243.348 125.834 242.789 126.05C238.877 127.565 235.726 130.926 234.467 134.928C234.433 135.038 234.4 135.148 234.366 135.258C234.175 135.891 233.981 136.532 233.571 137.044C233.089 137.646 232.121 139.764 232.615 140.769C232.615 140.769 231.305 144.331 229.227 145.102ZM234.656 113.398C235.29 113.541 235.98 113.745 236.328 114.294C236.612 114.743 236.594 115.314 236.55 115.844C236.373 117.94 235.932 120.015 235.241 122.002C235.124 122.338 234.764 122.741 234.501 122.502C234.202 120.998 232.828 119.775 231.299 119.653C229.771 119.532 228.22 120.523 227.688 121.961C227.583 122.245 227.215 122.351 226.922 122.272C226.703 122.214 226.516 122.081 226.337 121.938L226.159 121.794C224.338 120.314 221.873 119.657 219.557 120.034C220.791 117.958 222.356 116.079 224.175 114.49C224.92 113.84 225.727 113.227 226.668 112.922C227.553 112.635 228.503 112.638 229.432 112.685C231.189 112.774 232.939 113.013 234.656 113.398ZM317.698 86.9742C316.813 86.0304 315.599 85.399 314.317 85.2195L315.772 83.3723C316.233 82.7932 316.772 82.1991 317.499 82.1077C318.024 82.0418 318.54 82.2571 319.017 82.4846C320.615 83.2458 322.121 84.1993 323.492 85.3179C323.949 85.6912 324.41 86.1078 324.609 86.6638C324.807 87.2199 324.647 87.9477 324.114 88.2021C323.581 88.4564 322.814 87.8993 323.032 87.3507L323.053 87.2892C323.143 86.9773 323.002 86.6088 322.719 86.4446L322.205 87.4318C322.157 87.5181 322.102 87.6016 322.017 87.6485C321.673 87.8385 321.394 87.3043 321.372 86.9123L321.368 86.858C321.331 86.472 321.129 85.9796 320.774 86.0998C320.726 86.7611 320.253 87.3719 319.625 87.5838C318.996 87.7958 318.25 87.5962 317.811 87.099L317.698 86.9742ZM206.808 135.704L206.186 133.346C205.891 133.264 205.603 133.56 205.561 133.864C205.533 134.066 205.578 134.267 205.638 134.464L205.734 134.759C206.054 135.76 206.046 136.862 205.712 137.858C205.096 136.597 204.774 135.193 204.78 133.789C204.378 133.569 204.105 134.242 204.134 134.699L204.307 137.429C203.465 136.67 203.168 135.438 203.312 134.313C203.456 133.188 203.984 132.149 204.578 131.183C204.888 130.679 205.231 130.173 205.724 129.846C206.217 129.518 206.896 129.406 207.4 129.717C207.818 129.976 208.012 130.435 208.209 130.9C208.358 131.252 208.509 131.607 208.759 131.883C208.847 131.98 208.951 132.08 209.056 132.181C209.463 132.574 209.898 132.993 209.613 133.416C208.737 132.878 207.935 132.218 207.238 131.462C206.986 133.024 207.217 134.662 207.892 136.094C208.03 136.387 207.574 136.666 207.287 136.516C207 136.366 206.891 136.018 206.808 135.704ZM290.987 127.99C291.436 127.593 291.846 127.229 292.045 127.328C292.624 127.617 291.052 128.885 290.22 129.243C290.28 129.645 290.863 129.465 291.204 129.243C291.544 129.021 292.498 128.783 292.311 129.024C291.148 130.529 288.902 131.724 286.826 131.958C285.985 132.053 284.944 131.828 284.676 131.025C284.431 130.292 284.976 129.569 285.552 129.024L285.69 128.897C285.932 128.68 286.321 128.469 286.544 128.705C287.137 129.333 288.174 128.819 288.858 128.291C288.858 128.291 290.634 126.578 290.931 126.688C291.227 126.797 290.045 128.728 290.045 128.728C290.338 128.564 290.672 128.268 290.987 127.99ZM282.486 129.58C282.698 129.532 282.92 129.617 283.103 129.735C283.771 130.164 284.089 131.067 283.839 131.819C283.588 132.572 282.791 133.103 282 133.046C281.888 133.038 281.771 133.016 281.683 132.946C281.498 132.798 281.522 132.515 281.562 132.282L281.86 130.578C281.932 130.167 282.079 129.673 282.486 129.58ZM244.87 125.711C246.014 125.517 247.198 125.565 248.323 125.848C248.258 126.312 247.716 126.523 247.257 126.618C245.841 126.911 244.378 126.974 242.943 126.804C243.302 126.128 244.114 125.838 244.87 125.711ZM316.596 87.9223L313.594 86.1491C315.073 85.928 316.651 86.7052 317.377 88.0126C317.169 88.2026 316.839 88.0656 316.596 87.9223ZM250.801 123.484C249.528 123.821 248.27 124.213 247.031 124.658C248.318 125.37 250.145 124.801 250.801 123.484ZM238.359 121.875C238.709 121.947 238.55 122.498 238.271 122.722C237.42 123.401 236.127 123.46 235.218 122.86L238.359 121.875ZM318.262 80.7442C318.468 80.6954 318.68 80.7788 318.873 80.8659C320.127 81.4322 321.276 82.2309 322.243 83.2094L317.928 81.0061C317.995 80.8762 318.12 80.7779 318.262 80.7442ZM252.523 92.6471L252.566 92.6769C252.955 92.6209 253.357 92.6538 253.732 92.7725C253.405 93.3912 252.949 93.9416 252.403 94.3789C252.129 93.8366 252.177 93.1464 252.523 92.6471ZM326.36 86.593L326.369 86.6203C326.846 86.814 327.17 87.3311 327.137 87.8447C326.155 87.3354 325.361 86.4738 324.932 85.4539C325.519 85.6571 326.032 86.0663 326.36 86.593ZM237.02 124.254L236.948 124.352C236.7 124.69 236.403 125.057 235.986 125.105C235.57 125.154 235.142 124.614 235.436 124.315C235.93 124.093 236.51 124.071 237.02 124.254ZM207.489 128.441C207.861 128.528 208.281 128.799 208.222 129.177C207.37 129.065 206.53 128.868 205.717 128.59C206.273 128.357 206.902 128.304 207.489 128.441ZM286.626 128.369C286.433 128.453 286.257 128.099 286.441 127.996C286.441 127.996 287.712 125.768 287.767 127.328C287.794 127.717 286.973 128.192 286.626 128.369ZM232.938 139.81C233.032 139.134 233.21 137.858 233.571 137.858C234.083 137.804 233.886 138.676 233.747 139.291L233.747 139.291L233.747 139.293C233.709 139.461 233.675 139.61 233.662 139.715C233.615 140.084 233.271 140.374 232.876 140.196C232.891 140.142 232.911 140 232.938 139.81L232.938 139.81ZM113.84 163.193C116.446 163.418 119.063 163.526 121.679 163.515C121.493 165.975 123.494 168.398 125.944 168.68C128.395 168.963 130.894 167.06 131.273 164.622C131.425 163.643 132.75 163.472 133.738 163.549L140.025 164.039C141.103 164.123 142.628 163.783 142.512 162.709L141.8 156.124C141.735 155.53 141.943 154.665 142.528 154.782C145.024 155.283 147.75 153.37 148.092 150.848C148.434 148.326 146.277 145.741 143.733 145.661C142.511 145.623 141.929 144.024 142.247 142.843C142.417 142.208 142.741 141.633 143.066 141.057C143.345 140.562 143.624 140.066 143.807 139.531C144.202 138.373 143.87 136.76 142.68 136.481C133.637 134.361 124.144 134.181 115.027 135.957L114.86 135.99C114.359 136.091 113.856 136.215 113.422 136.484C111.998 137.365 111.889 139.309 111.958 141.023L112.005 141.976C112.255 147.505 111.82 153.065 110.712 158.487L110.687 158.61C110.439 159.846 110.238 161.259 111.063 162.196C111.675 162.89 112.653 163.076 113.587 163.17L113.84 163.193ZM129.879 164.519C129.952 164.875 129.861 165.246 129.717 165.58L129.672 165.681C128.83 167.458 126.326 168.22 124.647 167.181C122.937 166.122 122.518 163.462 123.82 161.929C120.512 162.325 117.161 162.351 113.848 162.006C112.823 161.899 111.483 161.346 111.693 160.337C113.134 153.396 113.585 146.251 113.026 139.184C112.925 137.904 114.501 137.239 115.764 137.007C123.917 135.51 132.352 135.572 140.482 137.189C141.522 137.395 142.861 138.186 142.4 139.141C141.314 141.389 140.881 143.947 141.164 146.427C141.237 147.06 141.732 147.888 142.284 147.571C143.771 146.717 145.923 147.401 146.643 148.957C147.363 150.514 146.492 152.597 144.878 153.178C143.265 153.758 141.266 152.707 140.829 151.049C140.44 154.464 140.579 157.939 141.24 161.313C141.469 162.482 139.767 162.923 138.578 162.835L129.093 162.128C128.803 162.586 129.101 163.059 129.414 163.557C129.609 163.867 129.811 164.187 129.879 164.519ZM178.96 143.083L197.538 143.457L197.842 143.464C198.4 143.482 198.962 143.531 199.464 143.765C200.6 144.295 201.121 145.602 201.466 146.807C203.309 153.238 203.082 160.245 200.825 166.543L200.73 166.8C200.436 167.575 200.052 168.348 199.359 168.784C198.788 169.143 198.092 169.217 197.415 169.254L197.27 169.261C194.507 169.392 191.735 169.321 188.983 169.05C190.416 168.167 190.778 166.019 189.868 164.603C188.958 163.187 187.035 162.596 185.416 163.056C184.429 163.336 183.51 164.011 183.152 164.972C182.795 165.934 183.14 167.17 184.053 167.639C184.684 167.964 184.575 168.987 184.022 169.432C183.47 169.878 182.702 169.91 181.993 169.921L172.672 170.072C171.971 170.084 171.234 170.087 170.619 169.751C169.747 169.275 169.346 168.25 169.1 167.287C168.507 164.964 168.427 162.511 168.867 160.154C169.397 162.016 171.691 163.146 173.49 162.432C175.288 161.719 176.183 159.323 175.293 157.605C174.403 155.887 171.929 155.236 170.309 156.294L170.242 155.694C170.009 153.589 169.828 151.456 170.233 149.383C170.676 147.113 171.938 144.882 174.009 143.851C175.519 143.098 177.263 143.056 178.96 143.083ZM199.241 145.027C198.775 144.747 198.215 144.699 197.669 144.676L197.533 144.671C191.754 144.455 185.971 144.345 180.188 144.343L178.26 144.346C177.04 144.35 175.781 144.368 174.665 144.859C173 145.592 171.92 147.293 171.48 149.059C171.04 150.825 171.145 152.675 171.254 154.492C174.182 153.685 177.332 156.661 176.985 159.678C176.637 162.696 173.292 164.875 170.311 164.293C170.175 165.246 170.043 166.236 170.322 167.157C170.602 168.079 171.42 168.912 172.382 168.881L181.024 168.603C181.56 168.586 182.299 168.309 182.143 167.797C181.26 164.888 183.808 161.492 186.848 161.526C189.888 161.561 192.358 165.013 191.41 167.901C193.309 168.329 195.284 168.419 197.214 168.165C197.841 168.083 198.496 167.95 198.976 167.539C199.448 167.135 199.68 166.523 199.877 165.933C201.882 159.924 202.102 153.331 200.501 147.201C200.294 146.408 200.007 145.555 199.343 145.093L199.241 145.027ZM117.244 202.256C116.324 196.269 116.325 190.141 117.247 184.155L117.294 183.865C117.523 182.506 117.925 181.072 119.06 180.324C119.91 179.763 120.983 179.721 122.007 179.721L129.845 179.742C130.202 179.743 130.592 179.757 130.861 179.992C131.129 180.227 131.122 180.767 130.778 180.862C129.957 181.09 129.485 182.037 129.585 182.883C129.684 183.729 130.234 184.461 130.88 185.016C132.421 186.341 134.816 186.811 136.521 185.707C138.226 184.603 138.627 181.758 137.011 180.527C140.672 180.453 144.335 180.464 147.996 180.561L149.368 180.602C149.812 180.616 150.303 180.652 150.612 180.97C150.845 181.208 150.922 181.555 150.974 181.884C151.38 184.418 150.936 187.08 149.732 189.346C149.54 189.707 149.096 190.105 148.793 189.83C147.507 188.663 145.344 188.822 144.028 189.956C142.712 191.089 142.203 192.973 142.435 194.694C142.659 196.351 143.867 198.121 145.537 198.037C146.007 198.013 146.497 197.851 146.977 197.692C147.839 197.406 148.67 197.13 149.308 197.685L147.634 205.166C147.337 206.495 146.803 208.071 145.471 208.356C137.783 210.001 129.722 209.877 122.088 207.996L121.718 207.902C120.792 207.66 119.869 207.346 119.146 206.727C117.888 205.65 117.495 203.893 117.244 202.256ZM147.824 199.023C145.649 200.046 142.816 199.168 141.455 197.187C140.094 195.206 140.227 192.375 141.624 190.419C143.02 188.463 145.531 187.424 147.925 187.628L148.125 187.646C148.461 187.674 148.805 187.686 149.09 187.519C149.451 187.306 149.604 186.87 149.705 186.464C150.105 184.843 150.083 183.121 149.641 181.511L139.509 181.585C139.693 184.398 137.378 187.143 134.574 187.435C131.771 187.727 128.94 185.518 128.54 182.728L128.485 182.313C128.425 181.895 128.331 181.481 128.018 181.215C127.799 181.029 127.51 180.955 127.225 180.899L127.119 180.878C124.171 180.321 120.433 180.089 118.886 182.66C118.359 183.535 118.218 184.583 118.111 185.599C117.495 191.432 117.641 197.345 118.545 203.14L118.589 203.411C118.736 204.273 118.966 205.159 119.608 205.738C120.049 206.136 120.628 206.333 121.203 206.495L121.347 206.535C128.698 208.557 136.525 208.827 143.999 207.32L144.414 207.234C144.781 207.157 145.163 207.068 145.452 206.828C145.828 206.515 145.973 206.011 146.098 205.538L147.824 199.023ZM202.504 213.845C202.504 213.845 202.546 212.679 202.693 212.297C202.959 211.605 203.743 210.621 203.743 210.621C203.688 210.887 203.612 211.172 203.533 211.466C203.264 212.474 202.966 213.587 203.418 214.41C203.767 215.045 208.872 218.391 210.627 219.175C218.13 222.528 225.67 225.562 233.246 228.61L233.247 228.611L233.248 228.611L233.249 228.611L233.249 228.612C236.347 229.858 239.45 231.107 242.559 232.381C237.218 231.73 232.3 229.243 227.509 226.796C226.475 232.534 229.672 238.318 233.985 242.24C237.126 245.096 240.824 247.213 244.52 249.33L244.52 249.33L244.521 249.331C245.901 250.121 247.281 250.911 248.631 251.739L249.128 252.047C253.92 255.047 258.504 258.834 260.62 264.058C261.008 265.016 262.2 265.562 263.179 265.229C264.158 264.897 264.771 263.739 264.495 262.742C265.52 263.583 264.929 265.462 263.687 265.927C262.446 266.392 261.023 265.761 260.107 264.803C259.416 264.082 258.935 263.2 258.454 262.32C258.296 262.032 258.139 261.744 257.974 261.461C255.015 256.389 249.789 253.239 244.605 250.356L242.171 249.009C236.544 245.867 230.78 242.093 228.37 236.146C219.621 237.534 210.514 236.592 202.235 233.444C200.464 232.771 198.73 231.999 196.997 231.227L196.997 231.227L196.997 231.227L196.997 231.227L196.996 231.226L196.996 231.226L196.996 231.226C194.235 229.997 191.476 228.768 188.574 227.941C186.956 227.48 184.727 227.431 184.122 229C184.122 228.999 184.121 229 184.121 229L184.119 229.003C184.102 229.034 183.987 229.236 183.471 229.28C183.229 229.301 183.006 228.876 182.938 228.595C182.879 228.516 182.859 228.294 182.859 227.839C182.859 227.593 183.36 226.518 184.302 225.854C184.958 225.391 185.696 225.224 186.082 225.136C186.257 225.096 186.359 225.073 186.351 225.046C186.331 224.984 185.661 224.81 185.052 225.106C184.581 225.334 184.136 225.635 183.727 225.912C183.094 226.34 182.547 226.711 182.126 226.662C181.556 226.596 181.152 226.33 181.146 225.757C181.14 225.183 181.292 224.486 181.734 224.126C182.679 223.356 183.9 222.932 185.119 222.949C185.382 222.953 185.674 222.99 185.846 223.19C186.018 223.39 185.933 223.788 185.67 223.8C184.09 223.871 182.263 224.135 181.648 225.757C181.469 226.228 182.6 226.304 183.037 226.053C183.291 225.907 183.509 225.71 183.727 225.514C183.885 225.372 184.043 225.229 184.214 225.106C184.728 224.736 185.366 224.543 185.999 224.565C186.254 224.574 186.535 224.633 186.685 224.839C186.835 225.045 186.729 225.42 186.474 225.424C184.836 225.451 183.34 226.871 183.229 228.506C183.235 228.567 183.281 228.834 183.471 228.898C183.693 228.973 183.94 228.791 183.95 228.773C184.803 227.25 186.36 226.232 188.034 226.742C188.667 226.935 189.276 227.228 189.882 227.52L189.882 227.52C190.943 228.031 191.995 228.538 193.152 228.495L192.457 224.815C189.644 222.236 185.403 221.326 181.78 222.525C181.392 222.654 180.973 222.84 180.815 223.216C180.656 223.593 181.003 224.14 181.385 223.994C180.785 224.549 179.771 223.607 179.999 222.822C180.228 222.038 181.088 221.634 181.879 221.429C186.318 220.275 190.741 222.286 195.016 224.229L195.017 224.229L195.017 224.229L195.017 224.229L195.017 224.229L195.018 224.23C195.811 224.59 196.599 224.948 197.38 225.283C206.085 229.014 215.92 230.058 225.214 228.237C224.811 229.34 223.436 229.674 222.269 229.805C213.991 230.736 205.488 229.597 197.747 226.519C196.802 227.721 197.252 229.587 198.328 230.673C199.404 231.758 200.926 232.252 202.391 232.69C210.599 235.143 219.301 237.019 227.688 235.274L226.328 227.322L226.301 227.177C226.234 226.859 226.11 226.531 225.814 226.43L225.738 226.405C214.989 222.754 206.796 219.972 196.158 209.831C196.137 209.811 196.116 209.79 196.095 209.769C196.017 212.817 195.05 213.487 191.02 212.656C182.226 210.844 173.222 209.895 164.346 211.142C165.018 207.825 165.858 204.542 166.864 201.31C163.976 202.242 160.566 199.595 160.753 196.566C160.94 193.538 164.649 191.33 167.4 192.609C168.346 190.428 168.406 187.878 167.564 185.655C167.16 184.589 168.77 183.974 169.91 183.973L176.211 183.972C177.092 183.972 178.32 183.563 178.101 182.71C177.582 180.686 178.973 178.375 181.004 177.886C182.998 177.406 185.242 178.771 185.757 180.75L185.784 180.86C186.262 182.985 188.954 183.66 191.131 183.618L192.215 183.592C194.099 183.552 196.061 183.613 197.322 184.931C198.83 186.506 198.493 189.015 197.996 191.154L197.962 191.296C197.72 192.319 197.367 193.149 197.011 193.984C196.334 195.576 195.65 197.184 195.711 200.169C195.735 201.386 195.779 202.503 195.829 203.525C196.004 202.807 196.158 202.332 196.158 202.332C196.158 202.332 216.695 217.624 229.379 219.7C230.899 218.357 230.022 215.74 228.491 214.41C227.846 213.85 227.111 213.397 226.379 212.945L226.378 212.945C225.373 212.324 224.371 211.706 223.608 210.815C222.091 209.045 221.82 206.606 221.552 204.188C221.26 201.558 220.97 198.953 219.086 197.259C218.918 197.107 218.739 196.966 218.56 196.825L218.559 196.825C218.156 196.506 217.753 196.189 217.478 195.759C216.798 194.696 217.133 193.218 217.955 192.262C218.778 191.306 219.982 190.773 221.173 190.357C223.645 189.494 226.355 189.012 228.879 189.707C231.404 190.403 233.665 192.505 233.913 195.111C234.391 194.074 235.443 193.325 236.579 193.211L234.93 194.964L237.017 195.006L234.145 196.61C235.926 199.903 235.637 203.965 234.496 207.531C234.356 207.967 234.204 208.403 234.052 208.841L234.051 208.842L234.051 208.842C233.441 210.592 232.826 212.356 232.984 214.182C233.178 216.428 235.172 218.722 237.351 218.262L237.46 218.237C240.08 217.575 242.949 217.958 245.303 219.285C248.049 220.831 249.918 223.454 251.767 226.049L251.767 226.049L251.767 226.05C252.197 226.652 252.625 227.253 253.063 227.839C255.115 230.583 257.544 233.136 260.58 234.726C263.616 236.316 267.339 236.841 270.502 235.521C271.083 235.278 271.642 234.977 272.2 234.676L272.201 234.675C273.148 234.164 274.093 233.654 275.142 233.436C276.807 233.091 278.927 233.906 279.125 235.595C278.263 234.156 276.222 233.901 274.617 234.386C273.711 234.66 272.875 235.107 272.038 235.556L272.038 235.556C271.392 235.902 270.745 236.248 270.065 236.515C266.659 237.852 262.692 237.042 259.557 235.156C256.519 233.329 254.14 230.601 251.993 227.775L251.786 227.501C251.568 227.212 251.352 226.921 251.135 226.63L251.131 226.624C249.621 224.596 248.101 222.552 246.109 221.009C243.874 219.279 240.873 218.256 238.182 219.086L238.018 219.14C235.444 220.011 232.719 217.549 232.255 214.872C231.792 212.194 232.884 209.519 233.952 207.02C235.054 204.443 233.031 201.436 230.48 200.274C228.113 199.197 225.27 199.221 222.922 200.339C222.161 200.701 222.024 201.7 222.049 202.553L222.053 202.647C222.184 205.66 222.989 208.827 225.189 210.891C225.842 211.504 226.598 212 227.352 212.494C228.296 213.113 229.238 213.73 229.975 214.576C231.302 216.097 231.506 218.947 229.663 219.77C232.826 220.341 235.956 221.097 239.03 222.033C222.487 220.341 207.276 212.538 196.355 203.113C196.132 203.55 195.974 204.011 195.878 204.485C195.904 204.957 195.93 205.407 195.955 205.835C195.989 206.44 196.022 207.001 196.047 207.521C196.573 209.251 197.801 210.776 199.489 211.447C199.355 210.232 199.765 208.967 200.586 208.061C200.053 209.251 199.208 211.534 202.504 213.845ZM227.915 190.556C226.443 190.282 224.947 190.136 223.449 190.121C223.348 190.309 223.309 190.531 223.341 190.743C225.011 190.881 226.655 191.321 228.171 192.035C227.538 192.668 226.491 192.289 225.64 191.981L225.59 191.963C224.137 191.437 222.542 191.309 221.024 191.598C220.25 191.746 219.476 192.011 218.88 192.526C218.283 193.041 217.893 193.843 218.026 194.62C218.196 195.612 219.129 196.29 220.061 196.672C222.37 197.618 225.137 197.351 227.224 195.982C227.393 195.871 227.631 196.056 227.641 196.258C227.651 196.46 227.515 196.639 227.371 196.781C226.54 197.609 225.303 197.872 224.132 197.941C223.79 197.961 223.447 197.967 223.103 197.974L223.102 197.974C222.268 197.99 221.435 198.007 220.63 198.211C220.739 198.875 221.568 199.103 222.239 199.152C224.804 199.338 227.406 198.993 229.833 198.144C230.441 197.932 231 198.541 231.358 199.076L233.973 202.978C234.832 202.169 234.781 200.772 234.376 199.664C234.217 199.231 234.016 198.814 233.815 198.397C233.501 197.747 233.188 197.098 233.041 196.395C232.959 196.007 232.93 195.61 232.901 195.213V195.213L232.901 195.212C232.86 194.654 232.819 194.098 232.635 193.574C231.984 191.726 229.841 190.915 227.915 190.556ZM196.328 226.176L193.955 224.812C193.692 224.661 193.206 224.635 193.233 224.938C193.152 226.163 193.252 227.664 194.04 228.685C194.536 229.328 194.894 229.658 196.647 230.093L196.518 226.662C196.511 226.48 196.486 226.266 196.328 226.176ZM232.47 207.51C232.759 207.343 232.942 207.045 233.114 206.759C233.421 206.248 233.738 205.706 233.752 205.109C233.765 204.513 233.353 203.862 232.757 203.839C232.46 203.827 232.178 203.968 231.936 204.14C231.398 204.52 230.983 205.071 230.766 205.693C231.041 206.089 231.662 205.736 231.938 205.341C232.214 204.947 232.623 204.449 233.063 204.646C232.773 205.651 232.26 206.592 231.571 207.381C231.755 207.659 232.181 207.678 232.47 207.51ZM237.218 236.492C236.558 235.444 235.846 234.312 234.669 233.971C237.279 238.882 241.322 243.019 246.172 245.74C247.866 246.69 249.651 247.47 251.436 248.25C253.924 249.337 256.409 250.423 258.635 251.965C261.423 253.898 263.73 256.521 265.29 259.534C264.677 255.238 261.084 251.95 257.25 249.919C255.513 248.999 253.689 248.258 251.866 247.517C249.662 246.621 247.46 245.726 245.415 244.517C242.157 242.59 239.364 239.881 237.339 236.682C237.299 236.619 237.259 236.556 237.218 236.492ZM245.414 237.945L245.487 238.106C245.808 238.849 246.03 239.783 245.428 240.286C244.947 240.687 244.219 240.534 243.652 240.268C242.427 239.693 241.414 238.677 240.843 237.45C241.558 237.308 242.228 236.949 242.742 236.431C243.169 236.001 243.923 236.088 244.404 236.457C244.885 236.825 245.158 237.396 245.414 237.945ZM245.025 239.703C245.642 238.595 244.383 236.96 243.768 236.854C243.5 236.808 243.224 237.073 242.928 237.357C242.623 237.649 242.297 237.962 241.937 237.98C241.937 237.98 244.407 240.811 245.025 239.703ZM276.155 242.889C291.143 242.397 305.775 235.095 315.18 223.415C315.667 222.811 316.631 222.801 317.308 223.181C317.985 223.56 318.442 224.228 318.875 224.872C319.346 224.803 319.36 224.071 319.035 223.723C318.875 223.551 318.674 223.426 318.473 223.301C318.266 223.172 318.059 223.044 317.897 222.865C317.242 222.14 317.592 220.999 317.976 220.101L319.686 216.097C319.915 215.56 320.273 214.934 320.856 214.943C321.283 214.949 321.612 215.305 321.882 215.635C324.833 219.23 327.57 223 330.075 226.919C328.531 227.158 327.047 226.398 325.582 225.647C323.946 224.809 322.336 223.984 320.695 224.578C319.266 225.096 318.424 226.536 317.667 227.854C315.192 232.168 312.355 236.322 308.763 239.761C300.421 247.748 288.78 251.205 277.439 253.391C284.454 256.046 292.181 256.791 299.574 255.524C303.805 254.799 308.024 253.372 311.321 250.624C312.656 249.511 313.815 248.204 314.967 246.903L323.46 237.317C323.957 236.756 324.875 237.294 325.338 237.884C325.801 238.474 326.43 239.209 327.136 238.957C326.63 237.825 325.753 236.862 324.671 236.255C324.607 234.903 324.567 233.454 325.286 232.307C326.005 231.16 327.797 230.601 328.73 231.583C331.788 234.8 334.718 238.138 337.511 241.588C335.872 241.845 334.315 241.14 332.769 240.44C332.291 240.223 331.815 240.007 331.337 239.821C329.314 239.03 326.479 239.046 325.556 241.013C323.033 246.391 320.412 251.907 316.081 255.973C308.849 262.764 298.281 264.297 288.423 265.415C284.051 265.911 279.56 266.381 275.303 265.268C272.205 264.458 269.385 262.846 266.608 261.251L264.404 259.986C263.755 260.148 264.276 261.131 264.852 261.471C268.542 263.647 272.346 265.865 276.577 266.531C277.656 266.701 278.747 266.767 279.838 266.808C289.88 267.186 299.997 265.424 309.321 261.675C313.209 260.111 317.166 258.021 319.301 254.415L326.825 241.708C327.114 241.221 327.431 240.707 327.942 240.466C328.565 240.171 329.298 240.359 329.959 240.551L337.012 242.6C337.733 242.809 338.403 241.964 338.327 241.217C338.252 240.47 337.713 239.865 337.201 239.317L330.696 232.355C329.838 231.437 328.916 230.478 327.704 230.144C326.493 229.809 324.935 230.398 324.698 231.633C323.998 235.277 321.509 238.279 319.107 241.107C315.388 245.484 311.517 249.982 306.356 252.5C298.954 256.112 290.208 255.063 282.105 253.596L287.359 252.065C289.96 251.307 292.565 250.548 295.087 249.558C304.868 245.714 313.199 238.298 318.15 229.029C319.01 227.42 320.02 225.56 321.815 225.237C323.291 224.972 324.549 225.843 325.835 226.733C326.599 227.263 327.374 227.799 328.21 228.108C329.442 228.563 331.356 227.915 331.066 226.633C331 226.344 330.824 226.093 330.653 225.851L323.962 216.418C323.034 215.109 321.643 213.631 320.115 214.122C318.888 214.517 318.428 215.934 318.022 217.183L318.021 217.185L318.019 217.19C317.996 217.263 317.972 217.335 317.949 217.406C316.044 223.209 310.923 227.263 306.063 230.962C303.937 232.58 301.804 234.202 299.51 235.571C292.806 239.571 284.945 241.264 277.155 241.77C274.954 241.913 273.571 243.978 272.305 245.867C272.155 246.092 272.006 246.314 271.857 246.53C269.689 249.689 266.602 252.21 263.073 253.701C263.663 254.354 264.738 253.963 265.485 253.496C269.026 251.283 272.03 248.217 274.17 244.631C274.642 243.84 275.235 242.919 276.155 242.889ZM229.13 209.031C228.786 209.786 228.017 210.329 227.191 210.402C226.365 210.476 225.512 210.077 225.04 209.395C224.866 209.144 224.868 208.654 225.172 208.681C225.804 209.52 227.122 209.737 227.989 209.145C228.365 208.888 229.017 208.59 229.13 209.031ZM222.487 203.546C222.562 202.914 223.095 202.365 223.725 202.271C224.354 202.177 225.024 202.547 225.28 203.129C224.82 203.129 224.512 203.046 224.255 202.977L224.255 202.977C223.732 202.836 223.423 202.752 222.487 203.546ZM227.367 207.068L226.651 207.375L226.609 207.351C226.424 207.705 225.876 207.304 225.834 206.907C225.826 206.825 225.822 206.738 225.818 206.651L225.817 206.651V206.651L225.817 206.65L225.817 206.65L225.817 206.65V206.65L225.817 206.65C225.801 206.313 225.785 205.963 225.507 205.812C225.159 206.313 225 206.972 225.202 207.548C225.404 208.123 226.02 208.56 226.62 208.451C227.22 208.343 227.652 207.607 227.367 207.068ZM228.227 202.183C229.133 202.256 229.374 202.305 229.624 202.901C229.673 203.018 229.286 202.908 228.917 202.803C228.645 202.725 228.384 202.65 228.313 202.671C225.28 203.571 227.321 202.11 228.227 202.183ZM227.971 203.75C228.471 204.147 228.326 205.728 227.587 205.43C227.278 205.306 226.908 202.907 227.971 203.75ZM251.944 246.093C251.705 245.795 251.976 245.264 252.357 245.282C252.526 245.391 252.64 245.58 252.66 245.78C252.515 246.015 252.216 246.143 251.946 246.086L251.944 246.093ZM245.134 243.011L245.654 242.931L245.696 242.916C245.877 242.578 245.285 242.192 245.049 242.495C244.997 242.667 245.03 242.863 245.134 243.011ZM248.841 245.065C248.539 245.146 248.498 244.628 248.668 244.365L249.389 244.693C249.278 244.888 249.072 245.026 248.849 245.053L248.841 245.065ZM239.84 237.509C239.76 237.311 239.473 237.235 239.306 237.367L239.352 237.413C239.207 237.602 239.322 237.925 239.553 237.98C239.766 237.96 239.919 237.706 239.84 237.509ZM224.003 205.467C223.712 205.467 223.409 205.183 223.424 204.69C223.439 204.197 223.573 203.742 224.003 203.984C224.432 204.226 224.302 205.467 224.003 205.467ZM88.8419 145.556C89.0165 145.786 89.416 145.685 89.5697 145.441C89.7235 145.196 89.7042 144.885 89.6764 144.598C89.2741 140.443 88.1958 136.354 86.4966 132.541C86.0126 131.455 85.5037 130.101 86.2446 129.171C87.9577 133.452 89.6851 137.787 90.309 142.356C90.4793 143.603 90.5404 144.969 89.8451 146.018C89.1499 147.067 87.4176 147.469 86.6451 146.476C87.8332 146.227 88.7422 145.024 88.6565 143.814C89.2053 144.188 89.2997 145.075 88.8419 145.556ZM102.688 228.057C108.904 227.716 116.105 226.819 119.365 221.516C120.211 220.141 120.03 217.979 119.882 216.197C119.762 214.766 119.663 213.58 120.133 213.245C121.188 212.493 122.032 214.433 122.032 214.433C122.046 214.374 122.061 214.309 122.077 214.239C122.096 214.155 122.117 214.064 122.139 213.966C122.433 212.645 122.976 210.211 123.828 210.668C124.179 210.856 124.058 212.04 123.975 212.852C123.956 213.043 123.938 213.214 123.93 213.346C123.91 213.472 123.907 213.577 123.922 213.651C123.934 213.646 123.946 213.639 123.959 213.631C123.968 213.629 123.979 213.621 123.992 213.606C124.13 213.489 124.318 213.202 124.528 212.882C124.964 212.219 125.49 211.418 125.843 211.712C126.397 212.175 124.427 215.128 124.427 215.128C124.427 215.128 126.766 212.557 126.964 213.651C127.161 214.745 121.834 224.625 117.025 228.5C112.217 232.375 105.441 234.545 99.315 233.768C99.4518 231.338 100.258 228.191 102.688 228.057ZM123.992 213.606C123.98 213.615 123.97 213.624 123.959 213.631C123.922 213.637 123.918 213.527 123.93 213.346C123.975 213.06 124.108 212.669 124.322 212.294C124.282 212.422 124.241 212.546 124.204 212.662L124.203 212.664C124.032 213.188 123.909 213.567 124.037 213.537C124.02 213.568 124.005 213.59 123.992 213.606ZM125.149 211.376C124.805 211.594 124.527 211.936 124.322 212.294C124.641 211.284 124.964 210.009 124.179 209.907C122.846 209.734 121.544 211.902 121.775 213.054C121.406 212.137 119.867 212.534 119.495 213.45C119.209 214.154 119.33 214.924 119.451 215.688C119.488 215.92 119.524 216.152 119.549 216.38C119.95 220.035 117.21 223.451 113.888 225.027C110.756 226.514 107.202 226.722 103.725 226.83L102.914 226.854C100.93 226.906 98.7804 226.86 97.2656 225.593C95.705 224.288 95.7067 221.191 97.6664 220.643C102.641 219.254 106.436 214.407 106.59 209.244C106.636 207.718 107.625 206.449 108.582 205.222C108.668 205.111 108.753 205.001 108.838 204.892L109.048 204.617C110.119 203.197 110.999 201.24 110.1 199.706C108.707 201.493 106.098 202.213 103.986 201.394C103.105 201.053 102.324 200.482 101.548 199.915C100.509 199.155 99.4783 198.402 98.2269 198.213C95.7796 197.845 93.3522 200.323 93.771 202.762C93.1086 202.206 92.0803 203.047 92.0086 203.909C91.9665 204.416 92.0997 204.909 92.2335 205.404C92.3273 205.751 92.4215 206.099 92.4556 206.454C92.4953 206.868 92.453 207.281 92.4106 207.695C92.382 207.975 92.3533 208.255 92.3499 208.536C92.3322 209.987 92.9791 211.331 93.6161 212.654L93.6189 212.66C93.6823 212.792 93.7456 212.923 93.8081 213.055L93.9785 213.418C94.7039 214.991 95.2419 216.862 94.4688 218.412C93.6958 219.962 91.0646 220.447 90.3191 218.884C86.6655 211.222 78.3844 206.006 69.8962 206.018C60.0683 206.033 51.2258 212.51 45.434 220.45C44.7116 221.44 44.0046 222.507 43.8472 223.723C43.6898 224.938 44.2539 226.333 45.4102 226.74C46.5665 227.146 48.066 226.009 47.6892 224.843C48.2758 225.528 49.4757 224.88 49.752 224.022C49.9073 223.539 49.9054 223.031 49.9035 222.52C49.9021 222.122 49.9006 221.723 49.9736 221.335C50.3319 219.431 52.2904 218.331 54.0532 217.527L54.4087 217.365C58.561 215.486 62.8871 213.809 67.4288 213.49C72.1004 213.162 77.0854 214.46 80.2958 217.87C75.9152 218.909 73.3713 223.304 71.3436 227.364L71.0623 227.93C69.0149 232.042 66.3333 236.527 61.8436 237.399C62.0142 238.284 62.7963 239.017 63.6913 239.13L47.2319 248.915L48.4946 250.482C44.4871 256.624 39.9546 262.423 34.9628 267.796C32.2487 270.717 28.7245 273.744 24.7956 273.064C24.0851 272.941 23.3963 272.697 22.7098 272.454C21.7046 272.098 20.7046 271.744 19.6492 271.774C17.8731 271.825 16.0907 273.985 17.2963 275.291C19.9663 278.181 23.0137 280.723 26.3366 282.831L26.4227 282.885C26.8272 283.137 27.2721 283.372 27.7412 283.318C28.2154 283.264 28.6014 282.927 28.9541 282.605L51.2456 262.28C53.0713 260.629 55.0804 258.977 57.5124 258.734L57.7177 258.709C59.5164 258.459 60.9982 257.322 62.4843 256.181C63.1313 255.685 63.7791 255.187 64.4543 254.762C66.7388 253.325 70.5281 253.177 71.4167 255.726C71.8888 257.08 71.2708 258.458 70.6616 259.816C70.4801 260.221 70.2994 260.624 70.1486 261.024C69.4916 262.766 70.0299 265.445 71.8915 265.412L82.3093 265.228C82.6838 265.224 83.0781 265.245 83.3691 265.474C83.6739 265.714 83.7807 266.113 83.8393 266.504L83.8634 266.683C84.2558 269.874 84.2016 273.119 83.7032 276.295C83.1629 279.737 81.7255 283.523 78.4781 284.785C76.4297 285.581 74.1483 285.167 71.9908 284.673L58.8821 281.611C58.8602 280.024 60.2963 278.731 61.8273 278.311C63.1254 277.954 64.4889 278.063 65.8391 278.171L66.0878 278.19L66.5639 278.226C69.8815 278.454 73.2354 278.146 76.4558 277.317L71.809 265.688C72.2827 269.549 73.3269 273.339 74.8972 276.897L59.6211 277.393C58.291 277.43 56.8142 277.371 55.92 276.4C55.6904 276.151 55.4991 275.845 55.3095 275.541C54.9202 274.917 54.5381 274.304 53.8469 274.224C53.2496 274.155 52.7085 274.554 52.2511 274.944C49.2645 277.492 46.7847 280.631 44.998 284.126C45.6422 285.721 47.7764 286.167 49.4343 285.71C50.4042 285.442 51.2894 284.96 52.1764 284.476C52.8056 284.133 53.4358 283.79 54.0976 283.523C57.7903 282.03 61.8498 283.041 65.7495 284.216L68.0658 284.921C72.6434 286.296 78.2247 287.001 81.655 283.673C83.6792 281.709 84.4166 278.786 84.8174 275.995C85.974 267.939 85.0364 259.591 82.1215 251.992C85.3715 250.738 86.9052 247.103 88.0975 243.83L90.4324 237.42C91.2125 235.278 92.9848 232.651 95.0944 233.513C101.125 235.98 108.248 234.937 113.863 231.631C119.478 228.325 123.681 222.97 126.512 217.102L126.588 216.943C127.142 215.777 127.848 213.056 127.217 212.754C126.982 212.57 126.563 212.876 126.278 213.085C126.123 213.198 126.008 213.283 125.982 213.245C125.966 213.223 126.017 213.072 126.091 212.858C126.379 212.018 127.001 210.205 125.149 211.376ZM85.2407 247.358C84.5112 248.998 83.3039 250.929 81.5219 250.711C80.5678 250.594 79.847 249.874 79.1986 249.134L78.8512 248.731C75.0851 244.36 69.9688 241.454 64.8267 238.779L63.1135 237.894C67.3021 237.07 69.8861 232.928 71.7311 229.078L72.3191 227.851C74.0063 224.354 75.9261 220.755 79.406 219.18C79.887 218.963 80.4387 218.789 80.9347 218.97C81.0088 218.997 81.0885 219.028 81.1716 219.06L81.1755 219.061C81.7879 219.296 82.5767 219.6 82.5641 219.02C81.4475 218.569 81.2639 216.941 81.908 215.924C82.496 214.995 83.5146 214.459 84.5231 213.997L84.8107 213.867C84.1673 212.98 82.773 213.726 82.0445 214.545L81.9845 214.611C81.2534 215.413 80.1312 216.292 79.2875 215.64C75.8007 212.946 71.1538 212.081 66.7679 212.504C62.382 212.927 58.1974 214.53 54.1906 216.364C52.7221 217.036 51.2305 217.768 50.1407 218.96C49.2976 219.882 49.2102 221.109 49.1224 222.343C49.0967 222.704 49.071 223.065 49.0262 223.42C48.918 224.277 48.4463 224.31 48.0308 224.339C47.8081 224.355 47.6015 224.369 47.4757 224.508C47.4656 224.52 47.4331 224.57 47.3843 224.645L47.384 224.645C47.1346 225.028 46.4595 226.065 46.1546 225.962C45.7067 225.81 45.9351 224.843 45.9351 224.843C45.9351 224.843 44.6061 225.223 44.5072 224.843C44.1611 223.514 46.1546 220.794 46.1546 220.794C49.5062 215.864 54.4764 211.773 59.9408 209.394C65.5065 206.972 72.0011 206.505 77.6907 208.619C84.105 211.003 89.1843 216.698 90.8218 223.343C91.2301 224.999 93.1569 225.73 94.8406 226.006C94.999 226.032 95.1593 226.057 95.3207 226.082C96.8746 226.325 98.5268 226.583 99.5172 227.769C99.8091 228.119 99.7284 228.636 99.6281 229.081L99.5988 229.209C99.2294 230.793 98.585 232.567 97.0454 233.048C95.6462 233.485 93.9883 232.356 93.8812 230.894C93.8718 230.766 93.869 230.63 93.8661 230.492C93.8544 229.923 93.842 229.325 93.3648 229.09L85.2407 247.358ZM72.0081 256.023C71.4849 253.334 69.8945 250.915 67.8079 249.141C67.8894 250.198 68.3364 251.223 69.0555 252.002C65.5196 253.126 62.1851 254.88 59.2563 257.158C58.4724 257.768 57.1407 258.324 56.6815 257.443C54.8752 253.979 51.9997 251.082 48.5492 249.249L62.7349 241.097C63.3761 240.729 64.0542 240.35 64.7937 240.343C65.3669 240.337 65.9114 240.556 66.4297 240.812L66.6867 240.942C71.9952 243.676 76.7471 247.486 80.5707 252.072C81.5174 253.208 81.958 254.662 82.333 256.1L84.0204 262.693C84.1321 263.129 84.2141 263.67 83.872 263.963C83.6795 264.128 83.4085 264.157 83.1556 264.176L82.8599 264.199C78.6593 264.522 75.2703 264.783 71.062 264.176C70.434 262.972 70.9085 261.48 71.3985 259.94C71.8183 258.619 72.2495 257.264 72.0081 256.023ZM50.9049 251.969C52.4789 253.355 53.8979 254.917 55.127 256.617C55.2585 256.799 55.3937 257.002 55.3797 257.226C55.3634 257.487 55.1517 257.688 54.9547 257.86L36.62 273.908C35.8555 274.577 34.6359 274.459 33.7796 273.913C33.0303 273.434 32.4945 272.701 32.003 271.953L31.7945 271.633C36.5728 269.122 39.638 264.623 42.7304 260.085C44.6701 257.238 46.6206 254.375 49.0112 251.978C49.2436 251.745 49.5058 251.503 49.8328 251.467C50.2373 251.421 50.5994 251.7 50.9049 251.969ZM104.298 207.208L104.766 207.352C105.678 207.634 105.829 208.856 105.713 209.803C105.233 213.724 102.795 217.606 99.0367 218.825L98.9024 218.87C96.4532 219.735 94.7023 222.297 94.8069 224.896C93.163 225.204 91.4005 223.888 91.2277 222.225C91.1932 221.893 91.2914 221.462 91.621 221.412C93.1146 221.182 94.4884 220.266 95.2736 218.974C96.0588 217.683 96.2409 216.042 95.7577 214.61C95.659 214.318 95.5335 214.025 95.4079 213.732L95.4078 213.732C95.0507 212.898 94.6921 212.061 94.9431 211.221C95.5155 211.273 95.6241 212.059 95.5636 212.63L95.5571 212.7C95.5107 213.263 95.6102 213.986 96.1569 214.062C96.5174 213.234 96.5923 212.308 96.6667 211.388C96.7606 210.227 96.8536 209.077 97.5193 208.152C98.2804 207.095 99.6458 206.609 100.949 206.594C102.089 206.58 103.203 206.876 104.298 207.208ZM21.9175 273.328L22.0351 273.193C22.6912 273.049 23.3179 273.89 22.9929 274.477C22.7844 274.855 23.4256 275.228 23.7836 274.988C24.1416 274.748 24.2138 274.261 24.2532 273.831C24.6134 273.719 24.9249 274.131 24.9929 274.502C25.0109 274.601 25.0221 274.702 25.0332 274.804C25.0643 275.086 25.0954 275.37 25.2738 275.583C25.5164 275.872 26.1589 275.722 26.0535 275.36C25.8963 274.819 26.535 274.378 27.0924 274.298C27.2261 274.279 27.3642 274.267 27.5027 274.256L27.5035 274.256C27.9418 274.22 28.3837 274.184 28.7028 273.899L28.7509 273.861C29.1559 273.573 29.6572 274.105 29.9629 274.577L30.105 274.806C30.7771 275.85 31.9194 276.582 33.1509 276.749C33.3923 276.782 33.2695 277.158 33.0922 277.325L28.9358 281.239C28.7343 281.429 28.4078 281.294 28.1718 281.149C25.7046 279.639 23.427 277.819 21.4093 275.746C20.7736 275.093 21.3127 274.051 21.9175 273.328ZM58.2658 280.614C58.146 281.107 57.8052 281.66 57.2986 281.622C56.0777 281.532 54.8398 281.679 53.674 282.053C53.781 281.556 53.5636 281.005 53.1461 280.714C52.8415 281.15 52.9661 281.825 53.4061 282.124L52.2439 283.272L51.6876 281.993C51.4133 282.066 51.4053 282.403 51.4242 282.712L51.4377 282.903C51.4934 283.713 50.8069 284.499 49.9976 284.554C49.1882 284.609 48.4022 283.921 48.3487 283.112C48.2904 282.23 48.9658 281.49 49.5936 280.868L54.052 276.454C54.1468 276.364 54.2554 276.279 54.3834 276.282C54.5248 276.284 54.6395 276.392 54.7391 276.492L56.4788 278.248C56.8162 278.588 56.603 279.109 56.3952 279.617C56.1813 280.139 55.9731 280.648 56.3771 280.931C56.7703 280.954 57.0978 280.613 57.249 280.249C57.3261 280.063 57.373 279.868 57.4198 279.672C57.4648 279.483 57.5099 279.295 57.5817 279.116C57.7283 278.751 58.0448 278.403 58.4386 278.411C58.8325 278.419 59.1364 278.982 58.8318 279.232C58.5071 279.498 58.4143 279.931 58.3242 280.352C58.3053 280.441 58.2866 280.528 58.2658 280.614ZM27.783 282.566C23.7756 280.422 20.2334 277.414 17.4685 273.808C17.8311 273.464 18.3763 273.829 18.727 274.218L18.8138 274.32C21.4408 277.571 24.7401 280.276 28.4427 282.215C28.4127 282.507 28.0421 282.704 27.783 282.566ZM47.0018 281.745C48.7377 279.475 50.661 277.348 52.7458 275.393C53.069 275.09 53.7402 274.886 53.822 275.321C51.3949 277.638 49.0735 280.065 46.8675 282.594C46.6278 282.386 46.809 281.997 47.0018 281.745ZM33.6703 276.069C32.459 275.638 31.3791 274.845 30.6054 273.818C30.3143 273.432 30.1307 272.76 30.5718 272.562C30.9204 272.405 31.2553 272.734 31.4985 273.054L31.6808 273.302C32.4644 274.336 33.5819 275.113 34.8249 275.485C34.8271 275.817 34.5526 276.128 34.2232 276.166C34.0356 276.188 33.8483 276.132 33.6703 276.069ZM93.1129 208.886C93.6824 208.9 94.1645 209.493 94.061 210.053L94.0744 210.061C94.1532 210.467 94.1014 210.898 93.9284 211.273C93.3057 210.663 92.9939 209.75 93.1129 208.886ZM103.962 208.9L103.962 208.9C104.034 208.894 104.109 208.887 104.186 208.886C104.282 208.885 104.392 208.902 104.497 208.918L104.497 208.918C104.779 208.962 105.015 208.999 104.792 208.65C104.487 208.171 103.593 208.118 103.446 208.666C103.487 208.942 103.7 208.923 103.962 208.9ZM104.681 211.265L104.693 211.215C104.911 210.392 104.785 209.742 104.185 209.742C103.954 209.76 103.601 210.938 103.634 211.296C103.668 211.653 104.071 211.984 104.383 211.806C104.568 211.701 104.627 211.472 104.681 211.265ZM100.725 211.015C100.307 210.434 100.263 209.607 100.617 208.986C100.67 208.893 100.734 208.801 100.827 208.748C101.061 208.614 101.375 208.796 101.479 209.046C101.582 209.296 101.537 209.579 101.49 209.845C101.49 209.845 101.143 211.595 100.725 211.015ZM189.291 211.032C181.653 209.158 173.674 208.684 165.869 209.642C167.223 206.486 167.818 203.006 167.589 199.579C165.555 201.005 162.215 199.333 162.138 196.85C162.061 194.367 165.29 192.491 167.409 193.788C167.97 194.132 168.588 193.419 168.812 192.8C169.577 190.692 169.585 188.317 168.833 186.204C168.54 185.381 169.782 184.935 170.656 184.952L178.068 185.099C178.565 185.109 179.094 185.111 179.519 184.852C179.944 184.592 180.186 183.969 179.873 183.581C178.591 181.99 180.065 179.142 182.105 179.27C184.145 179.398 185.251 182.408 183.779 183.827C183.505 184.091 184.038 184.432 184.419 184.441L194.111 184.664C196.038 184.708 197.4 186.762 197.479 188.688C197.546 190.318 196.967 191.88 196.395 193.422C196.345 193.556 196.295 193.691 196.246 193.825L196.088 194.261C194.371 199.078 193.819 204.304 194.49 209.374C194.621 210.362 193.711 211.242 192.737 211.456C191.877 211.645 190.992 211.458 190.131 211.243L189.291 211.032Z" fill="#00160A"/>
<path fill-rule="evenodd" clip-rule="evenodd" d="M85.9884 122.325C86.059 121.868 86.6678 121.604 87.1077 121.761C87.5477 121.918 87.9405 122.549 87.6181 122.906C87.1077 123.471 85.8514 123.212 85.9884 122.325Z" fill="#FFB61D"/>
<path fill-rule="evenodd" clip-rule="evenodd" d="M277.512 240.617C277.224 240.859 276.647 240.946 276.594 240.574C277.716 239.432 278.488 237.95 278.782 236.376C279.148 236.278 279.254 236.862 279.162 237.23C278.852 238.47 278.491 239.796 277.512 240.617Z" fill="#00160A"/>
<path d="M29.6919 104.545C29.6805 104.913 29.122 104.892 28.7843 104.745C28.9059 104.416 29.3987 104.306 29.6484 104.552L29.6919 104.545Z" fill="black"/>
<path fill-rule="evenodd" clip-rule="evenodd" d="M189.064 205.692C188.675 206.038 188.02 205.509 188.078 204.991C188.136 204.474 188.594 204.103 189.034 203.824C190.611 202.825 192.437 202.223 194.299 202.089C194.349 202.799 193.428 203.092 192.73 203.228C191.248 203.517 189.836 204.159 188.644 205.087C188.859 205.219 189.016 205.444 189.064 205.692V205.692Z" fill="#00160A"/>
<path fill-rule="evenodd" clip-rule="evenodd" d="M194.352 206.598C193.478 207.019 192.589 207.408 191.687 207.765C191.789 208.146 192.336 208.133 192.707 207.999C193.078 207.865 193.565 207.725 193.806 208.037C193.196 208.968 191.684 209.113 190.908 208.315C190.571 207.969 189.96 208.197 189.525 207.986C188.901 207.685 189.017 206.744 189.384 206.157C190.151 204.931 191.612 204.175 193.056 204.258C193.605 204.289 194.262 204.561 194.299 205.11C192.575 205.002 190.817 205.712 189.653 206.989C190.314 207.5 191.263 207.118 192.009 206.741C192.754 206.363 193.739 206.029 194.352 206.598Z" fill="#00160A"/>
<path fill-rule="evenodd" clip-rule="evenodd" d="M102.586 211.487C103.08 211.982 103.286 212.209 103.286 212.937C103.286 213.665 102.891 214.133 102.224 214.346C101.917 214.445 101.491 214.37 101.412 214.057C103.633 213.603 102.816 212.635 102.586 211.487Z" fill="#00160A"/>
<path fill-rule="evenodd" clip-rule="evenodd" d="M99.6219 208.39C99.8588 207.604 100.89 207.18 101.611 207.57C101.897 207.725 102.134 208.007 102.149 208.331C101.307 208.351 100.613 207.806 99.6219 208.39Z" fill="#00160A"/>
<path fill-rule="evenodd" clip-rule="evenodd" d="M101.639 215.409C96.94 212.8 100.619 216.143 101.639 215.409V215.409Z" fill="#00160A"/>
</svg>
