<svg width="340" height="340" viewBox="0 0 340 340" fill="none" xmlns="http://www.w3.org/2000/svg">
<path fill-rule="evenodd" clip-rule="evenodd" d="M97.048 183.177C97.3758 184.76 97.0091 186.412 96.4094 187.913C96.5597 188.056 96.7099 188.199 96.8601 188.342C99.8608 186.006 102.908 183.622 105.09 180.507C106.009 179.195 104.923 177.279 103.451 176.647C101.979 176.015 100.306 176.21 98.705 176.142C96.779 176.06 94.8711 175.576 93.1396 174.728C90.6258 173.498 88.319 171.469 85.5206 171.427C85.2117 171.422 84.8809 171.451 84.6382 171.642C84.0462 172.108 84.4079 173.057 84.8524 173.665C87.0586 176.684 90.3659 178.879 94.0045 179.739C95.5772 180.111 96.7201 181.595 97.048 183.177Z" fill="#64FCD9"/>
<path fill-rule="evenodd" clip-rule="evenodd" d="M145.321 229.283L105.541 238.161C97.4103 239.976 89.3481 234.856 87.5336 226.725C86.6589 222.806 87.3829 218.7 89.5451 215.317L111.494 180.972C118.251 170.399 120.513 157.568 117.78 145.322L108.902 105.541C107.087 97.4105 112.207 89.3484 120.338 87.5338C124.257 86.6592 128.362 87.3831 131.746 89.5454L166.091 111.494C176.664 118.251 189.495 120.513 201.741 117.78L241.522 108.902C249.652 107.087 257.714 112.207 259.529 120.338C260.404 124.257 259.68 128.363 257.517 131.746L235.569 166.091C228.812 176.664 226.55 189.495 229.283 201.742L238.161 241.522C239.976 249.653 234.856 257.715 226.725 259.529C222.806 260.404 218.7 259.68 215.317 257.518L180.972 235.569C170.399 228.812 157.568 226.55 145.321 229.283Z" fill="#64FCD9"/>
<path d="M285.236 213.796C285.236 213.796 106.959 213.89 36.3759 213.796C30.8358 201.718 37.8054 185.581 50.3958 181.333C46.4555 185.828 42.5152 190.324 38.5749 194.819C45.4978 194.749 285.236 194.819 285.236 194.819V213.796Z" fill="white"/>
<path fill-rule="evenodd" clip-rule="evenodd" d="M227.738 213.822C139.22 213.857 75.4328 213.848 36.376 213.796C30.8359 201.718 166.676 206.804 218.187 206.804C269.697 206.804 245.866 213.815 227.738 213.822Z" fill="#E7EAEE"/>
<path fill-rule="evenodd" clip-rule="evenodd" d="M190.873 75.34C191.502 74.6227 192.744 74.5697 193.432 75.2307C191.21 70.8294 184.708 69.5099 183.311 64.7814C181.523 58.7282 178.886 52.9268 175.5 47.6C174.091 52.837 171.4 57.7241 167.727 61.7144C166.771 61.7187 165.816 61.723 164.86 61.7273C162.69 61.7371 160.5 61.7489 158.38 62.2156C154.566 63.0552 151.147 65.3297 147.283 65.8957C147.569 65.537 147.855 65.1783 148.142 64.8196C148.062 64.4494 147.526 64.2801 147.248 64.5374C146.758 62.5905 145.182 61.0616 143.393 60.1502C141.604 59.2388 138.967 57.5425 133.688 57.9887C140.093 65.1589 138.109 95.0092 139.685 100.666C140.222 100.81 140.634 100.222 140.983 99.7895C141.333 99.3569 142.149 99.0912 142.338 99.6143C143.65 103.251 143.836 108.848 147.858 111.015C148.634 111.433 149.096 110.652 149.036 110.271C148.959 109.785 149.543 109.41 150.029 109.484C150.516 109.558 150.905 109.911 151.284 110.224C157.682 115.506 168.157 112.783 174.562 118.056C175.827 119.098 176.942 120.456 178.522 120.895C179.465 121.157 180.469 121.053 181.432 120.881C187.165 119.853 192.27 116.451 196.251 112.201C200.233 107.95 203.206 102.867 205.974 97.7418C203.424 96.2976 200.743 94.7233 199.357 92.1406C198.266 90.1056 197.594 87.1886 195.298 86.9399C196.027 89.3051 196.755 91.6703 197.483 94.0355C197.75 94.9015 198.02 95.8048 197.879 96.6999C197.738 97.5951 197.053 98.4744 196.148 98.5198C194.92 98.5815 194.055 97.1914 192.836 97.0332C192.604 101.608 190.848 106.093 187.91 109.607C186.891 110.827 184.931 111.934 183.897 110.727C185.467 108.191 187.037 105.655 188.607 103.118C189.585 101.537 190.589 99.8835 190.769 98.0331C190.948 96.1827 190.031 94.0837 188.252 93.5442C188.172 93.055 188.688 92.6348 189.184 92.6202C189.679 92.6056 190.135 92.8679 190.561 93.1217C192.145 94.0664 193.728 95.011 195.312 95.9557C194.807 92.2002 193.774 88.5161 192.252 85.0456C193.726 84.906 195.234 85.1312 196.602 85.6957C195.548 82.6468 193.616 79.9073 191.098 77.8914C190.353 77.2951 190.244 76.0573 190.873 75.34Z" fill="white"/>
<path fill-rule="evenodd" clip-rule="evenodd" d="M159.244 67.247C160.549 68.1107 161.579 69.3841 162.149 70.841C162.327 71.294 162.831 71.5126 163.171 71.8605C163.512 72.2083 163.568 72.9519 163.091 73.049C162.883 73.0915 162.678 72.9767 162.495 72.8676C159.57 71.1208 156.012 69.7104 152.821 70.9035C153.346 71.1715 153.611 71.8593 153.401 72.4101C154.053 72.4336 154.66 72.7266 155.245 73.0137C155.761 73.2666 156.276 73.5196 156.791 73.7725C156.737 73.9246 156.683 74.0768 156.629 74.2289C154.299 73.0425 151.453 72.9191 149.029 73.8995C149.835 74.0219 150.656 74.0443 151.467 73.966C152.649 74.562 153.832 75.1581 155.015 75.7542C155.278 75.8868 155.555 76.0326 155.703 76.2873C155.851 76.5421 155.795 76.9371 155.52 77.0421C153.383 75.1574 150.36 74.324 147.559 74.8474C147.232 74.9085 147.009 74.4526 147.147 74.1504C147.286 73.8482 147.619 73.6931 147.928 73.5713C149.481 72.96 151.118 72.5646 152.779 72.4C151.948 71.63 150.986 71.0022 149.947 70.552C149.775 69.9667 150.62 69.4056 151.093 69.7902C154.689 69.0853 158.542 69.7848 161.661 71.7089C161.687 71.0971 161.233 70.5826 160.809 70.1413C159.482 68.7617 158.155 67.3821 156.827 66.0025C159.151 66.2969 161.429 66.9512 163.555 67.9349C164.036 68.1574 164.51 68.3976 164.946 68.6991C166.586 69.8345 167.562 71.8656 167.424 73.8555C166.43 71.7557 164.858 69.9334 162.926 68.6434C161.822 67.906 160.57 67.3319 159.244 67.247V67.247Z" fill="#E7EAEE"/>
<path fill-rule="evenodd" clip-rule="evenodd" d="M74.7719 166.496C71.4068 169.516 71.7006 174.861 72.9152 179.216C74.4778 184.82 77.1202 190.12 80.6548 194.74L38.5749 195.163L50.3958 181.678C37.8054 185.925 30.8358 202.063 36.3759 214.14C106.959 214.234 177.543 214.09 248.126 213.707C235.252 222.407 222.772 232.963 216.79 247.303C210.807 261.644 213.284 280.498 226.002 289.426C230.739 292.751 236.427 294.455 242.114 295.532C247.977 296.642 255.078 296.689 258.697 291.944C260.81 289.173 259.8 284.824 258.801 280.524C258.104 277.524 257.412 274.547 257.79 272.146C259.071 264.002 264.554 259.872 270.81 255.16C272.124 254.17 273.472 253.154 274.823 252.07C286.355 242.814 299.575 231.112 302.941 216.713C306.015 203.56 302.632 190.513 293.839 180.26C290.674 176.568 286.782 173.208 282.871 169.831L282.871 169.831C277.615 165.293 272.324 160.724 268.71 155.278C266.504 151.953 265.73 148.398 264.919 144.668C264.627 143.329 264.331 141.968 263.962 140.586C259.222 122.847 242.319 113.726 224.914 104.334C222.71 103.145 220.498 101.951 218.301 100.735C208.228 95.158 198.063 88.0198 194.828 76.8458C196.612 76.9153 197.273 74.2346 196.245 72.7751C195.481 71.6898 194.274 71.0791 193.069 70.4699C192.654 70.2599 192.24 70.0501 191.843 69.8211C188.166 67.695 186.057 63.3575 183.898 58.9157C180.654 52.2423 177.296 45.3333 168.329 45.3333C167.991 47.5974 168.341 49.6145 168.669 51.5043C169.175 54.425 169.629 57.0417 167.41 59.7969C161.055 59.0922 154.486 60.4818 148.961 63.6993C145.767 57.6353 137.666 55.0449 131.1 57.0082C131.931 58.0549 132.424 58.5799 132.833 59.0151C133.697 59.9344 134.184 60.453 136.689 64.6425C140.38 70.8152 138.042 93.5075 137.458 97.0952C136.873 100.683 139.638 103.233 142.166 101.461C140.935 106.779 145.372 111.854 150.828 112.007C152.692 112.339 153.85 113.24 154.945 114.092C155.625 114.622 156.282 115.133 157.068 115.476C139.742 127.868 120.563 137.663 100.366 144.434L100.011 144.553C96.2317 145.818 92.2816 147.14 89.6059 150.076C86.8462 153.105 86.1982 158.482 89.4095 161.027C87.4488 162.805 84.7653 163.288 82.081 163.772C79.4077 164.253 76.7336 164.735 74.7719 166.496ZM253.75 190.479C250.623 193.433 244.501 193.588 240.199 193.57L184.413 193.342C182.802 191.2 183.798 187.909 185.88 186.221C187.962 184.534 190.765 184.08 193.437 183.868C202.06 183.185 210.83 184.424 218.926 187.469C221.2 187.873 222.926 185.005 222.377 182.762C221.827 180.519 219.917 178.915 218.141 177.439C212.41 172.678 206.79 167.317 204.1 160.368C201.31 153.163 202.12 144.662 206.219 138.112C199.337 143.83 197.891 154.34 200.982 162.736C204.072 171.133 210.86 177.664 218.214 182.76C214.198 183.584 210.028 182.666 205.9 181.758C200.898 180.658 195.959 179.571 191.429 181.612L190.495 156.132L188.074 178.466C187.894 180.126 187.371 182.181 185.73 182.49C181.274 183.328 178.633 189.163 180.943 193.063C178.952 194.407 175.915 193.806 174.586 191.805C173.257 189.805 173.88 186.772 175.89 185.458C180.764 182.269 181.15 175.399 181.018 169.575L180.102 129.366C180.08 128.396 180.3 127.12 181.262 126.986C195.337 125.03 207.852 114.454 212.127 100.902C224.601 106.49 237.077 112.933 247.143 121.806C270.178 142.112 263.859 158.997 262.207 163.414C261.917 164.187 261.771 164.579 261.95 164.538C263.099 164.282 263.644 162.988 263.962 161.855C264.705 159.208 265.189 156.488 265.404 153.748C269.206 160.81 275.259 166.176 281.324 171.553L281.324 171.553L281.324 171.553C286.867 176.467 292.421 181.391 296.275 187.626C302.218 197.243 303.462 209.62 299.551 220.227C294.932 232.757 284.315 241.523 273.843 250.168C271.327 252.245 268.819 254.316 266.405 256.43C261.351 260.855 256.267 266.337 256.104 273.052C256.061 274.851 256.382 276.625 256.704 278.401L256.704 278.401C256.931 279.657 257.159 280.914 257.258 282.182C257.498 285.244 256.742 288.728 254.149 290.374C253.055 291.069 251.755 291.355 250.473 291.54C237.181 293.46 220.9 284.465 217.108 271.582C213.387 258.94 219.918 243.343 228.499 233.342C233.83 227.128 240.727 222.688 247.648 218.233C251.867 215.517 256.094 212.795 259.981 209.663C263.623 206.728 267.219 203.564 269.524 199.493C271.829 195.423 272.656 190.248 270.586 186.053C268.89 182.616 265.546 180.229 262.267 177.888C258.144 174.945 254.124 172.075 253.611 167.282C253.674 169.435 254.583 171.848 255.484 174.239L255.484 174.239C256.27 176.324 257.05 178.393 257.257 180.26C257.702 184.268 256.681 187.709 253.75 190.479ZM260.533 182.259C266.133 182.32 269.421 189.409 267.846 194.783C266.271 200.158 261.644 203.983 257.257 207.463C255.056 209.209 252.626 211.041 249.816 211.062L37.9662 212.647L37.038 196.213L77.8961 196.174C83.181 196.169 89.1732 196.471 92.6156 200.481C93.8674 201.939 96.0964 200.351 97.6237 199.185C101.242 196.421 106.154 196.286 110.707 196.268L260.187 195.661C261.79 195.655 263.947 195.116 263.894 193.514L253.842 193.136C257.452 190.652 259.943 186.602 260.533 182.259ZM105.072 194.391C107.314 188.975 109.016 183.335 110.142 177.583C110.458 175.968 110.73 174.314 110.515 172.682C109.87 167.783 105.219 164.56 100.946 162.08C102.77 162.043 104.326 160.754 105.496 159.355C105.822 158.966 106.133 158.561 106.444 158.156L106.444 158.156C107.251 157.105 108.058 156.055 109.121 155.278C111.301 153.685 111.65 153.656 116.155 153.287C116.619 153.249 117.127 153.207 117.685 153.16C121.647 152.824 131.227 149.215 138.222 146.579L138.223 146.579L138.223 146.579L138.224 146.579L138.224 146.578C141.792 145.234 144.687 144.143 145.821 143.87C161.336 140.126 172.09 145.027 174.512 147.669C175.834 149.111 176.158 151.179 176.424 153.117C177.618 161.835 178.813 170.69 177.555 179.399C177.32 181.025 176.886 182.817 175.507 183.71C174.125 184.606 172.823 185.626 171.623 186.753C169.698 188.562 167.968 191.498 169.463 193.675L105.072 194.391ZM193.385 74.5841C192.697 73.9231 191.455 73.9761 190.826 74.6934C190.197 75.4107 190.306 76.6484 191.051 77.2448C193.569 79.2607 195.501 82.0002 196.555 85.049C195.186 84.4846 193.679 84.2593 192.205 84.399C193.727 87.8695 194.76 91.5536 195.265 95.3091L190.514 92.4751C190.088 92.2212 189.632 91.959 189.137 91.9736C188.641 91.9882 188.125 92.4084 188.204 92.8976C189.983 93.4371 190.901 95.5361 190.722 97.3865C190.542 99.2369 189.538 100.891 188.56 102.471L183.85 110.081C184.884 111.288 186.844 110.18 187.863 108.961C190.801 105.446 192.557 100.961 192.789 96.3865C193.355 96.46 193.845 96.7993 194.33 97.1354C194.89 97.5229 195.444 97.9062 196.101 97.8732C197.006 97.8278 197.691 96.9484 197.831 96.0533C197.972 95.1581 197.703 94.2549 197.436 93.3889L195.251 86.2933C197.032 86.4862 197.836 88.2847 198.616 90.0316C198.842 90.5367 199.065 91.0375 199.31 91.494C200.696 94.0767 203.377 95.651 205.927 97.0952C203.159 102.22 200.186 107.303 196.204 111.554C192.222 115.805 187.118 119.207 181.385 120.234C180.422 120.407 179.417 120.51 178.475 120.248C177.294 119.92 176.372 119.078 175.454 118.239C175.144 117.956 174.834 117.673 174.515 117.41C171.314 114.775 167.097 114.137 162.881 113.498C158.659 112.859 154.438 112.22 151.237 109.577L151.146 109.502C150.795 109.21 150.43 108.906 149.982 108.838C149.496 108.764 148.912 109.138 148.988 109.625C149.049 110.005 148.587 110.786 147.811 110.368C144.818 108.756 143.949 105.244 143.16 102.054C142.888 100.957 142.626 99.8983 142.291 98.9677C142.102 98.4445 141.286 98.7103 140.936 99.1429C140.908 99.1775 140.88 99.2131 140.851 99.2492C140.52 99.6648 140.132 100.152 139.638 100.02C139.048 97.8494 139.253 95.3964 139.452 93.0232V93.0231L139.452 93.0229C139.533 92.0568 139.613 91.1039 139.638 90.1887C139.64 90.106 139.665 89.857 139.705 89.4666L139.706 89.4639L139.706 89.4637V89.4636C140.163 84.9964 142.506 62.0937 133.688 57.9887C135.784 57.5754 139.168 57.9578 142.166 59.7969C145.2 61.6575 147.38 65.0687 147.236 65.2491C149.331 64.9423 151.295 64.1332 153.262 63.3229C154.923 62.6386 156.586 61.9534 158.333 61.569C160.453 61.1023 162.643 61.0905 164.813 61.0807L167.68 61.0678C170.768 57.7127 170.649 54.0373 170.51 49.7752V49.7749V49.7745V49.7742V49.7738C170.484 48.9674 170.457 48.1399 170.451 47.2896C175.803 47.9926 181.476 58.0816 183.264 64.1347C184.011 66.663 186.217 68.2167 188.448 69.7879C190.39 71.1553 192.351 72.5361 193.385 74.5841ZM102.159 145.957L102.16 145.957L102.16 145.957L102.16 145.957L102.16 145.957C102.773 145.801 103.382 145.646 103.983 145.488C113.177 143.055 121.758 138.774 130.265 134.521C140.401 129.454 150.711 124.265 158.842 116.373C159.471 115.764 160.467 115.806 161.336 115.918C164.548 116.332 167.707 117.152 170.715 118.352C172.291 118.981 174.064 120.061 174.075 121.758C174.079 122.355 173.849 122.926 173.624 123.48L172.109 127.191C171.463 128.775 170.806 130.417 170.862 132.127C170.918 133.836 171.888 135.64 173.533 136.11C175.177 136.579 177.209 135.049 176.784 133.393C176.056 130.556 175.558 127.66 175.296 124.744C178.501 131.089 177.396 138.66 176.214 145.67C171.973 143.435 167.534 141.578 162.966 140.126C161.397 139.627 159.638 139.188 158.156 139.904C154.527 141.659 147.696 142.127 147.024 141.655C146.351 141.183 145.431 141.411 144.656 141.683C143.408 142.122 141.029 143.049 138.187 144.157C131.215 146.876 121.454 150.681 118.766 151.021C118.059 151.111 117.347 151.177 116.636 151.244H116.636C115.098 151.387 113.56 151.531 112.066 151.909C109.879 152.462 107.724 153.608 106.567 155.544C105.702 155.068 105.163 154.227 104.62 153.382C104.358 152.974 104.096 152.565 103.795 152.195C102.873 151.059 100.938 150.358 100.054 151.524C99.2781 148.872 95.3517 147.848 93.3798 149.784C93.075 150.083 92.8207 150.428 92.5665 150.772C92.3022 151.131 92.038 151.489 91.7171 151.796C91.0876 152.398 90.0799 152.769 89.3494 152.294C92.3348 148.451 97.3602 147.175 102.159 145.957ZM92.4284 194.124C90.176 194.935 87.6907 194.145 85.4562 193.286C83.344 192.475 81.139 191.507 79.8558 189.643C78.3115 187.4 78.478 184.44 78.7055 181.727L79.6588 170.359C78.2452 171.548 77.207 173.177 76.7259 174.96C75.5837 172.44 77.2828 169.074 79.9886 168.497C78.8455 167.55 76.9638 168.171 76.1569 169.417C75.3501 170.663 75.3684 172.267 75.6043 173.733C75.6679 174.128 75.7453 174.522 75.8228 174.917L75.8228 174.917L75.8229 174.917L75.8229 174.917L75.8229 174.917C76.0326 175.986 76.2424 177.055 76.1778 178.137C74.4794 175.483 74.1557 171.998 75.3361 169.076C75.8707 167.753 76.8183 166.459 78.204 166.118C79.5897 165.777 81.3047 166.909 81.0751 168.318C80.549 171.546 82.0541 174.859 84.3622 177.176C86.6703 179.493 89.6949 180.952 92.7479 182.125C93.8714 182.556 95.2685 183.544 94.7206 184.616C94.1484 185.735 93.7538 187.002 93.9504 188.243C94.1469 189.485 95.0563 190.671 96.295 190.886C97.8218 191.149 99.1805 189.967 100.278 188.873L106.763 182.413C105.899 184.814 104.885 187.161 103.729 189.436C102.938 190.994 102.033 192.573 100.602 193.576C99.1712 194.58 97.0764 194.841 95.7231 193.735C94.969 193.119 93.9401 193.529 92.9823 193.911C92.7941 193.986 92.6086 194.059 92.4284 194.124ZM91.7866 171.516C91.1817 171.115 90.5762 170.714 89.9489 170.36C88.0055 169.263 85.4247 168.674 83.6407 170.014C83.0688 168.173 84.1994 166.196 85.6739 164.955C88.2825 162.759 92.1069 162.115 95.2909 163.335C98.3097 164.492 101.374 165.752 103.772 167.921C106.17 170.089 107.809 173.368 107.193 176.542C106.518 176.706 105.956 176.165 105.43 175.659C105.329 175.562 105.23 175.467 105.132 175.378C103.641 174.029 101.595 173.992 99.5108 173.955C98.2433 173.932 96.9613 173.91 95.7807 173.591C94.3218 173.198 93.0556 172.358 91.7866 171.516ZM96.4097 187.913C97.0095 186.412 97.3762 184.76 97.0483 183.177C96.7205 181.595 95.5776 180.111 94.0049 179.739C90.3663 178.879 87.0589 176.684 84.8527 173.665C84.4082 173.057 84.0466 172.108 84.6385 171.642C84.8812 171.451 85.2121 171.423 85.5209 171.427C87.5134 171.457 89.2566 172.494 91.0028 173.533L91.003 173.533L91.0032 173.534L91.0033 173.534L91.0035 173.534C91.7096 173.954 92.4162 174.374 93.14 174.729C94.8714 175.576 96.7794 176.061 98.7053 176.142C99.0913 176.158 99.4814 176.16 99.872 176.161C101.101 176.164 102.335 176.167 103.452 176.647C104.924 177.279 106.01 179.195 105.09 180.507C102.909 183.622 99.8611 186.006 96.8605 188.342L96.4097 187.913ZM206.851 98.8857C207.186 98.2807 207.683 97.5857 208.37 97.664C209.26 97.7653 209.439 98.9793 209.317 99.8662C208.45 106.159 204.555 111.753 199.6 115.727C194.645 119.7 188.683 122.216 182.652 124.21C182.238 124.347 181.832 124.606 181.433 124.859C180.67 125.345 179.934 125.813 179.219 125.384C178.394 124.889 178.605 123.533 179.355 122.932C180.036 122.386 180.942 122.269 181.816 122.156L181.907 122.145C181.965 122.137 182.024 122.129 182.083 122.121C187.913 121.336 193.121 117.877 197.104 113.547C201.088 109.218 204.002 104.033 206.851 98.8857ZM98.7365 151.887C99.2618 152.513 99.8406 153.202 100.638 153.185C101.308 153.171 101.726 153.715 102.159 154.279C102.466 154.679 102.78 155.089 103.198 155.317C104.196 155.861 104.282 157.377 103.627 158.306C102.971 159.236 101.834 159.688 100.734 159.976C98.4898 160.562 96.1206 160.663 93.835 160.271C92.3444 160.015 90.7993 159.491 89.8598 158.306C88.9202 157.12 88.8935 155.13 90.1375 154.27C90.5536 153.982 91.0546 153.848 91.5527 153.714C92.1466 153.555 92.7365 153.398 93.1734 152.982C93.4977 152.673 93.692 152.261 93.8861 151.85C94.0893 151.42 94.2922 150.99 94.644 150.68C95.2135 150.177 96.0763 150.108 96.793 150.359C97.5098 150.61 98.0989 151.136 98.591 151.714L98.6576 151.793L98.7365 151.887ZM94.535 198.157C94.3045 198.248 94.0447 198.263 93.8055 198.198C93.574 198.136 93.3629 198 93.2103 197.815C92.5897 197.063 93.4548 195.704 94.399 195.947C95.3432 196.191 95.4422 197.799 94.535 198.157ZM171.3 193.439C171.07 193.714 170.51 193.685 170.451 193.332C170.206 191.878 170.09 190.09 171.292 189.237L171.496 192.409C171.519 192.767 171.53 193.163 171.3 193.439ZM159.244 64.9803C160.549 65.844 161.579 67.1174 162.149 68.5743C162.266 68.8712 162.522 69.0674 162.781 69.2653C162.917 69.3694 163.054 69.4739 163.171 69.5938C163.512 69.9417 163.568 70.6852 163.091 70.7824C162.883 70.8249 162.678 70.71 162.495 70.6009C159.57 68.8541 156.012 67.4438 152.821 68.6368C153.346 68.9048 153.611 69.5926 153.401 70.1434C154.053 70.167 154.66 70.4599 155.245 70.7471L156.791 71.5058L156.629 71.9623C154.299 70.7758 151.453 70.6524 149.029 71.6328C149.835 71.7552 150.656 71.7776 151.467 71.6993L155.015 73.4875C155.278 73.6201 155.555 73.7659 155.703 74.0207C155.851 74.2754 155.795 74.6704 155.52 74.7754C153.383 72.8907 150.36 72.0573 147.559 72.5807C147.232 72.6418 147.009 72.1859 147.147 71.8837C147.286 71.5815 147.619 71.4265 147.928 71.3046C149.481 70.6933 151.118 70.2979 152.779 70.1333C151.948 69.3633 150.986 68.7355 149.946 68.2853C149.775 67.7 150.62 67.139 151.093 67.5235C154.689 66.8186 158.542 67.5181 161.661 69.4422C161.687 68.8304 161.233 68.316 160.809 67.8746L156.827 63.7358C159.151 64.0303 161.429 64.6846 163.555 65.6682C164.036 65.8907 164.51 66.1309 164.946 66.4324C166.586 67.5679 167.562 69.5989 167.424 71.5889C166.43 69.489 164.858 67.6668 162.926 66.3767C161.822 65.6394 160.57 65.0652 159.244 64.9803ZM167.432 84.3051C167.206 82.5491 167.196 80.6759 168.031 79.1148C168.281 78.648 168.627 78.1994 169.119 78.0037C169.872 77.7043 170.739 78.0864 171.332 78.6377C172.805 80.0053 173.118 82.2206 172.992 84.2265C172.938 85.0981 172.809 85.9896 172.382 86.7513C171.955 87.513 171.173 88.1257 170.3 88.1386C169.423 88.1515 168.623 87.5587 168.167 86.8098C167.711 86.0609 167.543 85.1747 167.432 84.3051ZM146.465 90.8377C144.808 88.3027 144.92 84.7368 146.732 82.3105C146.948 82.0205 147.194 81.7396 147.516 81.5738C148.143 81.2509 148.943 81.4456 149.486 81.8953C150.029 82.345 150.355 83.0036 150.591 83.6677C151.291 85.635 151.32 87.8341 150.672 89.8191C150.279 91.023 149.305 92.3256 148.058 92.1079C147.369 91.9877 146.847 91.423 146.465 90.8377ZM162.375 103.858C162.574 103.803 162.772 103.748 162.919 103.608C163.229 103.311 163.12 102.737 162.768 102.491C162.415 102.245 161.921 102.288 161.545 102.496C161.164 102.707 160.862 103.124 160.926 103.555C160.991 103.985 161.541 104.306 161.895 104.053C162.035 103.953 162.206 103.905 162.375 103.858ZM166.848 96.8689C169.598 96.2595 171.135 96.3367 173.494 96.9379L173.992 97.0676C176.346 97.6823 177.816 97.685 180.804 96.7164C181.161 96.6006 181.545 96.7964 181.661 97.1536C181.776 97.5109 176.324 99.0601 173.832 98.4307L173.372 98.3111C171.078 97.7083 169.742 97.6205 167.142 98.1966C166.775 98.2779 166.412 98.0465 166.331 97.6799C166.25 97.3132 166.481 96.9501 166.848 96.8689ZM188.448 90.3013C188.282 89.9643 187.874 89.8256 187.537 89.9915C182.698 92.3736 180.016 92.6839 175.604 92.1205L174.49 91.9825C174.363 91.9681 174.251 91.9564 174.134 91.945L173.737 91.9097C171.109 91.7032 169.026 92.149 166.353 93.7453C166.031 93.9379 165.925 94.3553 166.118 94.6778C166.311 95.0002 166.728 95.1055 167.051 94.9129C169.538 93.4277 171.374 93.0594 173.828 93.2823C173.99 93.2971 174.126 93.3105 174.284 93.3279L175.916 93.5286C180.299 94.0377 188.613 90.6382 188.448 90.3013ZM154.875 96.685C155.249 96.6584 155.574 96.9404 155.601 97.315C155.628 97.6896 155.346 98.0149 154.971 98.0416C153.421 98.1519 152.353 98.6791 150.75 99.9708L150.171 100.45L149.977 100.612L149.759 100.794C148.346 101.972 147.405 102.614 146.157 103.126C145.809 103.268 143.41 103.757 145.27 102.755C147.13 101.753 149.553 99.1934 149.553 99.1934L149.908 98.903C151.707 97.4554 152.993 96.8189 154.875 96.685ZM155.895 99.9382C155.748 99.5928 155.348 99.4323 155.003 99.5798C153.296 100.308 152.335 101.24 150.72 103.353L150.221 104.002C149.894 104.42 149.62 104.842 149.355 105.251C148.768 106.154 148.222 106.996 147.235 107.603C145.8 108.486 147.85 108.023 148.17 107.826C149.444 107.043 150.27 106.179 151.559 104.495L151.933 104.006C153.333 102.192 154.15 101.423 155.537 100.831C155.882 100.683 156.042 100.284 155.895 99.9382Z" fill="#00160A"/>
<path fill-rule="evenodd" clip-rule="evenodd" d="M158.277 97.7783C157.721 97.2769 156.913 97.1234 156.37 96.608C155.855 96.1193 155.657 95.3227 155.885 94.6502C156.113 93.9778 156.754 93.4651 157.46 93.3902C159.485 93.1755 161.51 92.9608 163.535 92.7461C164.016 92.6952 164.547 92.6569 164.937 92.9434C165.531 93.3807 165.438 94.3364 165.008 94.9364C164.578 95.5364 163.916 95.9231 163.398 96.449C162.731 97.1268 162.313 98.0456 162.242 98.9941C162.189 99.6985 162.266 100.538 161.708 100.971C161.007 101.514 159.971 100.872 159.542 100.096C159.113 99.32 158.936 98.3718 158.277 97.7783H158.277Z" fill="#FFB61D"/>
<path fill-rule="evenodd" clip-rule="evenodd" d="M240.396 193.762C244.698 193.779 250.82 193.624 253.947 190.67C256.878 187.9 257.899 184.46 257.454 180.451C257.009 176.443 253.926 171.504 253.808 167.473C254.729 176.078 266.953 178.485 270.783 186.245C272.853 190.439 272.026 195.614 269.721 199.685C267.416 203.755 263.82 206.919 260.178 209.855C249.917 218.124 237.277 223.532 228.696 233.533C220.115 243.535 213.584 259.132 217.305 271.774C221.097 284.657 237.378 293.651 250.67 291.731C251.952 291.546 253.252 291.26 254.346 290.566C256.939 288.919 257.695 285.435 257.455 282.373C257.215 279.311 256.227 276.315 256.301 273.244C256.464 266.529 261.548 261.046 266.601 256.621C279.063 245.709 294.019 235.96 299.748 220.419C303.659 209.811 302.415 197.435 296.472 187.818C288.401 174.759 272.877 167.456 265.601 153.939C265.386 156.68 264.902 159.4 264.159 162.047C263.841 163.18 263.296 164.473 262.147 164.73C260.941 164.999 274.41 145.861 247.34 121.998C237.274 113.124 224.798 106.681 212.324 101.093C208.048 114.646 195.534 125.222 181.458 127.177C180.497 127.311 180.277 128.587 180.299 129.558C180.604 142.961 180.909 156.364 181.215 169.767C181.347 175.59 180.961 182.46 176.086 185.649C174.077 186.964 173.454 189.996 174.783 191.997C176.112 193.997 179.149 194.598 181.14 193.255C178.83 189.354 181.471 183.52 185.927 182.681C187.568 182.372 188.091 180.318 188.271 178.658C189.078 171.213 189.885 163.768 190.692 156.324C191.003 164.817 191.314 173.31 191.626 181.803C199.894 178.078 209.528 184.773 218.411 182.951C211.057 177.856 204.269 171.324 201.179 162.928C198.088 154.531 199.534 144.021 206.416 138.304C202.317 144.854 201.507 153.354 204.297 160.56C206.987 167.508 212.607 172.87 218.338 177.631C220.114 179.106 222.024 180.71 222.573 182.953C223.123 185.196 221.397 188.064 219.123 187.66C211.027 184.616 202.257 183.377 193.634 184.06C190.962 184.271 188.159 184.725 186.077 186.413C183.995 188.101 182.998 191.392 184.61 193.533C203.205 193.609 221.801 193.685 240.396 193.762Z" fill="white"/>
<path fill-rule="evenodd" clip-rule="evenodd" d="M250.473 291.54C251.755 291.355 253.055 291.069 254.149 290.374C256.742 288.728 257.498 285.244 257.258 282.182C257.019 279.119 256.03 276.123 256.104 273.052C256.267 266.337 261.351 260.855 266.405 256.43C278.866 245.518 293.822 235.768 299.551 220.227C301.846 214.005 273.04 233.033 257.258 255.436C246.138 271.221 244.979 292.333 250.473 291.54Z" fill="#E7EAEE"/>
<path fill-rule="evenodd" clip-rule="evenodd" d="M261.07 136.792C259.117 132.09 253.674 127.563 247.143 121.806C237.077 112.933 224.601 106.49 212.127 100.902C224.359 109.812 239.271 117.25 249.882 128.434C255.054 133.885 258.552 144.87 261.476 148.4C263.715 151.102 266.638 150.202 261.07 136.792Z" fill="#E7EAEE"/>
<path fill-rule="evenodd" clip-rule="evenodd" d="M174.875 134.948C175.319 133.98 175.631 129.509 173.294 129.509C171.837 131.164 171.986 134.34 174.875 134.948Z" fill="#FFB61D"/>
<path fill-rule="evenodd" clip-rule="evenodd" d="M103.983 145.488C98.6775 146.891 92.7163 147.96 89.3496 152.294C90.0801 152.769 91.0878 152.398 91.7173 151.796C92.3469 151.194 92.7584 150.394 93.38 149.784C95.352 147.848 99.2783 148.872 100.054 151.524C100.938 150.358 102.874 151.059 103.796 152.195C104.718 153.331 105.285 154.839 106.567 155.544C107.724 153.608 109.879 152.462 112.066 151.909C114.252 151.356 116.529 151.305 118.767 151.021C122.549 150.542 126.245 149.387 129.627 147.626C129.421 148.048 143.433 141.972 156.255 141.091C165.619 140.448 174.425 144.727 176.214 145.67C177.396 138.66 178.501 131.089 175.297 124.744C175.559 127.66 176.056 130.556 176.784 133.393C177.209 135.049 175.178 136.579 173.533 136.11C171.889 135.64 170.918 133.836 170.862 132.127C170.806 130.417 171.464 128.775 172.11 127.191C172.614 125.954 173.119 124.717 173.624 123.48C173.85 122.926 174.079 122.355 174.075 121.758C174.064 120.061 172.291 118.981 170.715 118.352C167.707 117.152 164.548 116.332 161.336 115.918C160.467 115.806 159.471 115.764 158.842 116.374C150.711 124.265 140.401 129.454 130.266 134.521C121.759 138.774 113.177 143.055 103.983 145.488Z" fill="white"/>
<path fill-rule="evenodd" clip-rule="evenodd" d="M106.567 155.544C107.724 153.608 109.88 152.462 112.066 151.909C114.252 151.356 116.529 151.305 118.767 151.021C119.64 150.911 123.224 150.345 127.877 148.712C134.605 146.352 143.841 142.583 152.64 141.624C164.126 140.373 174.367 144.697 176.215 145.67C177.396 138.66 173.401 139.502 171.256 139.28C123.834 134.382 105.285 154.839 106.567 155.544Z" fill="#E7EAEE"/>
</svg>
